<svg height="1024" node-id="1" sillyvg="true" template-height="1024" template-width="1024" version="1.1" viewBox="0 0 1024 1024" width="1024" xmlns="http://www.w3.org/2000/svg" xmlns:xlink="http://www.w3.org/1999/xlink"><defs node-id="168"><linearGradient gradientUnits="objectBoundingBox" id="linearGradient-1" node-id="5" spreadMethod="pad" x1="-0.1358235" x2="0.5" y1="0.5" y2="0.47203198"><stop offset="0" stop-color="#98d6fa"></stop><stop offset="1" stop-color="#47b0f1"></stop></linearGradient><linearGradient gradientUnits="objectBoundingBox" id="linearGradient-2" node-id="8" spreadMethod="pad" x1="-0.0000000000000009337728" x2="1" y1="-0.031055901" y2="-0.031055901"><stop offset="0" stop-color="#fff5de"></stop><stop offset="1" stop-color="#fbd2ac"></stop></linearGradient><linearGradient gradientUnits="objectBoundingBox" id="linearGradient-3" node-id="11" spreadMethod="pad" x1="-0.1358235" x2="0.5" y1="0.5" y2="0.47628444"><stop offset="0" stop-color="#98d6fa"></stop><stop offset="1" stop-color="#47b0f1"></stop></linearGradient><linearGradient gradientUnits="objectBoundingBox" id="linearGradient-4" node-id="14" spreadMethod="pad" x1="-0.1358235" x2="0.5" y1="0.5" y2="0.47629464"><stop offset="0" stop-color="#98d6fa"></stop><stop offset="1" stop-color="#47b0f1"></stop></linearGradient><linearGradient gradientUnits="objectBoundingBox" id="linearGradient-5" node-id="17" spreadMethod="pad" x1="-0.1358235" x2="0.5" y1="0.5" y2="0.47629884"><stop offset="0" stop-color="#98d6fa"></stop><stop offset="1" stop-color="#47b0f1"></stop></linearGradient><linearGradient gradientUnits="objectBoundingBox" id="linearGradient-6" node-id="20" spreadMethod="pad" x1="0.1109336" x2="0.5" y1="0.8700849" y2="0.30481097"><stop offset="0" stop-color="#98d6fa"></stop><stop offset="1" stop-color="#47b0f1"></stop></linearGradient><linearGradient gradientUnits="objectBoundingBox" id="linearGradient-7" node-id="23" spreadMethod="pad" x1="0.11872949" x2="0.5" y1="0.8700849" y2="0.30481097"><stop offset="0" stop-color="#98d6fa"></stop><stop offset="1" stop-color="#47b0f1"></stop></linearGradient><linearGradient gradientUnits="objectBoundingBox" id="linearGradient-8" node-id="26" spreadMethod="pad" x1="1.5408053" x2="0.5" y1="0.8700849" y2="0.30481097"><stop offset="0" stop-color="#98d6fa"></stop><stop offset="1" stop-color="#47b0f1"></stop></linearGradient><linearGradient gradientUnits="objectBoundingBox" id="linearGradient-9" node-id="29" spreadMethod="pad" x1="0.99999994" x2="0" y1="-0.11764705" y2="-0.11764705"><stop offset="0" stop-color="#f5dda7"></stop><stop offset="1" stop-color="#fa9a41"></stop></linearGradient><linearGradient gradientUnits="objectBoundingBox" id="linearGradient-10" node-id="32" spreadMethod="pad" x1="0.22355923" x2="0.5" y1="-0.089142084" y2="0.77381057"><stop offset="0" stop-color="#98d6fa"></stop><stop offset="1" stop-color="#47b0f1"></stop></linearGradient><linearGradient gradientUnits="objectBoundingBox" id="linearGradient-11" node-id="35" spreadMethod="pad" x1="0.4536279" x2="0.5" y1="-0.11452465" y2="0.7856074"><stop offset="0" stop-color="#98d6fa"></stop><stop offset="1" stop-color="#47b0f1"></stop></linearGradient><linearGradient gradientUnits="objectBoundingBox" id="linearGradient-12" node-id="38" spreadMethod="pad" x1="0.47746408" x2="0.5" y1="-0.11452465" y2="0.7856074"><stop offset="0" stop-color="#98d6fa"></stop><stop offset="1" stop-color="#47b0f1"></stop></linearGradient><linearGradient gradientUnits="objectBoundingBox" id="linearGradient-13" node-id="41" spreadMethod="pad" x1="0.4389308" x2="0.5" y1="-0.11452465" y2="0.7856074"><stop offset="0" stop-color="#98d6fa"></stop><stop offset="1" stop-color="#47b0f1"></stop></linearGradient><linearGradient gradientUnits="objectBoundingBox" id="linearGradient-14" node-id="44" spreadMethod="pad" x1="0" x2="1.1322753" y1="0.776033" y2="0.776033"><stop offset="0" stop-color="#98d6fa"></stop><stop offset="1" stop-color="#47b0f1"></stop></linearGradient><linearGradient gradientUnits="objectBoundingBox" id="linearGradient-15" node-id="47" spreadMethod="pad" x1="0.13965733" x2="0.875197" y1="0.07491416" y2="1.0750235"><stop offset="0" stop-color="#ffb859"></stop><stop offset="1" stop-color="#f97b61"></stop></linearGradient><linearGradient gradientUnits="objectBoundingBox" id="linearGradient-16" node-id="50" spreadMethod="pad" x1="0.020751635" x2="0.5" y1="0.8700849" y2="0.30481097"><stop offset="0" stop-color="#98d6fa"></stop><stop offset="1" stop-color="#47b0f1"></stop></linearGradient><linearGradient gradientUnits="objectBoundingBox" id="linearGradient-17" node-id="53" spreadMethod="pad" x1="1" x2="0.0058146594" y1="-0.029698754" y2="-0.029698754"><stop offset="0" stop-color="#f97b61"></stop><stop offset="1" stop-color="#ffb859"></stop></linearGradient><linearGradient gradientUnits="objectBoundingBox" id="linearGradient-18" node-id="56" spreadMethod="pad" x1="1" x2="0.0058146594" y1="-0.029698754" y2="-0.029698754"><stop offset="0" stop-color="#f97b61"></stop><stop offset="1" stop-color="#ffb859"></stop></linearGradient><linearGradient gradientUnits="objectBoundingBox" id="linearGradient-19" node-id="59" spreadMethod="pad" x1="0" x2="0.9941853" y1="-0.029698754" y2="-0.029698754"><stop offset="0" stop-color="#ffb859"></stop><stop offset="1" stop-color="#f97b61"></stop></linearGradient><linearGradient gradientUnits="objectBoundingBox" id="linearGradient-20" node-id="62" spreadMethod="pad" x1="0" x2="0.9941853" y1="-0.029698754" y2="-0.029698754"><stop offset="0" stop-color="#ffb859"></stop><stop offset="1" stop-color="#f97b61"></stop></linearGradient><linearGradient gradientUnits="objectBoundingBox" id="linearGradient-21" node-id="65" spreadMethod="pad" x1="0.86275023" x2="-0.000000000000027057475" y1="-0.028050492" y2="-0.028050492"><stop offset="0" stop-color="#1d181c"></stop><stop offset="0.3" stop-color="#2c2422"></stop><stop offset="0.5" stop-color="#42352c"></stop><stop offset="0.7" stop-color="#57352c"></stop><stop offset="1" stop-color="#923629"></stop></linearGradient><linearGradient gradientUnits="objectBoundingBox" id="linearGradient-22" node-id="71" spreadMethod="pad" x1="0.09902387" x2="0.5" y1="0.8700849" y2="0.30481097"><stop offset="0" stop-color="#98d6fa"></stop><stop offset="1" stop-color="#47b0f1"></stop></linearGradient><linearGradient gradientUnits="objectBoundingBox" id="linearGradient-23" node-id="74" spreadMethod="pad" x1="0.10114263" x2="0.49999997" y1="0.8700848" y2="0.30481094"><stop offset="0" stop-color="#98d6fa"></stop><stop offset="1" stop-color="#47b0f1"></stop></linearGradient><linearGradient gradientUnits="objectBoundingBox" id="linearGradient-24" node-id="77" spreadMethod="pad" x1="-0.13582349" x2="0.49999997" y1="0.49999997" y2="0.43423018"><stop offset="0" stop-color="#98d6fa"></stop><stop offset="1" stop-color="#47b0f1"></stop></linearGradient><linearGradient gradientUnits="objectBoundingBox" id="linearGradient-25" node-id="80" spreadMethod="pad" x1="0.4313989" x2="0.6033656" y1="-0.06451612" y2="0"><stop offset="0.031572677" stop-color="#afdef9"></stop><stop offset="1" stop-color="#7cc9f9"></stop></linearGradient><linearGradient gradientUnits="objectBoundingBox" id="linearGradient-26" node-id="83" spreadMethod="pad" x1="0.05920258" x2="0.5996637" y1="0.60857147" y2="0.3705422"><stop offset="0" stop-color="#98d6fa"></stop><stop offset="1" stop-color="#47b0f1"></stop></linearGradient><linearGradient gradientUnits="objectBoundingBox" id="linearGradient-27" node-id="86" spreadMethod="pad" x1="0.44492638" x2="0.58298296" y1="-0.06451613" y2="0"><stop offset="0.031572677" stop-color="#afdef9"></stop><stop offset="1" stop-color="#7cc9f9"></stop></linearGradient><linearGradient gradientUnits="objectBoundingBox" id="linearGradient-28" node-id="89" spreadMethod="pad" x1="0.28403884" x2="0.5" y1="0.8700849" y2="0.30481097"><stop offset="0" stop-color="#98d6fa"></stop><stop offset="1" stop-color="#47b0f1"></stop></linearGradient><linearGradient gradientUnits="objectBoundingBox" id="linearGradient-29" node-id="92" spreadMethod="pad" x1="0.8017669" x2="0.40161258" y1="0.7812446" y2="0.012035674"><stop offset="0" stop-color="#98d6fa"></stop><stop offset="1" stop-color="#47b0f1"></stop></linearGradient><linearGradient gradientUnits="objectBoundingBox" id="linearGradient-30" node-id="95" spreadMethod="pad" x1="0.1696366" x2="0.73110634" y1="0.776033" y2="0.27310416"><stop offset="0" stop-color="#98d6fa"></stop><stop offset="1" stop-color="#47b0f1"></stop></linearGradient><linearGradient gradientUnits="objectBoundingBox" id="linearGradient-32" node-id="101" spreadMethod="pad" x1="0" x2="0.84977597" y1="0.6436173" y2="0.3819483"><stop offset="0" stop-color="#98d6fa"></stop><stop offset="1" stop-color="#47b0f1"></stop></linearGradient><linearGradient gradientUnits="objectBoundingBox" id="linearGradient-33" node-id="104" spreadMethod="pad" x1="0" x2="0.84977597" y1="0.63935465" y2="0.38545215"><stop offset="0" stop-color="#98d6fa"></stop><stop offset="1" stop-color="#47b0f1"></stop></linearGradient></defs><g node-id="367"><path d="M 0.00 0.00 L 1024.00 0.00 L 1024.00 1024.00 L 0.00 1024.00 Z" fill="#ffffff" fill-opacity="0" fill-rule="evenodd" group-id="1" id="矩形" node-id="108" stroke="none" target-height="1024" target-width="1024" target-x="0" target-y="0"></path></g><g node-id="368"><g node-id="377"><path d="M 76.80 581.77 L 73.83 568.49 L 71.97 559.38 L 69.82 547.84 L 67.80 535.55 L 65.82 521.45 L 64.17 506.83 L 62.88 491.00 L 62.32 480.31 L 62.04 469.36 L 62.05 458.15 L 62.42 446.95 L 63.20 435.75 L 64.39 424.55 L 66.06 413.42 L 68.25 402.53 L 70.95 391.87 L 73.38 383.98 L 76.16 376.33 L 79.29 368.94 L 82.78 361.77 L 86.68 354.81 L 91.00 348.19 L 95.75 341.89 L 100.92 335.90 L 106.51 330.33 L 112.60 325.15 L 119.24 320.35 L 126.45 315.93 L 132.34 312.86 L 138.66 310.07 L 145.42 307.58 L 152.66 305.39 L 160.40 303.51 L 178.10 300.08 L 194.86 297.29 L 210.72 295.10 L 226.66 293.29 L 241.76 291.87 L 256.05 290.83 L 277.25 289.66 L 296.81 288.85 L 315.85 288.13 L 333.44 287.30 L 344.99 286.55 L 355.96 285.55 L 366.35 284.30 L 376.69 282.65 L 386.56 280.55 L 395.98 278.01 L 402.93 275.71 L 409.70 273.04 L 416.31 269.98 L 422.76 266.54 L 428.94 262.74 L 435.06 258.41 L 441.11 253.52 L 447.10 248.05 L 456.03 239.55 L 464.00 232.33 L 471.08 226.27 L 478.37 220.45 L 484.92 215.65 L 490.79 211.76 L 496.88 208.19 L 502.50 205.35 L 507.67 203.18 L 513.00 201.39 L 518.16 200.08 L 523.16 199.21 L 528.22 198.69 L 533.39 198.46 L 538.68 198.51 L 546.76 198.96 L 555.68 199.75 L 575.59 201.60 L 582.89 201.85 L 590.28 201.53 L 597.79 200.63 L 605.24 199.25 L 612.69 197.44 L 620.16 195.20 L 627.52 192.63 L 634.75 189.78 L 641.86 186.68 L 652.27 181.65 L 662.07 176.43 L 671.50 171.00 L 679.96 165.81 L 694.70 156.20 L 705.47 148.96 L 708.73 147.00 L 714.62 143.93 L 721.41 140.81 L 730.35 137.21 L 736.61 134.98 L 743.59 132.79 L 751.34 130.64 L 759.13 128.82 L 767.44 127.29 L 776.27 126.05 L 785.14 125.28 L 794.32 125.01 L 803.83 125.28 L 810.91 125.87 L 818.07 126.88 L 825.33 128.30 L 832.69 130.15 L 839.85 132.42 L 847.04 135.22 L 854.26 138.58 L 861.53 142.51 L 868.42 146.86 L 875.30 151.89 L 882.17 157.65 L 889.04 164.20 L 894.08 169.58 L 899.09 175.53 L 904.07 182.06 L 909.00 189.21 L 913.89 197.03 L 918.24 204.72 L 922.51 213.10 L 926.70 222.22 L 930.79 232.13 L 934.77 242.86 L 938.20 253.22 L 941.49 264.41 L 944.62 276.49 L 947.58 289.51 L 950.35 303.51 L 951.86 326.93 L 953.22 350.50 L 954.29 374.03 L 954.96 397.17 L 955.14 412.56 L 955.02 427.53 L 954.62 442.08 L 953.86 456.63 L 952.72 470.53 L 951.21 483.79 L 949.74 493.77 L 948.00 503.26 L 946.01 512.28 L 943.77 520.85 L 941.11 529.43 L 938.14 537.43 L 934.87 544.88 L 931.33 551.81 L 928.10 557.25 L 924.65 562.30 L 920.97 566.96 L 917.06 571.27 L 912.91 575.24 L 907.58 580.33 L 903.24 585.14 L 899.78 589.70 L 897.11 594.04 L 894.81 598.79 L 893.19 603.30 L 892.20 607.60 L 891.78 611.74 L 891.86 615.97 L 892.40 620.04 L 893.40 623.97 L 894.87 627.79 L 896.71 631.46 L 898.90 634.98 L 901.43 638.38 L 904.32 641.65 L 908.53 645.67 L 913.11 649.38 L 918.09 652.77 L 923.32 655.79 L 928.66 658.40 L 934.12 660.61 L 939.72 662.43 L 945.12 663.75 L 950.35 664.62 L 953.51 665.26 L 956.01 666.20 L 957.99 667.41 L 959.51 668.87 L 960.66 670.60 L 961.58 673.06 L 961.99 675.94 L 961.82 679.34 L 960.97 683.39 L 959.71 687.14 L 957.90 691.28 L 955.47 695.88 L 952.32 700.96 L 947.83 707.28 L 942.35 714.05 L 935.76 721.31 L 928.84 728.20 L 921.05 735.24 L 912.32 742.43 L 903.29 749.20 L 893.54 755.83 L 883.04 762.30 L 874.99 766.81 L 866.64 771.08 L 857.96 775.11 L 848.95 778.90 L 843.66 781.07 L 836.30 783.68 L 826.40 786.78 L 810.77 791.14 L 790.68 796.12 L 769.11 800.94 L 743.83 806.04 L 717.35 810.87 L 687.89 815.68 L 657.52 820.08 L 624.90 824.17 L 602.89 826.57 L 580.23 828.73 L 556.89 830.63 L 533.55 832.18 L 509.89 833.37 L 485.91 834.19 L 461.93 834.59 L 437.96 834.52 L 413.99 833.98 L 390.06 832.93 L 366.45 831.31 L 343.18 829.14 L 325.71 827.08 L 308.62 824.67 L 291.88 821.90 L 275.50 818.78 L 259.09 815.19 L 243.22 811.19 L 227.86 806.81 L 212.99 802.04 L 204.36 798.02 L 196.16 793.63 L 188.36 788.88 L 180.95 783.75 L 173.79 778.21 L 166.99 772.40 L 160.52 766.31 L 154.39 759.94 L 146.65 751.04 L 139.45 741.84 L 132.78 732.32 L 126.55 722.51 L 120.82 712.60 L 115.56 702.60 L 110.67 692.40 L 106.23 682.36 L 102.22 672.46 L 96.77 657.57 L 92.21 643.60 L 88.21 629.92 L 84.99 617.74 L 82.19 606.11 L 80.04 596.56 L 76.80 581.77 Z" fill="#47b0f1" fill-opacity="0.05" fill-rule="nonzero" group-id="2,11" id="路径-58" node-id="110" stroke="none" target-height="709.58" target-width="899.95" target-x="62.04" target-y="125.01"></path></g><g node-id="378"><path d="M 158.00 329.00 L 158.00 329.15 L 159.66 329.70 L 161.07 330.55 L 162.28 331.73 L 163.21 333.13 L 163.78 334.71 L 164.00 336.50 L 164.00 337.50 L 163.73 339.51 L 162.98 341.29 L 161.80 342.80 L 160.29 343.98 L 158.51 344.73 L 156.50 345.00 L 77.50 345.00 L 75.49 344.73 L 73.71 343.98 L 72.20 342.80 L 71.02 341.29 L 70.27 339.51 L 70.00 337.50 L 70.00 336.50 L 70.27 334.49 L 71.02 332.71 L 72.20 331.20 L 73.71 330.02 L 75.49 329.27 L 77.50 329.00 L 109.00 329.00 L 110.86 328.74 L 112.47 328.09 L 113.87 327.03 L 114.97 325.66 L 115.68 324.08 L 116.00 322.24 L 116.00 322.00 L 115.74 320.14 L 115.09 318.53 L 114.03 317.13 L 112.66 316.03 L 111.08 315.32 L 109.24 315.00 L 109.00 315.00 L 106.00 315.00 L 106.00 314.85 L 104.34 314.30 L 102.93 313.45 L 101.72 312.28 L 100.79 310.87 L 100.22 309.29 L 100.00 307.50 L 100.00 306.50 L 100.27 304.49 L 101.02 302.71 L 102.20 301.20 L 103.71 300.02 L 105.49 299.27 L 107.50 299.00 L 186.50 299.00 L 188.51 299.27 L 190.29 300.02 L 191.80 301.20 L 192.98 302.71 L 193.73 304.49 L 194.00 306.50 L 194.00 307.50 L 193.73 309.51 L 192.98 311.29 L 191.80 312.80 L 190.29 313.98 L 188.51 314.73 L 186.50 315.00 L 155.00 315.00 L 153.14 315.26 L 151.53 315.91 L 150.13 316.97 L 149.03 318.34 L 148.32 319.92 L 148.00 321.76 L 148.00 322.00 L 148.26 323.86 L 148.91 325.47 L 149.97 326.87 L 151.34 327.97 L 152.92 328.68 L 154.76 329.00 L 155.00 329.00 L 158.00 329.00 Z" fill="url(#linearGradient-1)" fill-opacity="0.1" fill-rule="nonzero" group-id="2,12" id="形状结合" node-id="111" stroke="none" target-height="46" target-width="124" target-x="70" target-y="299"></path></g><g node-id="379"><path d="M 858.00 159.00 L 858.00 159.15 L 859.66 159.70 L 861.07 160.55 L 862.28 161.73 L 863.21 163.13 L 863.78 164.71 L 864.00 166.50 L 864.00 167.50 L 863.73 169.51 L 862.98 171.29 L 861.80 172.80 L 860.29 173.98 L 858.51 174.73 L 856.50 175.00 L 777.50 175.00 L 775.49 174.73 L 773.71 173.98 L 772.20 172.80 L 771.02 171.29 L 770.27 169.51 L 770.00 167.50 L 770.00 166.50 L 770.27 164.49 L 771.02 162.71 L 772.20 161.20 L 773.71 160.02 L 775.49 159.27 L 777.50 159.00 L 809.00 159.00 L 810.86 158.74 L 812.47 158.09 L 813.87 157.03 L 814.97 155.66 L 815.68 154.08 L 816.00 152.24 L 816.00 152.00 L 815.74 150.14 L 815.09 148.53 L 814.03 147.13 L 812.66 146.03 L 811.08 145.32 L 809.24 145.00 L 809.00 145.00 L 806.00 145.00 L 806.00 144.85 L 804.34 144.30 L 802.93 143.45 L 801.72 142.28 L 800.79 140.87 L 800.22 139.29 L 800.00 137.50 L 800.00 136.50 L 800.27 134.49 L 801.02 132.71 L 802.20 131.20 L 803.71 130.02 L 805.49 129.27 L 807.50 129.00 L 886.50 129.00 L 888.51 129.27 L 890.29 130.02 L 891.80 131.20 L 892.98 132.71 L 893.73 134.49 L 894.00 136.50 L 894.00 137.50 L 893.73 139.51 L 892.98 141.29 L 891.80 142.80 L 890.29 143.98 L 888.51 144.73 L 886.50 145.00 L 855.00 145.00 L 853.14 145.26 L 851.53 145.91 L 850.13 146.97 L 849.03 148.34 L 848.32 149.92 L 848.00 151.76 L 848.00 152.00 L 848.26 153.86 L 848.91 155.47 L 849.97 156.87 L 851.34 157.97 L 852.92 158.68 L 854.76 159.00 L 855.00 159.00 L 858.00 159.00 Z" fill="url(#linearGradient-1)" fill-opacity="0.1" fill-rule="nonzero" group-id="2,13" id="形状结合" node-id="112" stroke="none" target-height="46" target-width="124" target-x="770" target-y="129"></path></g><path d="M 514.52 712.00 L 547.37 712.23 L 579.21 712.89 L 610.06 713.95 L 640.94 715.46 L 670.45 717.33 L 698.63 719.55 L 726.81 722.21 L 753.27 725.16 L 778.08 728.37 L 802.87 732.07 L 825.57 735.96 L 846.30 740.01 L 859.80 740.35 L 872.74 741.09 L 885.14 742.23 L 897.51 743.80 L 909.11 745.69 L 919.97 747.90 L 930.76 750.55 L 940.56 753.43 L 949.44 756.51 L 958.16 760.10 L 965.70 763.79 L 972.17 767.57 L 976.89 770.83 L 980.85 774.09 L 984.13 777.33 L 986.82 780.57 L 989.12 784.18 L 990.72 787.76 L 991.67 791.35 L 992.00 795.00 L 991.69 798.54 L 990.79 802.03 L 989.29 805.52 L 987.11 809.02 L 984.58 812.18 L 981.48 815.34 L 977.74 818.52 L 973.29 821.71 L 967.16 825.42 L 960.02 829.05 L 951.76 832.59 L 943.34 835.66 L 934.04 838.54 L 923.79 841.22 L 913.46 843.47 L 902.42 845.45 L 890.61 847.13 L 877.57 850.71 L 863.22 854.25 L 847.45 857.75 L 847.86 860.86 L 848.00 864.00 L 847.72 868.37 L 846.93 872.68 L 845.63 876.97 L 843.78 881.25 L 841.34 885.55 L 838.62 889.49 L 835.40 893.43 L 831.65 897.38 L 827.33 901.35 L 822.39 905.34 L 816.17 909.76 L 809.18 914.15 L 801.36 918.50 L 792.64 922.79 L 783.98 926.61 L 774.61 930.31 L 764.51 933.89 L 753.61 937.35 L 742.85 940.40 L 731.48 943.27 L 719.48 945.96 L 706.82 948.45 L 690.03 951.24 L 672.36 953.60 L 653.78 955.52 L 635.17 956.87 L 615.92 957.71 L 596.00 958.00 L 580.31 957.82 L 565.05 957.30 L 550.19 956.45 L 535.72 955.29 L 521.12 953.78 L 507.09 951.98 L 493.63 949.92 L 480.69 947.60 L 467.61 944.90 L 455.27 941.99 L 443.62 938.87 L 432.64 935.58 L 421.53 931.83 L 411.30 927.95 L 401.91 923.95 L 393.29 919.85 L 384.63 915.21 L 376.98 910.52 L 370.25 905.81 L 364.36 901.08 L 359.76 896.80 L 355.83 892.55 L 352.52 888.32 L 349.79 884.11 L 347.59 879.89 L 319.63 877.55 L 293.22 874.92 L 268.31 872.02 L 243.41 868.68 L 220.39 865.13 L 199.15 861.41 L 177.96 857.17 L 158.97 852.84 L 142.02 848.43 L 129.15 844.64 L 117.74 840.88 L 107.67 837.15 L 98.84 833.46 L 91.44 829.95 L 85.12 826.54 L 79.76 823.22 L 75.26 819.99 L 71.53 816.86 L 68.41 813.69 L 66.00 810.64 L 64.21 807.66 L 62.98 804.75 L 62.26 801.88 L 62.00 799.00 L 62.25 796.17 L 62.95 793.34 L 64.14 790.48 L 65.86 787.57 L 68.18 784.57 L 71.18 781.47 L 74.78 778.38 L 79.12 775.20 L 84.30 771.94 L 90.39 768.58 L 97.53 765.14 L 106.05 761.50 L 115.77 757.82 L 126.79 754.10 L 139.22 750.36 L 155.59 745.99 L 173.95 741.69 L 194.45 737.48 L 215.00 733.77 L 237.29 730.22 L 261.41 726.86 L 285.55 723.93 L 311.15 721.25 L 338.28 718.84 L 365.40 716.83 L 393.72 715.13 L 423.25 713.77 L 452.77 712.80 L 483.18 712.21 L 514.52 712.00 Z" fill="url(#linearGradient-2)" fill-rule="nonzero" group-id="2" id="形状结合" node-id="113" stroke="none" target-height="246" target-width="930" target-x="62" target-y="712"></path><path d="M 686.61 226.65 L 686.61 226.55 L 685.01 222.93 L 683.00 219.68 L 680.58 216.79 L 677.80 214.22 L 674.75 212.00 L 671.42 210.13 L 667.89 208.62 L 664.26 207.48 L 660.49 206.70 L 656.66 206.29 L 652.90 206.27 L 649.17 206.62 L 652.02 205.05 L 655.10 203.70 L 658.44 202.57 L 661.87 201.75 L 665.32 201.25 L 668.81 201.07 L 672.29 201.26 L 675.58 201.84 L 678.72 202.80 L 681.66 204.21 L 684.28 206.07 L 686.61 208.44 L 686.61 208.53 L 688.93 206.19 L 691.55 204.33 L 694.50 202.93 L 697.65 201.97 L 700.95 201.39 L 704.43 201.20 L 707.93 201.37 L 711.38 201.86 L 714.81 202.68 L 718.15 203.79 L 721.22 205.14 L 724.04 206.71 L 720.32 206.38 L 716.56 206.43 L 712.73 206.85 L 708.97 207.63 L 705.33 208.78 L 701.81 210.29 L 698.47 212.16 L 695.42 214.37 L 692.64 216.93 L 690.22 219.81 L 688.21 223.04 L 686.61 226.64 L 686.61 226.65 Z" fill="url(#linearGradient-3)" fill-rule="nonzero" group-id="2,14" id="路径" node-id="115" stroke="none" target-height="25.579987" target-width="74.869995" target-x="649.17" target-y="201.07"></path><path d="M 770.03 214.11 L 770.03 214.04 L 768.91 211.52 L 767.52 209.27 L 765.87 207.27 L 763.93 205.50 L 761.04 203.50 L 757.92 201.95 L 754.53 200.83 L 751.02 200.16 L 747.55 199.97 L 744.09 200.23 L 747.10 198.65 L 750.51 197.42 L 754.08 196.65 L 757.70 196.39 L 760.11 196.51 L 762.39 196.91 L 764.57 197.58 L 766.61 198.56 L 768.42 199.85 L 770.03 201.49 L 770.03 201.55 L 771.65 199.93 L 773.47 198.64 L 775.51 197.67 L 777.69 197.00 L 779.98 196.60 L 782.39 196.47 L 786.01 196.74 L 789.58 197.50 L 792.98 198.72 L 795.98 200.29 L 792.52 200.05 L 789.05 200.26 L 785.54 200.93 L 782.15 202.06 L 779.03 203.61 L 776.14 205.60 L 773.62 208.01 L 771.59 210.83 L 770.03 214.11 L 770.03 214.11 Z" fill="url(#linearGradient-4)" fill-rule="nonzero" group-id="2,14" id="路径" node-id="116" stroke="none" target-height="17.720001" target-width="51.889954" target-x="744.09" target-y="196.39"></path><path d="M 735.24 179.63 L 735.24 179.57 L 734.12 177.04 L 732.73 174.80 L 731.07 172.79 L 729.14 171.02 L 726.25 169.02 L 723.13 167.47 L 719.74 166.35 L 716.23 165.68 L 712.76 165.49 L 709.29 165.75 L 712.31 164.17 L 715.72 162.95 L 719.29 162.18 L 722.91 161.91 L 725.32 162.03 L 727.60 162.43 L 729.78 163.10 L 731.81 164.08 L 733.63 165.37 L 735.24 167.01 L 735.24 167.07 L 736.86 165.45 L 738.67 164.16 L 740.72 163.19 L 742.90 162.53 L 745.18 162.13 L 747.60 161.99 L 751.22 162.26 L 754.79 163.02 L 758.19 164.24 L 761.19 165.82 L 757.73 165.57 L 754.26 165.78 L 750.75 166.45 L 747.36 167.58 L 744.23 169.13 L 741.35 171.12 L 738.83 173.53 L 736.80 176.35 L 735.24 179.63 L 735.24 179.63 Z" fill="url(#linearGradient-4)" fill-rule="nonzero" group-id="2,14" id="路径" node-id="117" stroke="none" target-height="17.720001" target-width="51.900024" target-x="709.29" target-y="161.91"></path><path d="M 840.72 220.07 L 840.72 220.03 L 839.64 217.74 L 838.24 215.78 L 836.49 214.10 L 834.49 212.72 L 832.33 211.64 L 829.98 210.86 L 827.54 210.40 L 825.13 210.27 L 822.74 210.45 L 825.58 209.05 L 828.83 208.11 L 831.09 207.81 L 833.28 207.83 L 835.42 208.14 L 837.44 208.81 L 839.19 209.87 L 840.72 211.32 L 840.72 211.36 L 842.25 209.92 L 844.01 208.88 L 846.04 208.21 L 848.18 207.89 L 850.37 207.87 L 852.64 208.17 L 855.89 209.09 L 858.71 210.49 L 856.31 210.32 L 853.91 210.47 L 851.47 210.93 L 849.12 211.71 L 846.95 212.79 L 844.95 214.17 L 843.21 215.84 L 841.80 217.80 L 840.72 220.07 Z" fill="url(#linearGradient-5)" fill-rule="nonzero" group-id="2,14" id="路径" node-id="118" stroke="none" target-height="12.26001" target-width="35.97003" target-x="822.74" target-y="207.81"></path></g><g node-id="369"><path d="M 344.64 778.06 L 344.64 696.18 L 371.86 696.18 L 371.86 653.95 L 344.64 653.95 L 344.64 450.95 L 299.84 450.95 L 299.84 653.95 L 237.25 653.95 L 233.49 653.70 L 230.26 652.98 L 227.46 651.85 L 225.03 650.30 L 222.69 648.07 L 220.96 645.77 L 219.76 643.40 L 219.05 640.93 L 218.81 638.30 L 219.01 635.29 L 219.88 628.23 L 219.88 628.23 L 246.89 450.95 L 202.52 450.95 L 172.51 643.44 L 172.03 647.74 L 171.86 652.02 L 172.12 657.83 L 172.85 662.96 L 174.00 667.47 L 175.53 671.45 L 177.44 674.96 L 180.73 679.64 L 184.18 683.64 L 187.78 687.01 L 191.55 689.82 L 195.50 692.09 L 199.66 693.86 L 204.04 695.13 L 208.70 695.91 L 213.67 696.18 L 213.67 696.18 L 299.84 696.18 L 299.84 778.06 L 344.64 778.06 Z" fill="url(#linearGradient-6)" fill-rule="nonzero" group-id="3" id="4" node-id="120" stroke="none" target-height="327.11" target-width="199.99998" target-x="171.86" target-y="450.95"></path><path d="M 667.86 711.54 L 710.77 711.54 L 712.22 715.30 L 713.94 718.41 L 715.92 720.94 L 718.17 722.98 L 720.70 724.57 L 723.56 725.73 L 726.80 726.45 L 730.49 726.70 L 801.13 726.70 L 806.31 726.44 L 810.51 725.70 L 813.89 724.59 L 816.59 723.14 L 818.72 721.39 L 820.36 719.32 L 821.56 716.90 L 822.31 714.05 L 822.58 710.67 L 822.58 638.73 L 822.29 634.50 L 821.49 630.97 L 820.24 628.04 L 818.56 625.61 L 816.44 623.60 L 813.83 621.97 L 810.63 620.74 L 806.73 619.95 L 801.99 619.66 L 710.55 619.66 L 710.55 576.98 L 799.61 576.98 L 805.16 576.70 L 809.64 575.94 L 813.24 574.79 L 816.09 573.31 L 818.34 571.52 L 820.06 569.42 L 821.30 566.97 L 822.08 564.11 L 822.36 560.72 L 822.36 502.87 L 822.11 498.51 L 821.41 494.83 L 820.31 491.73 L 818.86 489.13 L 817.05 486.94 L 814.87 485.14 L 812.26 483.68 L 809.17 482.59 L 805.49 481.89 L 801.13 481.63 L 731.79 481.63 L 728.08 481.92 L 724.84 482.73 L 721.99 484.04 L 719.47 485.85 L 717.25 488.20 L 715.29 491.17 L 713.63 494.86 L 712.29 499.40 L 668.95 499.40 L 668.62 494.58 L 668.51 490.74 L 668.79 485.63 L 669.60 480.69 L 670.94 475.89 L 672.83 471.19 L 675.29 466.57 L 678.35 462.01 L 682.07 457.50 L 686.50 453.03 L 690.34 449.81 L 694.46 447.01 L 698.86 444.62 L 703.59 442.63 L 708.67 441.06 L 714.13 439.91 L 720.02 439.19 L 726.37 438.95 L 807.63 438.95 L 815.23 439.22 L 822.15 440.02 L 828.45 441.30 L 834.19 443.03 L 839.42 445.18 L 844.18 447.74 L 848.53 450.72 L 852.48 454.12 L 856.00 457.90 L 859.04 461.94 L 861.61 466.24 L 863.74 470.82 L 865.41 475.72 L 866.64 480.97 L 867.39 486.61 L 867.65 492.69 L 867.65 566.79 L 867.40 571.60 L 866.66 576.52 L 865.40 581.57 L 863.58 586.78 L 861.17 592.18 L 858.11 597.78 L 861.38 603.78 L 863.88 609.25 L 865.71 614.24 L 866.94 618.80 L 867.64 622.97 L 867.86 626.81 L 867.86 715.87 L 867.62 721.65 L 866.89 727.03 L 865.70 732.06 L 864.08 736.76 L 862.02 741.17 L 859.52 745.33 L 856.57 749.24 L 853.13 752.92 L 848.55 756.99 L 844.00 760.41 L 839.46 763.22 L 834.91 765.47 L 830.34 767.20 L 825.73 768.42 L 821.06 769.15 L 816.29 769.39 L 729.40 769.39 L 722.27 769.13 L 715.72 768.37 L 709.70 767.15 L 704.16 765.50 L 699.05 763.43 L 694.35 760.95 L 690.01 758.06 L 686.01 754.76 L 682.33 751.01 L 678.95 746.80 L 675.88 742.09 L 673.88 738.35 L 672.11 734.14 L 670.60 729.41 L 669.37 724.11 L 668.45 718.17 L 667.86 711.54 Z" fill="url(#linearGradient-7)" fill-rule="nonzero" group-id="3" id="3" node-id="121" stroke="none" target-height="330.44" target-width="200" target-x="667.86" target-y="438.95"></path><g node-id="381"><path d="M 614.85 562.00 L 503.15 562.00 L 500.27 562.24 L 498.01 562.89 L 496.25 563.89 L 494.89 565.23 L 493.89 566.96 L 493.24 569.18 L 493.00 572.00 L 493.24 574.82 L 493.89 577.04 L 494.89 578.77 L 496.25 580.11 L 498.01 581.11 L 500.27 581.76 L 503.15 582.00 L 614.85 582.00 L 617.73 581.76 L 619.99 581.11 L 621.75 580.11 L 623.11 578.77 L 624.11 577.04 L 624.76 574.82 L 625.00 572.00 L 624.76 569.18 L 624.11 566.96 L 623.11 565.23 L 621.75 563.88 L 619.99 562.89 L 617.73 562.24 L 614.85 562.00 L 614.85 562.00 Z" fill="#ffffff" fill-rule="nonzero" group-id="3,15" id="路径" node-id="123" stroke="none" target-height="20" target-width="132" target-x="493" target-y="562"></path><path d="M 614.80 613.00 L 533.20 613.00 L 530.30 613.24 L 528.03 613.89 L 526.26 614.89 L 524.90 616.23 L 523.89 617.97 L 523.24 620.18 L 523.00 623.00 L 523.24 625.82 L 523.89 628.03 L 524.90 629.77 L 526.26 631.11 L 528.03 632.11 L 530.30 632.76 L 533.20 633.00 L 614.80 633.00 L 617.70 632.76 L 619.97 632.11 L 621.74 631.11 L 623.10 629.77 L 624.11 628.03 L 624.76 625.82 L 625.00 623.00 L 624.76 620.18 L 624.11 617.97 L 623.10 616.23 L 621.74 614.89 L 619.97 613.89 L 617.70 613.24 L 614.80 613.00 L 614.80 613.00 Z" fill="#ffffff" fill-rule="nonzero" group-id="3,15" id="路径" node-id="124" stroke="none" target-height="20" target-width="102" target-x="523" target-y="613"></path><path d="M 383.00 602.50 L 383.23 610.47 L 383.86 618.25 L 384.89 625.87 L 386.31 633.33 L 388.13 640.65 L 390.95 649.69 L 394.30 658.40 L 398.18 666.81 L 402.59 674.93 L 407.53 682.76 L 412.91 690.20 L 418.74 697.27 L 425.03 703.97 L 431.73 710.26 L 438.80 716.09 L 446.24 721.47 L 454.07 726.41 L 462.19 730.82 L 470.60 734.70 L 479.31 738.05 L 488.35 740.87 L 495.67 742.69 L 503.13 744.11 L 510.75 745.14 L 518.53 745.77 L 526.50 746.00 L 534.47 745.77 L 542.25 745.14 L 549.87 744.11 L 557.33 742.69 L 564.65 740.87 L 573.69 738.05 L 582.40 734.70 L 590.81 730.82 L 598.93 726.41 L 606.76 721.47 L 614.20 716.09 L 621.27 710.26 L 627.97 703.97 L 634.26 697.27 L 640.09 690.20 L 645.47 682.76 L 650.41 674.93 L 654.82 666.81 L 658.70 658.40 L 662.05 649.69 L 664.87 640.65 L 666.69 633.33 L 668.11 625.87 L 669.14 618.25 L 669.77 610.47 L 670.00 602.50 L 669.77 594.53 L 669.14 586.75 L 668.11 579.13 L 666.69 571.67 L 664.87 564.35 L 662.05 555.31 L 658.70 546.60 L 654.82 538.19 L 650.41 530.07 L 645.47 522.24 L 640.09 514.80 L 634.26 507.73 L 627.97 501.03 L 621.27 494.74 L 614.20 488.91 L 606.76 483.53 L 598.93 478.59 L 590.81 474.18 L 582.40 470.30 L 573.69 466.95 L 564.65 464.13 L 557.33 462.31 L 549.87 460.89 L 542.25 459.86 L 534.47 459.23 L 526.50 459.00 L 518.53 459.23 L 510.75 459.86 L 503.13 460.89 L 495.67 462.31 L 488.35 464.13 L 479.31 466.95 L 470.60 470.30 L 462.19 474.18 L 454.07 478.59 L 446.24 483.53 L 438.80 488.91 L 431.73 494.74 L 425.03 501.03 L 418.74 507.73 L 412.91 514.80 L 407.53 522.24 L 402.59 530.07 L 398.18 538.19 L 394.30 546.60 L 390.95 555.31 L 388.13 564.35 L 386.31 571.67 L 384.89 579.13 L 383.86 586.75 L 383.23 594.53 L 383.00 602.50 Z" fill="url(#linearGradient-8)" fill-rule="nonzero" group-id="3,15" id="椭圆形" node-id="125" stroke="none" target-height="287" target-width="287" target-x="383" target-y="459"></path><g node-id="390"><path d="M 422.63 552.78 L 423.49 554.66 L 424.80 556.33 L 426.62 557.81 L 428.70 558.96 L 431.18 559.90 L 434.13 560.61 L 437.14 561.01 L 440.46 561.15 L 444.11 560.99 L 447.74 560.56 L 451.53 559.82 L 455.51 558.76 L 459.39 557.41 L 462.95 555.89 L 466.19 554.21 L 469.30 552.29 L 471.97 550.32 L 474.24 548.30 L 476.28 546.05 L 477.81 543.88 L 478.89 541.76 L 479.56 539.52 L 479.71 537.41 L 479.36 535.36 L 478.50 533.48 L 477.19 531.81 L 475.37 530.33 L 473.30 529.18 L 470.81 528.24 L 467.86 527.53 L 464.85 527.13 L 461.53 526.99 L 457.88 527.15 L 454.25 527.58 L 450.46 528.32 L 446.49 529.38 L 442.60 530.73 L 439.05 532.25 L 435.80 533.93 L 432.69 535.85 L 430.02 537.82 L 427.75 539.84 L 425.71 542.09 L 424.18 544.26 L 423.11 546.38 L 422.43 548.62 L 422.29 550.73 L 422.63 552.78 Z" fill="#b6dcf2" fill-rule="nonzero" group-id="3,15,24" id="椭圆形" node-id="126" stroke="none" target-height="34.160034" target-width="57.419983" target-x="422.29" target-y="526.99"></path></g><path d="M 523.00 607.50 L 523.30 611.83 L 524.13 615.90 L 525.48 619.76 L 527.31 623.42 L 529.56 626.75 L 532.23 629.77 L 535.25 632.44 L 538.58 634.69 L 542.24 636.52 L 546.10 637.87 L 550.17 638.70 L 554.50 639.00 L 558.83 638.70 L 562.90 637.87 L 566.76 636.52 L 570.42 634.69 L 573.75 632.44 L 576.77 629.77 L 579.44 626.75 L 581.69 623.42 L 583.52 619.76 L 584.87 615.90 L 585.70 611.83 L 586.00 607.50 L 585.70 603.17 L 584.87 599.10 L 583.52 595.24 L 581.69 591.58 L 579.44 588.25 L 576.77 585.23 L 573.75 582.56 L 570.42 580.31 L 566.76 578.48 L 562.90 577.13 L 558.83 576.30 L 554.50 576.00 L 550.17 576.30 L 546.10 577.13 L 542.24 578.48 L 538.58 580.31 L 535.25 582.56 L 532.23 585.23 L 529.56 588.25 L 527.31 591.58 L 525.48 595.24 L 524.13 599.10 L 523.30 603.17 L 523.00 607.50 Z" fill="#47b0f1" fill-rule="nonzero" group-id="3,15" id="椭圆形" node-id="127" stroke="none" target-height="63" target-width="63" target-x="523" target-y="576"></path><path d="M 610.12 528.81 L 609.32 529.83 L 608.80 531.03 L 608.56 532.44 L 608.72 534.67 L 609.50 537.17 L 610.82 539.58 L 612.75 541.98 L 615.06 544.01 L 617.41 545.43 L 619.87 546.32 L 622.09 546.57 L 623.52 546.40 L 624.74 545.93 L 625.79 545.17 L 626.59 544.15 L 627.11 542.95 L 627.35 541.54 L 627.19 539.31 L 626.41 536.81 L 625.09 534.40 L 623.16 532.00 L 620.85 529.97 L 618.50 528.55 L 616.03 527.66 L 613.82 527.41 L 612.39 527.59 L 611.17 528.05 L 610.12 528.81 Z" fill="#b6dcf2" fill-rule="nonzero" group-id="3,15,25" id="椭圆形" node-id="128" stroke="none" target-height="19.160034" target-width="18.789978" target-x="608.56" target-y="527.41"></path><path d="M 405.00 637.50 L 405.30 640.69 L 406.10 643.62 L 407.39 646.33 L 409.13 648.79 L 411.21 650.87 L 413.67 652.61 L 416.38 653.90 L 419.31 654.70 L 422.50 655.00 L 425.69 654.70 L 428.62 653.90 L 431.33 652.61 L 433.79 650.87 L 435.87 648.79 L 437.61 646.33 L 438.90 643.62 L 439.70 640.69 L 440.00 637.50 L 439.70 634.31 L 438.90 631.38 L 437.61 628.67 L 435.87 626.21 L 433.79 624.13 L 431.33 622.39 L 428.62 621.10 L 425.69 620.30 L 422.50 620.00 L 419.31 620.30 L 416.38 621.10 L 413.67 622.39 L 411.21 624.13 L 409.13 626.21 L 407.39 628.67 L 406.10 631.38 L 405.30 634.31 L 405.00 637.50 Z" fill="#b6dcf2" fill-rule="nonzero" group-id="3,15" id="椭圆形" node-id="129" stroke="none" target-height="35" target-width="35" target-x="405" target-y="620"></path><path d="M 520.00 679.00 L 520.19 681.01 L 520.69 682.85 L 521.50 684.55 L 522.60 686.10 L 523.90 687.40 L 525.45 688.50 L 527.15 689.31 L 528.99 689.81 L 531.00 690.00 L 533.01 689.81 L 534.85 689.31 L 536.55 688.50 L 538.10 687.40 L 539.40 686.10 L 540.50 684.55 L 541.31 682.85 L 541.81 681.01 L 542.00 679.00 L 541.81 676.99 L 541.31 675.15 L 540.50 673.45 L 539.40 671.90 L 538.10 670.60 L 536.55 669.50 L 534.85 668.69 L 533.01 668.19 L 531.00 668.00 L 528.99 668.19 L 527.15 668.69 L 525.45 669.50 L 523.90 670.60 L 522.60 671.90 L 521.50 673.45 L 520.69 675.15 L 520.19 676.99 L 520.00 679.00 Z" fill="#b6dcf2" fill-rule="nonzero" group-id="3,15" id="椭圆形" node-id="130" stroke="none" target-height="22" target-width="22" target-x="520" target-y="668"></path></g></g><g node-id="370"><path d="M 428.08 793.50 L 434.26 795.66 L 437.99 797.38 L 440.12 798.71 L 441.36 799.80 L 441.98 800.72 L 442.26 801.74 L 442.14 802.69 L 441.62 803.64 L 440.36 804.93 L 438.47 806.29 L 434.10 808.79 L 430.82 810.85 L 428.63 812.67 L 427.28 814.28 L 426.33 816.11 L 425.96 817.81 L 426.09 819.45 L 426.63 821.05 L 427.51 822.68 L 428.77 824.34 L 430.97 826.67 L 433.52 829.00 L 435.44 830.37 L 438.73 832.11 L 443.91 834.30 L 449.15 836.16 L 455.68 838.14 L 463.70 840.25 L 471.76 842.06 L 480.90 843.78 L 491.23 845.38 L 501.56 846.64 L 512.75 847.59 L 524.83 848.23 L 536.89 848.43 L 549.55 848.14 L 562.83 847.33 L 572.71 846.37 L 582.79 845.04 L 593.07 843.33 L 603.57 841.22 L 613.44 838.83 L 621.92 836.42 L 629.15 834.02 L 635.27 831.64 L 641.58 828.75 L 646.78 825.95 L 650.99 823.24 L 654.35 820.63 L 657.59 817.53 L 660.06 814.58 L 661.85 811.76 L 663.06 809.04 L 663.88 806.08 L 664.23 803.22 L 664.16 800.44 L 663.65 797.71 L 662.44 794.16 L 660.69 790.77 L 658.38 787.49 L 655.69 784.48 L 652.73 781.73 L 649.48 779.23 L 644.83 776.39 L 637.17 772.63 L 628.43 768.99 L 617.09 764.91 L 604.87 761.13 L 590.48 757.33 L 580.59 755.10 L 569.96 753.03 L 558.53 751.15 L 547.08 749.63 L 535.07 748.45 L 522.48 747.62 L 509.88 747.25 L 496.90 747.37 L 483.54 748.00 L 471.52 748.98 L 461.21 750.09 L 452.43 751.30 L 443.68 752.80 L 436.47 754.31 L 430.60 755.82 L 424.79 757.63 L 420.35 759.33 L 417.05 760.91 L 413.90 762.83 L 411.90 764.49 L 410.75 765.93 L 409.16 768.63 L 407.98 771.17 L 407.16 773.59 L 406.75 776.05 L 406.90 778.41 L 407.60 780.74 L 408.83 782.85 L 410.87 785.05 L 413.95 787.39 L 417.32 789.30 L 421.94 791.34 L 428.08 793.50 Z" fill="url(#linearGradient-9)" fill-opacity="0.4" fill-rule="nonzero" group-id="4" id="路径" node-id="131" stroke="none" target-height="101.17999" target-width="257.47998" target-x="406.75" target-y="747.25"></path></g><g node-id="371"><path d="M 846.91 766.63 L 845.80 763.00 L 844.19 759.81 L 842.07 757.01 L 839.42 754.54 L 836.16 752.41 L 832.20 750.60 L 827.74 748.99 L 824.56 747.49 L 822.70 746.28 L 821.67 745.24 L 821.22 744.34 L 821.25 743.46 L 821.93 742.54 L 823.64 741.50 L 827.18 741.10 L 829.28 741.04 L 831.67 741.31 L 834.06 742.07 L 836.71 743.59 L 838.33 744.94 L 840.07 746.82 L 841.92 749.37 L 843.51 752.08 L 845.17 755.61 L 846.91 760.11 L 847.27 762.32 L 847.27 764.48 L 846.91 766.63 Z" fill="url(#linearGradient-10)" fill-rule="nonzero" group-id="5" id="路径-43" node-id="133" stroke="none" target-height="25.590027" target-width="26.050049" target-x="821.22" target-y="741.04"></path><path d="M 847.32 767.84 L 844.48 758.03 L 841.64 749.68 L 838.83 742.63 L 836.06 736.73 L 833.33 731.86 L 830.66 727.88 L 829.30 725.84 L 828.32 723.77 L 827.69 721.65 L 827.38 719.46 L 827.42 717.50 L 827.76 715.73 L 828.45 714.10 L 829.41 712.91 L 830.66 712.08 L 832.02 711.96 L 833.66 712.02 L 835.34 712.42 L 837.27 713.45 L 838.45 714.41 L 839.76 715.86 L 841.22 717.94 L 843.11 721.52 L 845.23 727.03 L 847.08 733.38 L 849.04 742.29 L 849.56 745.65 L 850.13 751.53 L 850.25 754.96 L 850.16 758.54 L 849.77 762.07 L 849.04 765.27 L 848.31 766.78 L 847.32 767.84 Z" fill="url(#linearGradient-11)" fill-rule="nonzero" group-id="5" id="路径-44" node-id="134" stroke="none" target-height="55.880005" target-width="22.869995" target-x="827.38" target-y="711.96"></path><path d="M 848.45 763.72 L 849.40 759.03 L 849.88 753.61 L 849.80 747.34 L 849.08 740.10 L 847.60 731.77 L 844.89 723.92 L 843.60 719.95 L 842.58 716.24 L 841.91 712.63 L 841.80 709.61 L 842.08 707.72 L 842.71 706.18 L 843.67 704.91 L 844.95 703.98 L 846.77 703.32 L 849.32 703.00 L 851.30 703.51 L 853.38 704.73 L 854.58 705.88 L 855.76 707.56 L 856.93 709.94 L 857.76 712.44 L 858.47 715.81 L 859.01 720.24 L 859.22 724.69 L 859.13 730.30 L 858.69 737.29 L 857.83 742.72 L 856.87 747.27 L 855.74 751.61 L 854.54 755.61 L 851.90 763.72 L 850.93 764.06 L 849.81 764.08 L 848.45 763.72 Z" fill="url(#linearGradient-12)" fill-rule="nonzero" group-id="5" id="路径-45" node-id="135" stroke="none" target-height="61.080017" target-width="17.419983" target-x="841.8" target-y="703"></path><path d="M 851.03 766.89 L 850.94 758.42 L 851.32 750.86 L 852.12 744.13 L 853.29 738.15 L 854.79 732.85 L 856.61 728.17 L 858.70 724.03 L 861.07 720.39 L 863.70 717.19 L 864.89 716.01 L 866.66 714.93 L 868.65 714.21 L 870.70 714.00 L 872.02 714.20 L 873.19 714.75 L 874.26 715.68 L 875.01 716.87 L 875.54 718.65 L 875.78 721.22 L 875.20 723.68 L 874.06 727.45 L 872.41 731.58 L 869.56 737.10 L 867.30 740.80 L 864.25 745.12 L 860.28 750.15 L 858.37 752.97 L 856.72 755.98 L 855.34 759.01 L 854.37 761.57 L 853.69 763.91 L 853.51 765.07 L 853.24 766.05 L 852.49 766.65 L 851.03 766.89 Z" fill="url(#linearGradient-13)" fill-rule="nonzero" group-id="5" id="路径-46" node-id="136" stroke="none" target-height="52.890015" target-width="24.840027" target-x="850.94" target-y="714"></path><path d="M 803.00 769.94 L 810.89 768.30 L 815.31 767.07 L 817.46 766.18 L 818.29 765.55 L 819.14 764.77 L 821.21 763.40 L 823.67 762.12 L 826.81 760.92 L 830.15 760.14 L 833.62 759.99 L 835.88 760.34 L 838.04 761.17 L 840.14 762.53 L 841.23 761.53 L 842.88 760.68 L 844.75 760.24 L 846.77 760.31 L 848.06 760.68 L 849.28 761.40 L 850.46 762.53 L 851.31 760.34 L 852.74 758.36 L 854.57 756.66 L 856.67 755.25 L 858.91 754.14 L 861.05 753.41 L 863.14 753.03 L 864.72 753.06 L 866.58 752.99 L 869.29 753.15 L 872.11 753.73 L 875.14 754.97 L 876.99 756.16 L 878.73 757.83 L 880.35 760.05 L 881.55 762.51 L 882.46 765.75 L 883.00 769.94 L 870.47 769.99 L 803.00 769.94 Z" fill="url(#linearGradient-14)" fill-rule="nonzero" group-id="5" id="路径-47" node-id="137" stroke="none" target-height="17" target-width="80" target-x="803" target-y="752.99"></path></g><g node-id="372"><g node-id="382"><path d="M 610.00 489.56 L 609.73 491.51 L 608.98 493.45 L 607.66 495.43 L 605.67 497.47 L 602.67 499.73 L 598.71 502.02 L 593.60 504.33 L 588.35 506.23 L 582.25 508.04 L 575.20 509.74 L 568.11 511.12 L 560.35 512.31 L 551.87 513.29 L 543.38 513.98 L 534.43 514.41 L 525.00 514.56 L 515.57 514.41 L 506.62 513.98 L 498.13 513.29 L 489.65 512.31 L 481.89 511.12 L 474.80 509.74 L 467.75 508.04 L 461.65 506.23 L 456.40 504.33 L 451.29 502.02 L 447.33 499.73 L 444.33 497.47 L 442.34 495.43 L 441.02 493.45 L 440.27 491.51 L 440.00 489.56 L 440.27 487.61 L 441.02 485.67 L 442.34 483.70 L 444.33 481.66 L 447.33 479.40 L 451.29 477.10 L 456.40 474.80 L 461.65 472.90 L 467.75 471.09 L 474.80 469.39 L 481.89 468.01 L 489.65 466.82 L 498.13 465.84 L 506.62 465.15 L 515.57 464.72 L 525.00 464.56 L 534.43 464.72 L 543.38 465.15 L 551.87 465.84 L 560.35 466.82 L 568.11 468.01 L 575.20 469.39 L 582.25 471.09 L 588.35 472.90 L 593.60 474.80 L 598.71 477.10 L 602.67 479.40 L 605.67 481.66 L 607.66 483.70 L 608.98 485.67 L 609.73 487.61 L 610.00 489.56 Z" fill="#b6dcf2" fill-opacity="0.2" fill-rule="evenodd" group-id="6,16" id="椭圆形" node-id="139" stroke="none" target-height="50" target-width="170" target-x="440" target-y="464.56"></path></g><path d="M 525.74 289.99 L 528.51 290.44 L 531.15 291.21 L 533.68 292.32 L 536.05 293.74 L 538.21 295.44 L 540.19 297.45 L 541.78 299.48 L 543.07 301.71 L 543.12 301.82 L 542.97 301.05 L 543.71 301.48 L 544.36 302.26 L 544.89 303.52 L 545.35 305.68 L 545.55 308.47 L 545.55 308.74 L 546.38 308.69 L 547.14 308.95 L 547.87 309.53 L 548.73 310.76 L 549.37 312.45 L 549.64 314.29 L 549.51 316.19 L 548.90 317.97 L 547.75 319.47 L 546.73 320.21 L 545.37 320.72 L 543.58 320.99 L 542.49 323.17 L 538.71 328.70 L 536.49 331.38 L 533.96 333.64 L 533.99 343.23 L 515.04 343.50 L 515.12 332.23 L 513.00 330.16 L 511.21 327.66 L 509.32 324.41 L 507.79 320.99 L 508.17 320.97 L 506.00 320.89 L 504.39 320.47 L 503.19 319.78 L 502.20 318.79 L 501.51 317.67 L 501.10 316.37 L 500.93 314.33 L 501.23 312.35 L 501.94 310.56 L 502.91 309.33 L 503.72 308.81 L 504.55 308.68 L 505.48 308.92 L 505.50 307.38 L 506.06 304.25 L 507.09 301.27 L 508.54 298.48 L 510.42 295.92 L 512.51 293.88 L 514.81 292.26 L 517.35 291.04 L 520.06 290.23 L 522.84 289.88 L 525.74 289.99 Z M 543.54 303.99 L 543.55 304.15 L 543.65 305.27 L 544.00 306.34 L 543.54 303.99 Z M 543.12 301.82 L 543.54 303.99 L 543.54 303.86 L 543.37 302.45 L 543.29 302.17 L 543.12 301.82 Z" fill="#ebb0b0" fill-rule="nonzero" group-id="6" id="形状结合" node-id="140" stroke="none" target-height="53.619995" target-width="48.710022" target-x="500.93" target-y="289.88"></path><path d="M 545.70 310.61 L 546.90 309.22 L 548.02 307.47 L 549.04 305.29 L 550.16 301.81 L 550.86 297.88 L 551.06 293.85 L 550.68 289.86 L 550.08 287.26 L 549.18 284.88 L 547.98 282.69 L 546.45 280.75 L 544.56 279.13 L 542.25 277.84 L 540.99 276.82 L 539.08 276.13 L 536.86 275.78 L 533.99 275.64 L 532.68 275.70 L 531.84 275.86 L 530.56 276.31 L 530.01 276.43 L 529.34 276.41 L 528.62 276.08 L 527.55 275.30 L 526.35 274.40 L 524.69 273.38 L 522.76 272.57 L 520.15 271.99 L 518.88 271.94 L 516.96 272.13 L 512.72 273.07 L 510.56 273.77 L 508.68 274.57 L 507.03 275.52 L 506.06 276.41 L 504.14 278.11 L 501.98 280.63 L 500.04 283.55 L 498.25 287.11 L 496.89 290.98 L 496.01 295.32 L 495.83 298.25 L 496.02 300.79 L 496.52 303.00 L 497.76 306.19 L 499.42 309.20 L 503.25 315.45 L 504.81 314.11 L 506.05 312.41 L 508.03 308.48 L 509.02 306.49 L 510.14 304.70 L 512.90 301.81 L 515.97 299.27 L 519.30 297.10 L 522.88 295.32 L 527.95 294.70 L 531.82 294.59 L 534.22 294.88 L 536.34 295.57 L 538.24 296.67 L 539.88 298.14 L 541.56 300.31 L 543.30 303.35 L 545.70 310.61 Z" fill="#131322" fill-rule="nonzero" group-id="6" id="路径" node-id="141" stroke="none" target-height="43.51001" target-width="55.23001" target-x="495.83" target-y="271.94"></path><path d="M 515.47 335.50 L 518.62 337.64 L 521.97 339.66 L 523.70 340.33 L 525.38 340.59 L 526.67 340.39 L 528.16 339.68 L 531.08 337.54 L 533.65 335.50 L 537.68 335.89 L 542.73 336.79 L 547.99 338.13 L 553.89 340.06 L 559.84 342.47 L 566.08 345.51 L 572.19 349.08 L 578.25 353.32 L 578.15 364.57 L 577.88 373.73 L 577.41 382.27 L 576.82 389.30 L 576.05 395.92 L 575.18 401.62 L 574.15 407.09 L 573.03 412.23 L 570.47 422.70 L 567.60 434.61 L 566.25 437.31 L 562.94 443.23 L 558.53 450.78 L 553.86 458.38 L 549.78 464.43 L 548.04 466.58 L 547.14 467.36 L 542.85 469.31 L 538.84 470.70 L 535.07 471.58 L 531.23 472.11 L 527.33 472.34 L 523.37 472.26 L 517.31 471.79 L 510.49 471.02 L 509.51 470.64 L 507.52 469.41 L 502.74 465.81 L 497.41 461.40 L 492.79 457.39 L 490.15 454.98 L 489.59 454.21 L 488.49 452.27 L 485.88 447.05 L 482.93 440.74 L 480.27 434.72 L 478.50 430.43 L 476.46 424.43 L 474.56 417.45 L 473.90 414.01 L 473.61 411.18 L 473.13 398.89 L 472.61 384.40 L 472.16 369.23 L 471.89 354.89 L 474.40 351.61 L 477.01 348.85 L 479.71 346.59 L 482.63 344.61 L 485.60 342.96 L 488.64 341.63 L 493.33 340.05 L 498.02 338.89 L 507.18 337.23 L 511.55 336.43 L 515.47 335.50 Z" fill="url(#linearGradient-15)" fill-rule="nonzero" group-id="6" id="路径" node-id="142" stroke="none" target-height="136.84" target-width="106.359985" target-x="471.89" target-y="335.5"></path><path d="M 512.01 346.11 L 535.10 346.11 L 536.67 346.43 L 537.93 347.29 L 538.78 348.55 L 539.10 350.11 L 539.10 387.93 L 538.78 389.50 L 537.93 390.76 L 536.67 391.61 L 535.10 391.93 L 512.01 391.93 L 510.44 391.61 L 509.18 390.76 L 508.33 389.50 L 508.01 387.93 L 508.01 350.11 L 508.33 348.55 L 509.18 347.29 L 510.44 346.43 L 512.01 346.11 Z" fill="url(#linearGradient-16)" fill-rule="nonzero" group-id="6" id="矩形" node-id="143" stroke="none" target-height="45.820007" target-width="31.089966" target-x="508.01" target-y="346.11"></path><path d="M 498.43 386.84 L 500.18 382.22 L 502.12 378.28 L 504.23 374.93 L 506.50 372.12 L 508.06 371.31 L 508.79 371.13 L 509.23 371.28 L 509.27 371.72 L 509.01 372.32 L 508.39 373.12 L 510.93 372.53 L 512.72 372.45 L 514.77 372.80 L 516.06 373.34 L 517.35 374.28 L 518.66 375.71 L 519.67 377.36 L 520.58 379.74 L 521.35 383.04 L 520.62 385.00 L 519.43 387.35 L 517.95 389.66 L 516.07 391.99 L 513.90 394.08 L 511.39 395.86 L 509.57 396.79 L 507.61 397.45 L 505.51 397.86 L 503.30 397.49 L 501.57 396.64 L 500.23 395.28 L 499.21 393.34 L 498.58 390.60 L 498.43 386.84 Z" fill="#efba9e" fill-rule="nonzero" group-id="6,17" id="路径-109" node-id="144" stroke="none" target-height="26.72998" target-width="22.919983" target-x="498.43" target-y="371.13"></path><path d="M 468.69 355.33 L 471.43 352.37 L 473.96 350.31 L 476.32 348.98 L 478.54 348.25 L 480.70 348.06 L 482.83 348.37 L 485.01 349.21 L 487.27 350.66 L 489.66 352.85 L 490.72 354.25 L 491.73 356.42 L 492.63 359.62 L 493.49 364.74 L 494.06 371.46 L 494.27 378.61 L 494.21 386.77 L 493.89 395.14 L 493.35 403.90 L 492.62 412.69 L 491.74 421.26 L 490.73 429.64 L 489.66 437.20 L 487.53 439.48 L 485.48 441.19 L 483.50 442.41 L 481.56 443.20 L 478.79 443.78 L 476.16 443.77 L 473.62 443.19 L 471.21 442.13 L 469.01 440.68 L 466.98 438.82 L 465.24 436.66 L 463.84 434.31 L 462.76 431.73 L 460.58 421.09 L 459.14 411.28 L 458.40 402.22 L 458.29 393.86 L 458.76 386.14 L 459.76 379.01 L 461.28 372.41 L 463.28 366.29 L 465.75 360.61 L 468.69 355.33 Z" fill="url(#linearGradient-17)" fill-rule="nonzero" group-id="6" id="路径-2" node-id="145" stroke="none" target-height="95.72" target-width="35.97998" target-x="458.29" target-y="348.06"></path><path d="M 470.72 426.67 L 472.07 421.66 L 473.92 416.73 L 476.30 411.87 L 479.24 407.05 L 482.77 402.26 L 486.93 397.50 L 491.78 392.74 L 497.38 387.99 L 499.21 387.47 L 500.99 387.26 L 502.74 387.36 L 504.43 387.77 L 505.97 388.53 L 507.39 389.64 L 508.54 391.02 L 509.47 392.83 L 510.16 395.16 L 510.34 396.59 L 510.14 399.67 L 509.58 403.16 L 508.54 407.73 L 507.18 412.49 L 505.35 417.76 L 503.16 423.00 L 500.53 428.18 L 497.48 433.07 L 494.06 437.40 L 491.50 439.98 L 488.78 442.12 L 485.91 443.84 L 481.84 444.42 L 478.62 444.39 L 476.08 443.88 L 474.09 442.97 L 472.52 441.68 L 471.32 439.98 L 470.47 437.77 L 470.01 434.94 L 470.05 431.30 L 470.72 426.67 Z" fill="url(#linearGradient-18)" fill-rule="nonzero" group-id="6" id="路径-3" node-id="146" stroke="none" target-height="57.160004" target-width="40.329987" target-x="470.01" target-y="387.26"></path><path d="M 550.12 386.84 L 548.37 382.22 L 546.43 378.28 L 544.32 374.93 L 542.06 372.12 L 540.50 371.31 L 539.76 371.13 L 539.32 371.28 L 539.28 371.72 L 539.55 372.32 L 540.17 373.12 L 537.63 372.53 L 535.84 372.45 L 533.79 372.80 L 532.49 373.34 L 531.20 374.28 L 529.89 375.71 L 528.89 377.36 L 527.97 379.74 L 527.20 383.04 L 527.94 385.00 L 529.12 387.35 L 530.61 389.66 L 532.48 391.99 L 534.66 394.08 L 537.16 395.86 L 538.99 396.79 L 540.94 397.45 L 543.05 397.86 L 545.26 397.49 L 546.98 396.64 L 548.33 395.28 L 549.34 393.34 L 549.98 390.60 L 550.12 386.84 Z" fill="#efba9e" fill-rule="nonzero" group-id="6,18" id="路径-109" node-id="147" stroke="none" target-height="26.72998" target-width="22.919983" target-x="527.2" target-y="371.13"></path><path d="M 579.87 355.33 L 577.13 352.37 L 574.59 350.31 L 572.24 348.98 L 570.01 348.25 L 567.86 348.06 L 565.72 348.37 L 563.55 349.21 L 561.28 350.66 L 558.89 352.85 L 557.83 354.25 L 556.83 356.42 L 555.92 359.62 L 555.07 364.74 L 554.50 371.46 L 554.28 378.61 L 554.35 386.77 L 554.66 395.14 L 555.21 403.90 L 555.94 412.69 L 556.81 421.26 L 557.83 429.64 L 558.89 437.20 L 561.02 439.48 L 563.07 441.19 L 565.06 442.41 L 566.99 443.20 L 569.77 443.78 L 572.39 443.77 L 574.93 443.19 L 577.34 442.13 L 579.55 440.68 L 581.58 438.82 L 583.31 436.66 L 584.71 434.31 L 585.79 431.73 L 587.98 421.09 L 589.41 411.28 L 590.16 402.22 L 590.27 393.86 L 589.80 386.14 L 588.79 379.01 L 587.27 372.41 L 585.27 366.29 L 582.80 360.61 L 579.87 355.33 Z" fill="url(#linearGradient-19)" fill-rule="nonzero" group-id="6,19" id="路径-2" node-id="148" stroke="none" target-height="95.72" target-width="35.98999" target-x="554.28" target-y="348.06"></path><path d="M 577.83 426.67 L 576.49 421.66 L 574.63 416.73 L 572.25 411.87 L 569.32 407.05 L 565.79 402.26 L 561.62 397.50 L 556.77 392.74 L 551.17 387.99 L 549.35 387.47 L 547.57 387.26 L 545.81 387.36 L 544.12 387.77 L 542.58 388.53 L 541.16 389.64 L 540.01 391.02 L 539.09 392.83 L 538.40 395.16 L 538.21 396.59 L 538.42 399.67 L 538.98 403.16 L 540.01 407.73 L 541.37 412.49 L 543.20 417.76 L 545.40 423.00 L 548.02 428.18 L 551.07 433.07 L 554.49 437.40 L 557.06 439.98 L 559.77 442.12 L 562.64 443.84 L 566.72 444.42 L 569.94 444.39 L 572.47 443.88 L 574.46 442.97 L 576.03 441.68 L 577.24 439.98 L 578.09 437.77 L 578.54 434.94 L 578.50 431.30 L 577.83 426.67 Z" fill="url(#linearGradient-20)" fill-rule="nonzero" group-id="6,20" id="路径-3" node-id="149" stroke="none" target-height="57.160004" target-width="40.329956" target-x="538.21" target-y="387.26"></path><path d="M 579.24 440.72 L 581.49 439.96 L 583.83 439.36 L 587.09 438.84 L 590.55 438.71 L 594.29 439.16 L 596.72 439.86 L 599.07 441.01 L 601.36 442.66 L 603.30 444.70 L 605.04 447.47 L 606.57 451.14 L 607.37 454.56 L 607.59 457.41 L 607.33 459.79 L 606.64 462.10 L 605.67 464.06 L 604.44 465.70 L 602.22 467.81 L 599.90 469.34 L 597.53 470.50 L 595.71 471.18 L 593.87 471.68 L 593.87 471.68 L 580.17 474.21 L 574.21 493.21 L 525.76 484.26 L 477.28 493.21 L 471.30 474.19 L 457.75 471.69 L 455.91 471.18 L 454.10 470.51 L 451.73 469.35 L 449.42 467.82 L 447.19 465.72 L 445.96 464.07 L 445.00 462.12 L 444.31 459.81 L 444.05 457.42 L 444.27 454.58 L 445.07 451.16 L 446.60 447.49 L 448.34 444.72 L 450.27 442.69 L 452.56 441.04 L 454.91 439.88 L 457.33 439.18 L 461.07 438.73 L 464.53 438.87 L 467.78 439.39 L 470.12 439.98 L 472.37 440.74 L 525.74 454.99 L 579.24 440.72 Z" fill="url(#linearGradient-21)" fill-rule="nonzero" group-id="6" id="裤子" node-id="150" stroke="none" target-height="54.5" target-width="163.54004" target-x="444.05" target-y="438.71"></path><path d="M 472.66 478.99 L 466.82 479.37 L 461.38 479.37 L 456.37 479.23 L 454.17 479.21 L 453.06 479.20 L 450.51 479.33 L 447.69 479.83 L 446.49 480.32 L 445.76 480.94 L 444.92 482.52 L 444.39 484.37 L 444.12 486.31 L 444.06 488.18 L 444.25 491.27 L 444.44 492.55 L 444.73 493.44 L 445.58 495.37 L 446.21 496.38 L 446.97 497.22 L 447.74 497.67 L 448.61 497.85 L 450.20 497.72 L 450.92 497.53 L 452.29 497.18 L 455.78 496.33 L 460.43 495.28 L 467.68 493.81 L 469.93 493.40 L 476.93 491.50 L 472.66 478.99 Z M 578.83 478.99 L 584.69 479.37 L 590.17 479.37 L 595.20 479.23 L 597.42 479.21 L 598.53 479.20 L 601.10 479.33 L 603.93 479.84 L 605.13 480.33 L 605.87 480.95 L 606.72 482.54 L 607.25 484.39 L 607.52 486.34 L 607.58 488.22 L 607.38 491.33 L 607.20 492.61 L 606.91 493.50 L 606.06 495.44 L 605.42 496.46 L 604.66 497.30 L 603.88 497.76 L 603.01 497.93 L 601.40 497.81 L 600.69 497.61 L 599.30 497.26 L 595.79 496.41 L 591.12 495.36 L 583.83 493.88 L 581.56 493.46 L 574.52 491.56 L 578.83 478.99 Z" fill="#333333" fill-rule="nonzero" group-id="6" id="脚" node-id="151" stroke="none" target-height="18.940002" target-width="163.52002" target-x="444.06" target-y="478.99"></path></g><g node-id="373"><path d="M 610.77 308.75 L 617.96 307.87 L 618.40 311.44 L 618.83 313.43 L 619.53 315.18 L 620.51 316.74 L 621.75 318.11 L 623.18 319.22 L 624.82 320.08 L 626.58 320.65 L 628.47 320.91 L 630.51 320.84 L 634.11 320.39 L 636.11 319.97 L 637.88 319.26 L 639.45 318.29 L 640.83 317.05 L 641.95 315.63 L 642.82 314.00 L 643.40 312.25 L 643.65 310.38 L 643.59 308.35 L 643.16 306.37 L 642.46 304.61 L 641.48 303.05 L 640.24 301.68 L 638.81 300.57 L 637.17 299.71 L 635.41 299.14 L 633.52 298.89 L 631.48 298.96 L 627.88 299.40 L 627.00 292.25 L 630.60 291.81 L 633.97 291.70 L 637.09 292.13 L 640.04 293.09 L 642.77 294.55 L 645.17 296.40 L 647.24 298.69 L 648.90 301.29 L 650.08 304.20 L 650.78 307.47 L 650.89 310.81 L 650.45 313.92 L 649.47 316.84 L 648.01 319.56 L 646.14 321.94 L 643.83 324.01 L 641.21 325.65 L 638.28 326.83 L 634.99 327.54 L 631.39 327.98 L 628.50 328.10 L 625.77 327.80 L 623.15 327.09 L 620.67 325.99 L 618.41 324.56 L 616.36 322.79 L 614.59 320.74 L 613.14 318.44 L 612.00 315.85 L 604.45 316.78 L 603.57 309.64 L 610.77 308.75 L 610.77 308.75 Z M 599.97 310.08 L 600.85 317.22 L 593.65 318.11 L 592.78 310.96 L 599.97 310.08 Z" fill="url(#linearGradient-22)" fill-rule="nonzero" group-id="7" id="问号" node-id="152" stroke="none" target-height="36.399994" target-width="58.109985" target-x="592.78" target-y="291.7"></path></g><g node-id="374"><path d="M 578.81 271.12 L 582.53 267.41 L 584.37 269.25 L 586.11 270.57 L 587.93 271.33 L 589.90 271.58 L 591.86 271.31 L 593.69 270.54 L 595.45 269.20 L 597.31 267.34 L 598.65 265.58 L 599.42 263.75 L 599.69 261.79 L 599.44 259.82 L 598.68 258.00 L 597.36 256.26 L 595.62 254.93 L 593.79 254.17 L 591.83 253.93 L 589.86 254.19 L 588.03 254.97 L 586.27 256.31 L 584.42 258.16 L 580.74 254.49 L 582.60 252.63 L 584.47 251.07 L 586.45 249.92 L 588.55 249.15 L 590.76 248.76 L 592.95 248.75 L 595.15 249.12 L 597.25 249.87 L 599.21 251.00 L 601.07 252.54 L 602.62 254.40 L 603.74 256.37 L 604.49 258.47 L 604.86 260.67 L 604.85 262.85 L 604.46 265.06 L 603.69 267.17 L 602.55 269.14 L 600.98 271.02 L 599.13 272.87 L 597.53 274.23 L 595.84 275.28 L 594.03 276.04 L 592.12 276.52 L 590.20 276.71 L 588.24 276.62 L 586.32 276.24 L 584.47 275.58 L 582.68 274.61 L 578.78 278.51 L 575.10 274.83 L 578.81 271.12 L 578.81 271.12 Z M 573.25 276.69 L 576.92 280.37 L 573.21 284.08 L 569.53 280.40 L 573.25 276.69 Z" fill="url(#linearGradient-23)" fill-rule="nonzero" group-id="8" id="问号" node-id="153" stroke="none" target-height="35.329987" target-width="35.329956" target-x="569.53" target-y="248.75"></path></g><g node-id="375"><g node-id="387"><path d="M 54.17 676.40 L 46.31 673.15 L 39.62 670.96 L 33.98 669.65 L 29.22 669.06 L 25.22 669.09 L 21.85 669.63 L 19.01 670.62 L 16.61 672.02 L 14.57 673.84 L 12.87 676.12 L 11.49 678.95 L 10.46 682.41 L 9.83 686.65 L 9.69 691.81 L 10.13 698.04 L 11.38 702.83 L 12.85 706.65 L 14.50 709.65 L 16.30 711.97 L 18.25 713.71 L 20.37 714.95 L 26.36 722.62 L 31.07 729.37 L 34.66 735.30 L 37.29 740.50 L 39.10 745.06 L 40.22 749.05 L 40.74 752.57 L 41.38 756.82 L 42.65 761.06 L 43.86 763.77 L 45.39 766.32 L 47.25 768.71 L 49.40 770.83 L 51.92 772.66 L 54.86 774.21 L 57.99 775.32 L 61.61 776.02 L 65.81 776.27 L 70.00 776.00 L 74.83 775.14 L 80.40 773.58 L 84.89 772.39 L 88.96 771.89 L 92.70 772.01 L 96.17 772.70 L 99.42 773.96 L 102.51 775.81 L 105.46 778.30 L 108.29 781.52 L 111.01 785.58 L 113.59 790.62 L 116.01 796.79 L 118.24 804.26 L 122.58 809.52 L 127.33 814.33 L 132.49 818.70 L 138.10 822.66 L 144.17 826.21 L 150.76 829.34 L 157.88 832.05 L 165.60 834.33 L 173.97 836.14 L 183.02 837.47 L 192.83 838.28 L 203.45 838.53 L 214.94 838.17 L 227.37 837.15 L 236.45 835.90 L 243.77 834.35 L 249.57 832.57 L 254.09 830.61 L 257.56 828.53 L 260.15 826.35 L 262.01 824.07 L 263.25 821.66 L 263.92 819.07 L 264.04 816.24 L 263.54 813.09 L 262.33 809.53 L 260.26 805.46 L 257.15 800.79 L 252.78 795.44 L 246.90 789.30 L 239.25 782.28 L 229.54 774.27 L 217.44 765.15 L 204.81 760.39 L 194.77 757.02 L 186.92 754.79 L 180.90 753.48 L 178.55 752.82 L 176.46 751.73 L 174.61 750.18 L 172.95 748.13 L 171.50 745.46 L 170.27 742.07 L 169.32 737.80 L 168.72 732.49 L 168.54 725.97 L 168.30 722.74 L 167.56 719.75 L 166.34 716.95 L 164.60 714.29 L 162.30 711.76 L 159.36 709.34 L 155.68 707.04 L 151.15 704.87 L 145.62 702.86 L 140.07 700.80 L 135.70 698.61 L 132.32 696.31 L 129.77 693.92 L 127.92 691.44 L 126.69 688.83 L 126.02 686.05 L 125.92 683.03 L 126.42 679.72 L 123.31 675.61 L 120.24 672.42 L 117.22 670.03 L 114.21 668.32 L 111.18 667.22 L 108.10 666.69 L 104.92 666.72 L 101.58 667.32 L 98.02 668.56 L 94.21 670.52 L 90.08 673.31 L 85.35 676.59 L 81.00 679.01 L 76.97 680.69 L 73.23 681.71 L 69.73 682.15 L 66.41 682.06 L 63.24 681.45 L 60.16 680.33 L 57.15 678.67 L 54.17 676.40 Z" fill="url(#linearGradient-24)" fill-rule="nonzero" group-id="9,21" id="路径-61" node-id="155" stroke="none" target-height="171.84003" target-width="254.35" target-x="9.69" target-y="666.69"></path></g><g node-id="388"><path d="M 52.64 691.51 L 100.91 723.73 L 98.81 713.79 L 96.63 705.35 L 94.38 698.25 L 92.09 692.33 L 91.09 689.81 L 91.12 689.73 L 92.59 692.66 L 95.51 699.39 L 98.87 708.18 L 100.42 712.86 L 101.67 717.31 L 102.56 721.63 L 102.89 725.05 L 143.13 751.91 L 143.02 751.75 L 143.55 740.36 L 143.57 731.42 L 143.20 724.53 L 142.54 719.35 L 141.68 715.55 L 142.40 717.00 L 143.28 720.05 L 144.00 723.56 L 144.70 728.00 L 145.71 737.49 L 146.00 742.32 L 146.10 746.65 L 145.98 750.71 L 145.64 753.59 L 182.66 778.29 L 182.32 777.88 L 182.59 775.54 L 183.06 769.84 L 183.22 762.80 L 183.00 759.30 L 182.54 756.41 L 183.07 757.51 L 183.67 760.01 L 184.50 766.44 L 184.92 773.69 L 184.84 779.75 L 215.39 800.14 L 211.52 804.01 L 179.98 781.68 L 177.03 783.20 L 173.95 784.44 L 170.75 785.40 L 165.90 786.41 L 161.44 786.93 L 157.21 787.09 L 154.12 786.94 L 160.72 786.08 L 166.15 784.88 L 170.59 783.39 L 174.16 781.67 L 177.02 779.75 L 178.31 780.68 L 179.52 781.35 L 90.70 718.45 L 91.26 719.14 L 84.51 719.87 L 78.13 720.12 L 72.10 719.91 L 66.39 719.27 L 60.97 718.21 L 55.82 716.76 L 56.13 716.55 L 56.97 716.48 L 58.76 716.74 L 65.80 718.00 L 70.42 718.54 L 76.13 718.75 L 80.03 718.60 L 84.29 718.10 L 88.93 717.21 L 52.64 691.51 Z M 93.97 768.36 L 97.97 768.19 L 102.46 767.40 L 107.51 765.89 L 113.21 763.55 L 119.65 760.24 L 126.93 755.82 L 135.14 750.09 L 137.36 752.31 L 131.86 756.32 L 126.51 759.68 L 121.29 762.42 L 115.88 764.77 L 110.87 766.51 L 106.24 767.69 L 101.50 768.43 L 97.44 768.63 L 93.97 768.36 Z" fill="url(#linearGradient-25)" fill-rule="nonzero" group-id="9,22" id="形状结合" node-id="156" stroke="none" target-height="114.28003" target-width="162.75" target-x="52.64" target-y="689.73"></path></g><path d="M 89.57 607.28 L 82.12 602.51 L 75.77 599.03 L 70.37 596.62 L 65.80 595.11 L 61.93 594.33 L 58.65 594.17 L 55.86 594.51 L 53.45 595.31 L 51.37 596.55 L 49.55 598.24 L 47.96 600.45 L 46.63 603.29 L 45.57 606.88 L 44.85 611.37 L 44.56 616.95 L 44.79 623.79 L 47.76 635.24 L 50.12 645.00 L 52.02 654.32 L 53.15 662.44 L 53.51 667.75 L 53.45 672.78 L 53.01 677.56 L 52.72 680.49 L 52.68 683.80 L 52.93 687.54 L 53.48 691.23 L 54.40 695.11 L 55.71 699.21 L 57.38 703.18 L 59.52 707.16 L 62.18 711.19 L 65.22 714.94 L 68.87 718.57 L 73.19 722.09 L 76.61 724.41 L 80.45 726.59 L 84.76 728.63 L 89.57 730.51 L 95.67 732.89 L 100.51 735.31 L 104.28 737.72 L 107.14 740.14 L 109.24 742.55 L 110.71 744.98 L 111.60 747.45 L 111.98 750.01 L 111.84 752.72 L 111.13 755.63 L 109.79 758.80 L 107.69 762.30 L 107.18 765.73 L 107.24 768.99 L 107.83 772.13 L 108.96 775.18 L 110.68 778.20 L 113.05 781.20 L 116.17 784.21 L 120.16 787.24 L 125.15 790.27 L 131.31 793.31 L 138.79 796.33 L 147.79 799.31 L 158.50 802.22 L 171.14 805.02 L 185.91 807.68 L 198.13 809.43 L 208.17 810.47 L 216.32 810.92 L 222.64 810.93 L 227.87 810.64 L 232.15 810.10 L 235.60 809.36 L 239.17 808.18 L 241.93 806.84 L 244.03 805.35 L 245.59 803.73 L 246.82 801.79 L 247.65 799.68 L 248.08 797.36 L 248.10 794.78 L 247.61 791.36 L 246.59 787.54 L 244.95 783.26 L 241.91 776.93 L 237.97 769.93 L 228.97 755.52 L 223.45 749.62 L 219.47 744.63 L 217.17 741.24 L 215.38 738.13 L 214.02 735.26 L 212.47 730.83 L 211.56 726.58 L 211.10 722.28 L 210.98 717.80 L 211.18 714.69 L 211.68 711.18 L 212.75 703.81 L 212.93 700.01 L 212.61 696.23 L 212.05 693.77 L 211.08 691.36 L 209.69 688.97 L 207.95 686.82 L 205.56 684.69 L 202.42 682.57 L 199.04 680.84 L 194.70 679.16 L 189.22 677.56 L 185.70 676.49 L 182.51 674.97 L 179.61 673.00 L 176.97 670.54 L 174.56 667.55 L 172.40 663.96 L 170.49 659.68 L 168.87 654.61 L 167.57 648.66 L 166.65 641.69 L 166.16 633.59 L 165.36 630.57 L 164.13 628.02 L 162.48 625.88 L 160.39 624.08 L 157.78 622.61 L 154.55 621.49 L 150.58 620.77 L 145.73 620.53 L 139.84 620.86 L 132.72 621.90 L 124.19 623.79 L 120.64 624.23 L 117.08 624.17 L 113.50 623.61 L 109.84 622.52 L 106.09 620.87 L 102.21 618.61 L 98.18 615.64 L 93.97 611.90 L 89.57 607.28 Z" fill="url(#linearGradient-26)" fill-rule="nonzero" group-id="9" id="路径-65" node-id="157" stroke="none" target-height="216.76001" target-width="203.54001" target-x="44.56" target-y="594.17"></path><path d="M 74.94 624.74 L 110.38 669.80 L 110.45 669.63 L 112.15 664.88 L 113.30 660.18 L 113.94 655.50 L 114.07 650.82 L 113.69 646.11 L 112.80 641.35 L 112.72 641.04 L 112.73 641.08 L 114.67 646.87 L 115.51 650.05 L 116.08 653.65 L 116.20 657.44 L 115.67 661.87 L 114.96 664.85 L 113.80 668.21 L 112.12 672.01 L 142.15 710.19 L 142.34 709.92 L 144.95 705.70 L 147.13 701.02 L 148.89 695.81 L 150.20 690.03 L 151.02 683.61 L 151.30 676.46 L 151.71 678.46 L 151.97 682.22 L 151.91 686.42 L 151.45 691.61 L 150.55 696.95 L 149.07 702.49 L 147.74 706.11 L 146.10 709.52 L 144.14 712.73 L 170.75 746.55 L 173.02 742.51 L 174.29 739.67 L 175.48 736.17 L 176.31 732.45 L 176.63 728.40 L 176.98 731.31 L 177.09 734.61 L 176.84 738.01 L 176.10 741.66 L 175.31 744.05 L 174.20 746.52 L 172.74 749.08 L 212.00 799.00 L 205.77 799.00 L 167.82 748.45 L 163.16 750.26 L 159.08 751.56 L 155.50 752.43 L 150.20 753.24 L 145.94 753.38 L 141.97 753.05 L 138.86 752.43 L 136.06 751.55 L 134.01 750.70 L 138.18 751.48 L 142.43 751.78 L 146.77 751.61 L 151.25 750.94 L 155.88 749.76 L 160.70 748.01 L 165.73 745.66 L 136.86 707.22 L 137.36 708.13 L 130.09 710.39 L 123.00 712.07 L 115.94 713.23 L 109.43 713.82 L 103.13 713.88 L 97.74 713.41 L 94.27 712.76 L 91.39 711.90 L 89.00 710.87 L 92.28 711.85 L 96.10 712.49 L 100.56 712.73 L 105.76 712.51 L 111.78 711.76 L 118.75 710.37 L 126.77 708.26 L 135.98 705.31 L 135.55 705.46 L 103.38 662.62 L 103.56 663.14 L 98.17 663.21 L 93.20 662.74 L 88.59 661.78 L 84.31 660.34 L 80.30 658.43 L 76.55 656.02 L 73.03 653.11 L 69.72 649.65 L 70.21 649.61 L 71.49 650.38 L 75.34 653.19 L 78.00 654.89 L 81.52 656.75 L 85.43 658.33 L 90.28 659.67 L 93.67 660.26 L 97.51 660.58 L 101.86 660.61 L 74.94 624.74 Z" fill="url(#linearGradient-27)" fill-rule="nonzero" group-id="9,23" id="形状结合" node-id="158" stroke="none" target-height="174.26001" target-width="142.28" target-x="69.72" target-y="624.74"></path><path d="M 199.20 608.75 L 202.76 604.29 L 205.99 601.10 L 208.92 598.96 L 211.62 597.66 L 214.16 597.07 L 216.59 597.08 L 219.00 597.70 L 221.46 598.99 L 224.02 601.05 L 226.71 604.09 L 229.55 608.32 L 232.55 614.01 L 233.68 619.31 L 234.29 624.01 L 235.21 632.61 L 235.70 635.21 L 236.44 637.65 L 237.45 639.95 L 238.77 642.06 L 240.63 644.14 L 243.12 646.20 L 245.87 647.92 L 249.56 649.70 L 254.37 651.51 L 258.45 653.12 L 261.68 654.90 L 264.19 656.83 L 266.10 658.90 L 267.48 661.13 L 268.38 663.55 L 268.82 666.22 L 268.75 669.19 L 268.13 672.54 L 266.85 676.35 L 264.79 680.69 L 261.81 685.66 L 260.43 689.47 L 259.82 692.72 L 259.83 695.50 L 260.38 697.91 L 261.45 700.06 L 263.07 701.98 L 265.34 703.72 L 268.38 705.26 L 272.39 706.57 L 275.08 707.52 L 277.09 708.76 L 278.58 710.27 L 279.60 712.08 L 280.18 714.27 L 280.28 716.94 L 279.77 720.24 L 278.52 724.30 L 276.32 729.29 L 272.94 735.39 L 268.12 742.79 L 265.93 748.48 L 264.73 753.10 L 264.31 756.84 L 264.52 759.86 L 265.25 762.32 L 266.44 764.33 L 268.12 765.99 L 270.46 767.98 L 273.22 770.93 L 274.92 773.15 L 276.55 775.79 L 278.11 778.91 L 279.33 782.15 L 280.26 785.88 L 280.87 790.15 L 281.00 794.45 L 280.60 799.34 L 279.59 804.90 L 278.06 810.31 L 275.71 816.44 L 272.39 823.38 L 270.25 826.95 L 268.03 829.95 L 265.73 832.44 L 263.35 834.47 L 259.79 836.76 L 256.15 838.39 L 252.38 839.40 L 248.48 839.88 L 244.54 839.88 L 240.53 839.40 L 236.57 838.52 L 232.69 837.29 L 228.86 835.72 L 223.40 832.87 L 218.44 829.59 L 213.95 825.93 L 210.32 822.27 L 208.21 819.63 L 206.65 817.21 L 205.56 814.98 L 204.55 811.71 L 203.94 808.32 L 203.73 804.79 L 203.96 799.43 L 204.65 793.97 L 206.48 783.35 L 207.18 778.26 L 207.40 773.74 L 207.18 770.83 L 206.56 768.26 L 205.56 765.99 L 204.30 764.32 L 202.54 762.64 L 200.18 760.95 L 196.34 758.62 L 191.83 756.10 L 187.25 753.44 L 182.68 750.43 L 179.81 748.18 L 177.21 745.69 L 174.89 742.94 L 172.98 739.92 L 171.55 736.51 L 170.61 732.62 L 170.33 729.69 L 170.44 726.40 L 170.98 722.68 L 172.01 718.47 L 174.60 714.63 L 177.14 711.33 L 179.63 708.15 L 181.78 705.12 L 183.01 703.02 L 183.98 700.81 L 184.68 698.45 L 185.05 696.03 L 185.03 693.23 L 184.58 689.97 L 183.76 686.79 L 182.34 682.94 L 180.22 678.31 L 177.38 672.97 L 175.21 669.25 L 171.88 663.77 L 170.88 661.72 L 170.47 660.09 L 170.55 658.44 L 171.23 656.43 L 172.38 654.25 L 174.39 651.03 L 180.22 642.12 L 183.51 638.32 L 187.04 633.31 L 190.83 626.88 L 194.88 618.79 L 199.20 608.75 Z" fill="url(#linearGradient-28)" fill-rule="nonzero" group-id="9" id="路径-96" node-id="159" stroke="none" target-height="242.81" target-width="110.67" target-x="170.33" target-y="597.07"></path><path d="M 216.11 638.51 L 227.46 695.42 L 233.00 686.91 L 237.42 679.40 L 240.85 672.79 L 243.42 666.99 L 244.50 664.50 L 244.57 664.46 L 243.54 667.58 L 240.85 674.40 L 237.01 682.99 L 234.79 687.39 L 232.53 691.42 L 230.11 695.11 L 227.92 697.76 L 237.38 745.21 L 237.42 745.02 L 245.84 737.34 L 252.18 731.03 L 256.79 725.90 L 259.99 721.76 L 262.07 718.47 L 261.54 720.00 L 260.01 722.78 L 258.04 725.77 L 255.40 729.40 L 249.40 736.83 L 246.20 740.45 L 243.20 743.59 L 240.24 746.37 L 237.97 748.17 L 246.68 791.81 L 246.73 791.28 L 248.58 789.82 L 252.94 786.12 L 258.03 781.25 L 260.35 778.62 L 262.07 776.25 L 261.66 777.41 L 260.32 779.60 L 256.36 784.74 L 251.53 790.16 L 247.19 794.39 L 254.37 830.40 L 248.90 830.40 L 242.39 792.31 L 239.23 791.30 L 236.18 790.00 L 233.23 788.41 L 229.08 785.70 L 225.57 782.92 L 222.47 780.04 L 220.38 777.75 L 225.65 781.81 L 230.35 784.80 L 234.53 786.88 L 238.28 788.20 L 241.66 788.86 L 241.92 790.42 L 242.29 791.75 L 223.96 684.47 L 223.87 685.35 L 218.58 681.10 L 213.90 676.76 L 209.79 672.35 L 206.20 667.86 L 203.11 663.29 L 200.50 658.61 L 200.87 658.69 L 201.50 659.23 L 202.59 660.68 L 206.68 666.55 L 209.57 670.20 L 213.45 674.38 L 216.32 677.04 L 219.68 679.69 L 223.60 682.34 L 216.11 638.51 Z M 190.99 722.08 L 193.94 724.79 L 197.67 727.40 L 202.31 729.90 L 207.99 732.28 L 214.89 734.50 L 223.17 736.51 L 233.02 738.27 L 233.02 741.41 L 226.29 740.36 L 220.14 738.94 L 214.51 737.20 L 209.01 735.03 L 204.25 732.72 L 200.14 730.27 L 196.26 727.45 L 193.25 724.72 L 190.99 722.08 Z" fill="url(#linearGradient-25)" fill-rule="nonzero" group-id="9" id="形状结合" node-id="160" stroke="none" target-height="191.89001" target-width="71.08" target-x="190.99" target-y="638.51"></path></g><g node-id="376"><path d="M 938.40 787.52 L 938.95 781.38 L 938.93 776.07 L 938.44 771.49 L 937.51 767.55 L 936.21 764.15 L 934.55 761.23 L 932.54 758.73 L 930.16 756.60 L 927.38 754.81 L 924.14 753.38 L 920.38 752.30 L 916.00 751.63 L 920.95 751.41 L 925.50 751.63 L 929.69 752.27 L 933.56 753.29 L 937.14 754.69 L 940.61 756.53 L 943.72 758.70 L 946.51 761.19 L 948.98 764.04 L 951.16 767.26 L 952.93 770.65 L 954.34 774.33 L 955.40 778.35 L 956.09 782.73 L 956.38 787.52 L 948.50 787.65 L 938.40 787.52 Z" fill="url(#linearGradient-29)" fill-rule="nonzero" group-id="10" id="路径-38" node-id="162" stroke="none" target-height="36.24005" target-width="40.380005" target-x="916" target-y="751.41"></path><path d="M 950.12 787.65 L 951.21 781.17 L 951.68 775.22 L 951.58 769.76 L 950.96 764.72 L 949.84 760.06 L 948.24 755.73 L 946.18 751.69 L 943.62 747.92 L 940.56 744.39 L 936.95 741.08 L 932.73 738.00 L 937.89 739.74 L 942.70 741.69 L 947.18 743.86 L 951.44 746.39 L 955.38 749.38 L 959.04 752.83 L 961.47 755.66 L 963.76 758.90 L 965.90 762.60 L 967.90 766.80 L 969.51 771.00 L 970.97 775.83 L 972.27 781.35 L 973.37 787.65 L 967.00 787.95 L 959.31 787.97 L 950.12 787.65 Z" fill="url(#linearGradient-30)" fill-rule="nonzero" group-id="10" id="路径-39" node-id="163" stroke="none" target-height="49.96997" target-width="40.640015" target-x="932.73" target-y="738"></path><path d="M 977.07 788.00 L 976.73 781.72 L 976.99 776.27 L 977.76 771.55 L 978.98 767.46 L 980.63 763.91 L 982.67 760.84 L 985.13 758.18 L 988.03 755.92 L 991.43 754.02 L 995.39 752.50 L 1000.00 751.39 L 995.13 751.29 L 990.16 751.39 L 986.86 751.67 L 983.55 752.24 L 980.22 753.13 L 977.02 754.38 L 973.78 756.16 L 970.49 758.54 L 967.52 761.30 L 964.47 764.91 L 961.33 769.53 L 958.63 774.39 L 955.86 780.48 L 953.05 788.00 L 968.31 787.74 L 977.07 788.00 Z" fill="none" group-id="10" id="路径-40" node-id="164" stroke="none" target-height="36.710022" target-width="46.950012" target-x="953.05" target-y="751.29"></path><path d="M 927.41 802.00 L 933.64 801.98 L 939.14 801.82 L 942.72 801.51 L 945.83 800.97 L 948.52 800.23 L 951.03 799.11 L 953.09 797.60 L 954.75 795.68 L 955.66 794.05 L 956.36 792.05 L 956.82 789.60 L 957.00 786.61 L 956.71 782.68 L 955.91 778.99 L 954.60 775.47 L 952.83 772.16 L 950.66 769.14 L 948.07 766.38 L 945.15 763.97 L 941.92 761.92 L 938.37 760.25 L 934.64 759.03 L 930.70 758.27 L 926.50 758.00 L 922.30 758.27 L 918.36 759.03 L 914.63 760.25 L 911.08 761.92 L 907.85 763.97 L 904.93 766.38 L 902.34 769.14 L 900.17 772.16 L 898.40 775.47 L 897.09 778.99 L 896.29 782.68 L 896.00 786.61 L 896.20 789.58 L 896.72 792.02 L 897.51 794.03 L 898.54 795.68 L 900.37 797.58 L 902.63 799.10 L 905.39 800.23 L 908.32 800.98 L 911.64 801.51 L 915.40 801.82 L 921.13 801.98 L 927.41 802.00 Z" fill="url(#linearGradient-32)" fill-rule="nonzero" group-id="10" id="椭圆形" node-id="165" stroke="none" target-height="44" target-width="61" target-x="896" target-y="758"></path><path d="M 960.57 802.00 L 967.88 801.89 L 971.11 801.55 L 973.72 800.91 L 975.28 800.22 L 976.56 799.30 L 977.60 798.12 L 978.32 796.74 L 978.81 794.92 L 979.00 792.56 L 978.68 789.36 L 977.82 786.43 L 976.41 783.69 L 974.53 781.25 L 972.27 779.15 L 969.59 777.40 L 966.66 776.10 L 963.48 775.30 L 960.00 775.00 L 956.52 775.30 L 953.34 776.10 L 950.41 777.40 L 947.73 779.15 L 945.47 781.25 L 943.59 783.69 L 942.18 786.43 L 941.32 789.36 L 941.00 792.56 L 941.21 794.91 L 941.76 796.73 L 942.58 798.12 L 943.72 799.29 L 945.13 800.22 L 946.85 800.91 L 949.68 801.55 L 953.08 801.89 L 960.57 802.00 Z" fill="url(#linearGradient-33)" fill-rule="nonzero" group-id="10" id="椭圆形备份-6" node-id="166" stroke="none" target-height="27" target-width="38" target-x="941" target-y="775"></path></g></svg>