<svg height="1024" node-id="1" sillyvg="true" template-height="1024" template-width="1024" version="1.1" viewBox="0 0 1024 1024" width="1024" xmlns="http://www.w3.org/2000/svg" xmlns:xlink="http://www.w3.org/1999/xlink"><defs node-id="127"><linearGradient gradientUnits="userSpaceOnUse" id="未命名的渐变_37" node-id="5" spreadMethod="pad" x1="26305.36" x2="26384.72" y1="-42886.72" y2="-42888.098"><stop offset="0" stop-color="#98d6fa"></stop><stop offset="1" stop-color="#47b0f1"></stop></linearGradient><linearGradient gradientUnits="userSpaceOnUse" id="未命名的渐变_37-2" node-id="8" spreadMethod="pad" x1="26305.36" x2="26384.72" y1="-42886.72" y2="-42888.098"><stop offset="0" stop-color="#98d6fa"></stop><stop offset="1" stop-color="#47b0f1"></stop></linearGradient><linearGradient gradientUnits="userSpaceOnUse" id="未命名的渐变_3" node-id="9" spreadMethod="pad" x1="198806.11" x2="199736.11" y1="-228966.97" y2="-228966.97"><stop offset="0" stop-color="#fff5de"></stop><stop offset="1" stop-color="#fbd2ac"></stop></linearGradient><linearGradient gradientUnits="userSpaceOnUse" id="未命名的渐变_37-3" node-id="12" spreadMethod="pad" x1="15798.319" x2="15845.487" y1="-23888.906" y2="-23889.418"><stop offset="0" stop-color="#98d6fa"></stop><stop offset="1" stop-color="#47b0f1"></stop></linearGradient><linearGradient gradientUnits="userSpaceOnUse" id="未命名的渐变_37-4" node-id="13" spreadMethod="pad" x1="10883.409" x2="10916.618" y1="-16576.174" y2="-16576.527"><stop offset="0" stop-color="#98d6fa"></stop><stop offset="1" stop-color="#47b0f1"></stop></linearGradient><linearGradient gradientUnits="userSpaceOnUse" id="未命名的渐变_37-5" node-id="14" spreadMethod="pad" x1="10883.409" x2="10916.618" y1="-16576.174" y2="-16576.527"><stop offset="0" stop-color="#98d6fa"></stop><stop offset="1" stop-color="#47b0f1"></stop></linearGradient><linearGradient gradientUnits="userSpaceOnUse" id="未命名的渐变_37-6" node-id="15" spreadMethod="pad" x1="7478.883" x2="7501.544" y1="-11524.333" y2="-11524.578"><stop offset="0" stop-color="#98d6fa"></stop><stop offset="1" stop-color="#47b0f1"></stop></linearGradient><linearGradient gradientUnits="userSpaceOnUse" id="未命名的渐变_37-7" node-id="16" spreadMethod="pad" x1="8457.1875" x2="8441.035" y1="-33805.3" y2="-33833.215"><stop offset="0" stop-color="#98d6fa"></stop><stop offset="1" stop-color="#47b0f1"></stop></linearGradient><linearGradient gradientUnits="userSpaceOnUse" id="未命名的渐变_37-8" node-id="17" spreadMethod="pad" x1="8490.103" x2="8512.86" y1="-46595" y2="-46620.5"><stop offset="0" stop-color="#98d6fa"></stop><stop offset="1" stop-color="#47b0f1"></stop></linearGradient><linearGradient gradientUnits="userSpaceOnUse" id="未命名的渐变_37-9" node-id="18" spreadMethod="pad" x1="9834.147" x2="9874.055" y1="-34236.848" y2="-34247.86"><stop offset="0" stop-color="#98d6fa"></stop><stop offset="1" stop-color="#47b0f1"></stop></linearGradient><linearGradient gradientUnits="userSpaceOnUse" id="未命名的渐变_37-10" node-id="19" spreadMethod="pad" x1="12840.5" x2="12892.351" y1="-41019.44" y2="-41030.883"><stop offset="0" stop-color="#98d6fa"></stop><stop offset="1" stop-color="#47b0f1"></stop></linearGradient><linearGradient gradientUnits="userSpaceOnUse" id="未命名的渐变_37-11" node-id="20" spreadMethod="pad" x1="7918.4404" x2="7950.7397" y1="-25205.85" y2="-25212.6"><stop offset="0" stop-color="#98d6fa"></stop><stop offset="1" stop-color="#47b0f1"></stop></linearGradient><linearGradient gradientUnits="userSpaceOnUse" id="未命名的渐变_37-12" node-id="21" spreadMethod="pad" x1="42628" x2="42706" y1="-304296.8" y2="-304480"><stop offset="0" stop-color="#98d6fa"></stop><stop offset="1" stop-color="#47b0f1"></stop></linearGradient><linearGradient gradientTransform="matrix(192.79 51.66 86.25 -321.89 -121013.6 289362.18)" gradientUnits="userSpaceOnUse" id="未命名的渐变_37-13" node-id="22" spreadMethod="pad" x1="213.06" x2="213.44" y1="931.05" y2="931.62"><stop offset="0" stop-color="#98d6fa"></stop><stop offset="1" stop-color="#47b0f1"></stop></linearGradient><linearGradient gradientUnits="userSpaceOnUse" id="未命名的渐变_37-14" node-id="23" spreadMethod="pad" x1="42628" x2="42706" y1="-304296.8" y2="-304480"><stop offset="0" stop-color="#98d6fa"></stop><stop offset="1" stop-color="#47b0f1"></stop></linearGradient><linearGradient gradientUnits="userSpaceOnUse" id="未命名的渐变_37-15" node-id="24" spreadMethod="pad" x1="5390.2993" x2="5397.6216" y1="-23923.713" y2="-23901.695"><stop offset="0" stop-color="#98d6fa"></stop><stop offset="1" stop-color="#47b0f1"></stop></linearGradient><linearGradient gradientUnits="userSpaceOnUse" id="未命名的渐变_37-16" node-id="25" spreadMethod="pad" x1="4695.197" x2="4696.3413" y1="-52124.133" y2="-52073.83"><stop offset="0" stop-color="#98d6fa"></stop><stop offset="1" stop-color="#47b0f1"></stop></linearGradient><linearGradient gradientUnits="userSpaceOnUse" id="未命名的渐变_37-17" node-id="26" spreadMethod="pad" x1="3528.9136" x2="3529.2627" y1="-56993.176" y2="-56938.168"><stop offset="0" stop-color="#98d6fa"></stop><stop offset="1" stop-color="#47b0f1"></stop></linearGradient><linearGradient gradientUnits="userSpaceOnUse" id="未命名的渐变_37-18" node-id="27" spreadMethod="pad" x1="5117.431" x2="5118.923" y1="-49340.363" y2="-49292.75"><stop offset="0" stop-color="#98d6fa"></stop><stop offset="1" stop-color="#47b0f1"></stop></linearGradient><linearGradient gradientUnits="userSpaceOnUse" id="未命名的渐变_37-19" node-id="28" spreadMethod="pad" x1="16906.4" x2="16996.8" y1="-15915.917" y2="-15915.917"><stop offset="0" stop-color="#98d6fa"></stop><stop offset="1" stop-color="#47b0f1"></stop></linearGradient><linearGradient gradientTransform="matrix(-249.25 35.03 -15.45 -109.92 68446.27 95777.85)" gradientUnits="userSpaceOnUse" id="未命名的渐变_21" node-id="29" spreadMethod="pad" x1="214.79" x2="215.79" y1="932.46" y2="932.46"><stop offset="0" stop-color="#f5dda7"></stop><stop offset="1" stop-color="#fa9a41"></stop></linearGradient><linearGradient gradientUnits="userSpaceOnUse" id="未命名的渐变_23" node-id="32" spreadMethod="pad" x1="19783.492" x2="19696.984" y1="-104446.31" y2="-104495.67"><stop offset="0" stop-color="#1d181c"></stop><stop offset="0.3" stop-color="#2c2422"></stop><stop offset="0.5" stop-color="#42352c"></stop><stop offset="0.7" stop-color="#57352c"></stop><stop offset="1" stop-color="#923629"></stop></linearGradient><linearGradient gradientUnits="userSpaceOnUse" id="未命名的渐变_23-2" node-id="38" spreadMethod="pad" x1="8444.522" x2="8441.698" y1="-156800.7" y2="-156874.81"><stop offset="0" stop-color="#1d181c"></stop><stop offset="0.3" stop-color="#2c2422"></stop><stop offset="0.5" stop-color="#42352c"></stop><stop offset="0.7" stop-color="#57352c"></stop><stop offset="1" stop-color="#923629"></stop></linearGradient><linearGradient gradientUnits="userSpaceOnUse" id="未命名的渐变_25" node-id="39" spreadMethod="pad" x1="8289.284" x2="8249.734" y1="-103745" y2="-103745"><stop offset="0" stop-color="#ffb859"></stop><stop offset="1" stop-color="#f97b61"></stop></linearGradient><linearGradient gradientUnits="userSpaceOnUse" id="未命名的渐变_25-2" node-id="42" spreadMethod="pad" x1="17286.918" x2="17206.332" y1="-109782.586" y2="-109782.586"><stop offset="0" stop-color="#ffb859"></stop><stop offset="1" stop-color="#f97b61"></stop></linearGradient><linearGradient gradientUnits="userSpaceOnUse" id="未命名的渐变_37-20" node-id="43" spreadMethod="pad" x1="2475.1453" x2="2476.274" y1="-40415.426" y2="-40439.707"><stop offset="0" stop-color="#98d6fa"></stop><stop offset="1" stop-color="#47b0f1"></stop></linearGradient><linearGradient gradientUnits="userSpaceOnUse" id="未命名的渐变_27" node-id="44" spreadMethod="pad" x1="13461.552" x2="13490.955" y1="-67295.89" y2="-67302.4"><stop offset="0" stop-color="#f97b61"></stop><stop offset="1" stop-color="#ffb859"></stop></linearGradient><linearGradient gradientTransform="matrix(-38.36 0 -0 -35.65 8804.46 33823.33)" gradientUnits="userSpaceOnUse" id="未命名的渐变_37-21" node-id="47" spreadMethod="pad" x1="219.13" x2="220.17" y1="933.41" y2="933.9"><stop offset="0" stop-color="#98d6fa"></stop><stop offset="1" stop-color="#47b0f1"></stop></linearGradient><linearGradient gradientTransform="matrix(-269.22 47.47 -27.01 -153.15 83989.98 133303.27)" gradientUnits="userSpaceOnUse" id="未命名的渐变_37-22" node-id="51" spreadMethod="pad" x1="214.58" x2="215.22" y1="932.13" y2="932.2"><stop offset="0" stop-color="#98d6fa"></stop><stop offset="1" stop-color="#47b0f1"></stop></linearGradient><linearGradient gradientTransform="matrix(-50.26115001 -50.26115001 135.69379131 -135.69379131 -114501.92 138005.39)" gradientUnits="userSpaceOnUse" id="未命名的渐变_34" node-id="52" spreadMethod="pad" x1="217.29" x2="217.46" y1="931.06" y2="930.99"><stop offset="0.03" stop-color="#afdef9"></stop><stop offset="1" stop-color="#7cc9f9"></stop></linearGradient><linearGradient gradientTransform="matrix(-203.58 0 -0 -216.82 44748.34 202734.53)" gradientUnits="userSpaceOnUse" id="未命名的渐变_37-23" node-id="55" spreadMethod="pad" x1="215.14" x2="215.68" y1="931.63" y2="931.87"><stop offset="0" stop-color="#98d6fa"></stop><stop offset="1" stop-color="#47b0f1"></stop></linearGradient><linearGradient gradientTransform="matrix(-64.64 -31.53 95 -194.77 -73518.85 188980.42)" gradientUnits="userSpaceOnUse" id="未命名的渐变_34-2" node-id="56" spreadMethod="pad" x1="217.49" x2="217.63" y1="931.52" y2="931.46"><stop offset="0.03" stop-color="#afdef9"></stop><stop offset="1" stop-color="#7cc9f9"></stop></linearGradient><linearGradient gradientTransform="matrix(-110.66 0 -0 -242.94 24738.53 227077.33)" gradientUnits="userSpaceOnUse" id="未命名的渐变_37-24" node-id="57" spreadMethod="pad" x1="216.3" x2="216.51" y1="931.36" y2="931.93"><stop offset="0" stop-color="#98d6fa"></stop><stop offset="1" stop-color="#47b0f1"></stop></linearGradient><linearGradient gradientTransform="matrix(-71.08 0 -0 -191.9 16247.55 179556.1)" gradientUnits="userSpaceOnUse" id="未命名的渐变_34-3" node-id="58" spreadMethod="pad" x1="217.28" x2="217.45" y1="931.99" y2="931.92"><stop offset="0.03" stop-color="#afdef9"></stop><stop offset="1" stop-color="#7cc9f9"></stop></linearGradient><linearGradient gradientUnits="userSpaceOnUse" id="未命名的渐变_37-25" node-id="59" spreadMethod="pad" x1="2329.1196" x2="2341.506" y1="-8971.2705" y2="-8974.708"><stop offset="0" stop-color="#98d6fa"></stop><stop offset="1" stop-color="#47b0f1"></stop></linearGradient><linearGradient gradientUnits="userSpaceOnUse" id="未命名的渐变_37-26" node-id="60" spreadMethod="pad" x1="17429.232" x2="17515.188" y1="-42275.27" y2="-42282.977"><stop offset="0" stop-color="#98d6fa"></stop><stop offset="1" stop-color="#47b0f1"></stop></linearGradient><linearGradient gradientUnits="userSpaceOnUse" id="未命名的渐变_37-27" node-id="61" spreadMethod="pad" x1="14779.198" x2="14852.247" y1="-10984.683" y2="-10984.917"><stop offset="0" stop-color="#98d6fa"></stop><stop offset="1" stop-color="#47b0f1"></stop></linearGradient><mask height="30.51" id="mask" maskUnits="userSpaceOnUse" node-id="48" width="24.4" x="359.39" y="506.69"><path d="M 381.36 507.00 C 384.86 508.85 384.45 518.54 380.95 525.54 C 377.44 532.35 369.82 538.73 366.31 536.88 C 362.80 535.03 363.63 525.96 366.31 519.77 C 369.82 512.15 377.85 505.14 381.36 507.00 Z" fill="#ffffff" fill-rule="evenodd" id="path-26" node-id="50" stroke="none" target-height="33.589966" target-width="22.059998" target-x="362.8" target-y="505.14"></path></mask></defs><g node-id="437"><g node-id="438"><path d="M 0.00 0.00 L 1024.00 0.00 L 1024.00 1024.00 L 0.00 1024.00 Z" fill="#ffffff" fill-opacity="0" fill-rule="nonzero" group-id="1,2" id="矩形" node-id="65" stroke="none" target-height="1024" target-width="1024" target-x="0" target-y="0"></path><g node-id="439"><g node-id="445"><path d="M 76.80 581.77 C 69.12 548.67 19.18 333.15 160.40 303.51 C 301.62 273.87 385.05 308.39 447.10 248.05 C 509.15 187.71 524.62 197.61 575.59 201.60 C 626.56 205.59 685.63 162.00 705.47 149.00 C 725.31 136.00 904.53 51.69 950.35 303.51 C 957.59 412.38 963.61 530.51 912.91 575.24 C 862.21 619.97 913.84 660.15 950.35 664.62 C 986.86 669.09 933.28 745.53 849.00 778.90 C 792.88 804.06 430.19 876.18 213.00 802.00 C 108.11 757.12 84.47 614.86 76.80 581.77 Z" fill="#47b0f1" fill-opacity="0.05" fill-rule="nonzero" group-id="1,2,3,9" id="路径-58" node-id="67" stroke="none" target-height="824.49" target-width="967.68" target-x="19.18" target-y="51.69"></path></g><g node-id="446"><path d="M 158.00 329.00 L 158.00 329.15 C 161.49 329.87 164.00 332.94 164.00 336.50 L 164.00 337.50 C 164.00 341.64 160.64 345.00 156.50 345.00 L 77.50 345.00 C 73.36 345.00 70.00 341.64 70.00 337.50 L 70.00 336.50 C 70.00 332.36 73.36 329.00 77.50 329.00 L 109.00 329.00 C 112.77 329.00 115.87 326.01 116.00 322.24 L 116.00 322.00 C 116.00 318.23 113.01 315.13 109.24 315.00 L 106.00 315.00 L 106.00 314.85 C 102.51 314.14 100.00 311.06 100.00 307.50 L 100.00 306.50 C 100.00 302.36 103.36 299.00 107.50 299.00 L 186.50 299.00 C 190.64 299.00 194.00 302.36 194.00 306.50 L 194.00 307.50 C 194.00 311.64 190.64 315.00 186.50 315.00 L 155.00 315.00 C 151.23 315.00 148.13 317.99 148.00 321.76 L 148.00 322.00 C 148.00 325.77 150.99 328.87 154.76 329.00 L 158.00 329.00 Z" fill="url(#未命名的渐变_37)" fill-opacity="0.1" fill-rule="nonzero" group-id="1,2,3,10" id="形状结合" node-id="68" stroke="none" target-height="46" target-width="124" target-x="70" target-y="299"></path></g><g node-id="447"><path d="M 858.00 159.00 L 858.00 159.15 C 861.49 159.87 864.00 162.94 864.00 166.50 L 864.00 167.50 C 864.00 171.64 860.64 175.00 856.50 175.00 L 777.50 175.00 C 773.36 175.00 770.00 171.64 770.00 167.50 L 770.00 166.50 C 770.00 162.36 773.36 159.00 777.50 159.00 L 809.00 159.00 C 812.77 159.00 815.87 156.01 816.00 152.24 L 816.00 152.00 C 816.00 148.23 813.01 145.13 809.24 145.00 L 806.00 145.00 L 806.00 144.85 C 802.51 144.14 800.00 141.06 800.00 137.50 L 800.00 136.50 C 800.00 132.36 803.36 129.00 807.50 129.00 L 886.50 129.00 C 890.64 129.00 894.00 132.36 894.00 136.50 L 894.00 137.50 C 894.00 141.64 890.64 145.00 886.50 145.00 L 855.00 145.00 C 851.23 145.00 848.13 147.99 848.00 151.76 L 848.00 152.00 C 848.00 155.77 850.99 158.87 854.76 159.00 L 858.00 159.00 Z" fill="url(#未命名的渐变_37-2)" fill-opacity="0.1" fill-rule="nonzero" group-id="1,2,3,11" id="形状结合-2" node-id="69" stroke="none" target-height="46" target-width="124" target-x="770" target-y="129"></path></g><path d="M 514.52 712.00 C 645.62 712.00 763.78 722.79 846.30 740.00 C 927.06 740.65 992.00 765.00 992.00 795.00 C 992.00 819.23 949.55 839.80 890.61 847.13 C 877.61 850.88 863.20 854.43 847.45 857.75 C 847.82 859.81 848.00 861.90 848.00 864.00 C 848.00 915.91 735.18 958.00 596.00 958.00 C 471.35 958.00 367.83 924.24 347.59 879.89 C 180.20 867.13 62.00 835.72 62.00 799.00 C 62.00 751.00 264.37 712.00 514.52 712.00 Z" fill="url(#未命名的渐变_3)" fill-rule="nonzero" group-id="1,2,3" id="形状结合-3" node-id="70" stroke="none" target-height="246" target-width="930" target-x="62" target-y="712"></path><path d="M 686.61 226.65 L 686.61 226.55 C 681.28 211.55 663.91 204.44 649.17 206.62 C 660.10 199.83 678.17 198.02 686.61 208.44 L 686.61 208.53 C 695.07 198.20 713.20 199.92 724.04 206.71 C 709.32 204.63 691.95 211.71 686.61 226.64 Z" fill="url(#未命名的渐变_37-3)" fill-rule="nonzero" group-id="1,2,3,12" id="路径" node-id="72" stroke="none" target-height="28.62999" target-width="74.869995" target-x="649.17" target-y="198.02"></path><path d="M 770.00 214.11 L 770.00 214.00 C 766.30 203.58 754.27 198.69 744.06 200.19 C 751.63 195.48 764.13 194.19 770.00 201.45 L 770.00 201.51 C 775.87 194.35 788.44 195.51 796.00 200.25 C 785.79 198.81 773.76 203.71 770.00 214.07 Z" fill="url(#未命名的渐变_37-4)" fill-rule="nonzero" group-id="1,2,3,12" id="路径-2" node-id="73" stroke="none" target-height="19.919998" target-width="51.940002" target-x="744.06" target-y="194.19"></path><path d="M 735.24 179.63 L 735.24 179.57 C 731.54 169.14 719.51 164.25 709.24 165.75 C 716.82 161.04 729.32 159.75 735.24 167.01 L 735.24 167.07 C 741.11 159.92 753.67 161.07 761.24 165.82 C 751.02 164.37 739.00 169.27 735.24 179.63 Z" fill="url(#未命名的渐变_37-5)" fill-rule="nonzero" group-id="1,2,3,12" id="路径-3" node-id="74" stroke="none" target-height="19.880005" target-width="52" target-x="709.24" target-y="159.75"></path><path d="M 840.72 220.07 L 840.72 220.07 C 838.16 212.84 829.82 209.44 822.72 210.49 C 827.97 207.23 836.63 206.35 840.72 211.36 L 840.72 211.36 C 844.80 206.36 853.50 207.23 858.72 210.49 C 851.63 209.49 843.29 212.89 840.72 220.07 Z" fill="url(#未命名的渐变_37-6)" fill-rule="nonzero" group-id="1,2,3,12" id="路径-4" node-id="75" stroke="none" target-height="13.720001" target-width="36" target-x="822.72" target-y="206.35"></path><path d="M 112.40 807.52 C 115.30 785.31 107.83 773.34 90.00 771.63 C 114.14 769.33 130.12 784.02 130.38 807.52 C 125.38 807.69 119.39 807.69 112.40 807.52 Z" fill="url(#未命名的渐变_37-7)" fill-rule="nonzero" group-id="1,2,3,13" id="路径-38" node-id="77" stroke="none" target-height="38.359985" target-width="40.380005" target-x="90" target-y="769.33"></path><path d="M 124.12 807.65 C 128.83 785.22 123.04 768.67 106.73 758.00 C 127.55 764.57 142.51 774.44 147.37 807.65 C 139.63 808.12 131.86 808.12 124.12 807.65 Z" fill="url(#未命名的渐变_37-8)" fill-rule="nonzero" group-id="1,2,3,13" id="路径-39" node-id="78" stroke="none" target-height="50.119995" target-width="40.63999" target-x="106.73" target-y="758"></path><path d="M 151.07 808.00 C 148.98 786.70 156.63 774.50 174.00 771.39 C 157.89 770.99 139.91 769.91 127.05 808.00 C 137.95 807.65 145.96 807.65 151.07 808.00 Z" fill="url(#未命名的渐变_37-9)" fill-rule="nonzero" group-id="1,2,3,13" id="路径-40" node-id="79" stroke="none" target-height="38.090027" target-width="46.949997" target-x="127.05" target-y="769.91"></path><path d="M 101.41 822.00 C 118.26 822.00 131.00 822.41 131.00 806.61 C 131.00 790.81 117.34 778.00 100.50 778.00 C 83.66 778.00 70.00 790.81 70.00 806.61 C 70.00 822.41 84.57 822.00 101.41 822.00 Z" fill="url(#未命名的渐变_37-10)" fill-rule="nonzero" group-id="1,2,3,13" id="椭圆形" node-id="80" stroke="none" target-height="44.409973" target-width="61" target-x="70" target-y="778"></path><path d="M 134.57 822.00 C 145.06 822.00 153.00 822.25 153.00 812.56 C 153.00 802.87 144.49 795.00 134.00 795.00 C 123.51 795.00 115.00 802.86 115.00 812.56 C 115.00 822.26 124.07 822.00 134.57 822.00 Z" fill="url(#未命名的渐变_37-11)" fill-rule="nonzero" group-id="1,2,3,13" id="椭圆形备份-6" node-id="81" stroke="none" target-height="27.26001" target-width="38" target-x="115" target-y="795"></path></g><path d="M 284.64 779.80 L 284.64 697.91 L 311.86 697.91 L 311.86 655.69 L 284.64 655.69 L 284.64 452.69 L 239.84 452.69 L 239.84 655.69 L 177.25 655.69 C 172.24 655.69 168.17 654.47 165.03 652.04 C 160.88 648.61 158.81 644.61 158.81 640.04 C 158.99 636.68 159.35 633.33 159.88 630.00 L 159.88 630.00 L 186.88 452.72 L 142.52 452.72 L 112.52 645.22 C 112.09 648.06 111.87 650.93 111.87 653.80 C 111.87 663.23 113.73 670.88 117.45 676.73 C 126.45 690.88 138.53 697.95 153.68 697.95 L 239.85 697.95 L 239.85 779.80 Z" fill="url(#未命名的渐变_37-12)" fill-rule="nonzero" group-id="1,2" id="_4" node-id="82" stroke="none" target-height="327.11" target-width="199.98999" target-x="111.87" target-y="452.69"></path><path d="M 463.68 718.30 C 469.40 719.83 476.34 719.89 484.50 718.47 C 490.82 717.50 496.92 715.39 502.50 712.26 C 514.72 705.17 523.37 692.17 528.44 673.26 L 528.44 673.26 L 583.63 467.40 C 587.81 452.61 586.64 436.82 580.33 422.80 C 574.16 408.98 561.30 399.45 541.77 394.22 L 541.77 394.22 L 458.87 372.00 C 444.64 368.19 430.91 370.29 417.69 378.32 C 404.26 386.59 395.14 399.69 390.33 417.64 L 390.33 417.64 L 335.40 622.64 C 330.73 640.02 332.17 655.05 339.70 667.73 C 347.97 681.52 360.55 690.67 377.44 695.20 L 377.44 695.20 Z M 459.00 672.50 L 397.25 656.00 C 383.20 652.23 378.15 642.96 382.10 628.20 L 382.10 628.20 L 435.40 429.31 C 436.57 424.70 439.64 420.80 443.86 418.59 C 447.86 416.52 452.78 416.27 458.61 417.84 L 458.61 417.84 L 526.61 436.07 C 538.72 439.31 542.99 447.62 539.40 460.99 L 539.40 460.99 L 487.10 656.29 C 484.94 664.37 482.04 669.64 478.39 672.09 C 474.26 674.70 467.80 674.83 459.00 672.50 Z" fill="url(#未命名的渐变_37-13)" fill-rule="nonzero" group-id="1,2" id="_0" node-id="83" stroke="none" target-height="351.7" target-width="257.08" target-x="330.73" target-y="368.19"></path><path d="M 764.64 779.80 L 764.64 697.91 L 791.86 697.91 L 791.86 655.69 L 764.64 655.69 L 764.64 452.69 L 719.84 452.69 L 719.84 655.69 L 657.25 655.69 C 652.24 655.69 648.17 654.47 645.03 652.04 C 640.88 648.61 638.81 644.61 638.81 640.04 C 638.99 636.68 639.35 633.33 639.88 630.00 L 639.88 630.00 L 666.88 452.72 L 622.52 452.72 L 592.52 645.22 C 592.09 648.06 591.87 650.93 591.87 653.80 C 591.87 663.23 593.73 670.88 597.45 676.73 C 606.45 690.88 618.53 697.95 633.68 697.95 L 719.85 697.95 L 719.85 779.80 Z" fill="url(#未命名的渐变_37-14)" fill-rule="nonzero" group-id="1,2" id="_4-2" node-id="84" stroke="none" target-height="327.11" target-width="199.98999" target-x="591.87" target-y="452.69"></path><path d="M 219.00 776.34 C 217.32 768.70 212.42 763.37 204.29 760.34 C 195.01 757.34 189.92 753.81 195.73 751.24 C 200.63 750.85 211.09 747.03 219.00 769.84 C 219.55 771.97 219.55 774.21 219.00 776.34 Z" fill="url(#未命名的渐变_37-15)" fill-rule="nonzero" group-id="1,2,4" id="路径-43" node-id="86" stroke="none" target-height="29.309998" target-width="29.630005" target-x="189.92" target-y="747.03"></path><path d="M 219.38 777.55 C 214.46 759.31 208.91 745.99 202.72 737.60 C 198.16 731.86 198.48 723.60 202.72 721.79 C 207.07 721.31 215.07 720.56 221.10 752.00 C 221.49 754.17 223.61 766.82 221.10 775.00 C 220.80 776.01 220.20 776.90 219.38 777.55 Z" fill="url(#未命名的渐变_37-16)" fill-rule="nonzero" group-id="1,2,4" id="路径-44" node-id="87" stroke="none" target-height="56.98999" target-width="25.449997" target-x="198.16" target-y="720.56"></path><path d="M 220.51 773.43 C 222.72 765.27 222.43 754.62 219.66 741.48 C 215.42 728.74 208.19 713.07 221.38 712.71 C 226.73 713.44 233.19 719.05 230.75 747.01 C 229.26 758.29 226.67 764.95 223.96 773.43 C 222.87 773.96 221.60 773.96 220.51 773.43 Z" fill="url(#未命名的渐变_37-17)" fill-rule="nonzero" group-id="1,2,4" id="路径-45" node-id="88" stroke="none" target-height="61.25" target-width="25" target-x="208.19" target-y="712.71"></path><path d="M 223.09 776.60 C 222.20 753.52 226.42 736.96 235.76 726.91 C 238.28 723.55 247.87 720.41 247.84 730.91 C 246.84 735.44 244.69 745.10 232.34 759.84 C 228.27 765.16 225.60 772.94 225.57 774.76 C 225.55 776.00 224.73 776.60 223.09 776.60 Z" fill="url(#未命名的渐变_37-18)" fill-rule="nonzero" group-id="1,2,4" id="路径-46" node-id="89" stroke="none" target-height="56.190002" target-width="25.669998" target-x="222.2" target-y="720.41"></path><path d="M 175.06 779.65 C 184.30 777.93 189.40 776.47 190.35 775.26 C 191.78 773.46 204.35 765.72 212.20 772.26 C 213.91 770.07 219.38 768.36 222.52 772.26 C 223.95 766.10 232.89 762.16 236.78 762.80 C 241.16 762.45 254.09 762.60 255.06 779.67 C 251.53 779.74 224.87 779.73 175.06 779.65 Z" fill="url(#未命名的渐变_37-19)" fill-rule="nonzero" group-id="1,2,4" id="路径-47" node-id="90" stroke="none" target-height="17.580017" target-width="80" target-x="175.06" target-y="762.16"></path><path d="M 272.08 821.50 C 294.41 828.50 285.52 832.68 278.08 836.79 C 264.44 844.33 270.57 850.93 277.50 857.00 C 287.77 866.00 364.43 887.63 447.55 869.22 C 525.06 852.06 513.38 821.22 493.46 807.22 C 477.43 796.00 407.50 770.49 327.54 776.00 C 279.42 779.30 258.76 787.56 254.75 793.93 C 248.11 804.47 247.21 813.71 272.08 821.50 Z" fill="url(#未命名的渐变_21)" fill-opacity="0.4" fill-rule="nonzero" group-id="1,2,5" id="路径-5" node-id="91" stroke="none" target-height="117.140015" target-width="277.84998" target-x="247.21" target-y="770.49"></path><path d="M 320.22 794.51 C 316.67 797.77 314.15 798.51 313.42 801.25 C 312.69 803.99 315.34 810.25 318.61 811.65 C 322.76 813.37 330.11 815.88 332.17 816.65 C 334.23 817.42 348.47 822.21 352.30 819.31 C 356.13 816.41 352.30 809.81 343.94 805.31 C 335.58 800.81 323.11 795.31 323.11 795.31 Z" fill="#333333" fill-rule="nonzero" group-id="1,2,6" id="路径-6" node-id="93" stroke="none" target-height="27.700012" target-width="43.440002" target-x="312.69" target-y="794.51"></path><path d="M 398.31 739.68 C 398.31 744.49 397.11 746.85 398.60 749.24 C 400.09 751.63 406.52 754.00 409.75 752.53 C 413.84 750.67 420.69 747.01 422.64 746.02 C 424.59 745.03 437.82 737.89 438.31 733.11 C 438.80 728.33 431.31 726.65 422.37 729.67 C 413.43 732.69 400.86 738.09 400.86 738.09 Z" fill="#333333" fill-rule="nonzero" group-id="1,2,6" id="路径-7" node-id="94" stroke="none" target-height="27.349976" target-width="41.690002" target-x="397.11" target-y="726.65"></path><path d="M 411.00 734.20 C 411.77 689.30 404.00 655.39 394.00 649.08 C 381.59 634.76 359.14 628.82 359.14 628.82 L 318.00 649.08 C 318.00 649.08 355.54 665.31 379.21 681.57 C 381.07 697.49 382.06 700.18 386.44 712.67 C 391.90 728.19 397.10 734.57 398.64 739.00 C 400.18 743.43 411.85 739.87 411.00 734.20 Z" fill="url(#未命名的渐变_23)" fill-rule="nonzero" group-id="1,2,6" id="路径-8" node-id="95" stroke="none" target-height="114.609985" target-width="93.850006" target-x="318" target-y="628.82"></path><path d="M 350.00 658.30 C 351.43 688.67 348.34 701.79 346.26 725.00 C 344.18 748.21 333.70 786.11 331.00 799.55 C 329.19 808.69 314.34 803.04 315.11 795.00 C 315.88 786.96 316.28 739.00 314.56 725.06 C 312.84 711.12 310.00 640.54 310.00 640.54 L 347.77 635.83 Z" fill="url(#未命名的渐变_23-2)" fill-rule="nonzero" group-id="1,2,6" id="路径-9" node-id="96" stroke="none" target-height="172.85999" target-width="41.429993" target-x="310" target-y="635.83"></path><path d="M 325.79 502.08 C 329.34 502.43 332.63 504.12 334.98 506.81 C 335.69 507.59 336.29 508.46 336.76 509.40 L 336.85 509.58 L 336.75 509.09 C 337.87 509.41 338.35 511.39 338.39 513.80 L 338.39 514.00 C 341.10 513.26 343.04 521.54 337.14 521.76 C 336.96 522.25 336.73 522.72 336.45 523.15 C 334.96 525.32 333.33 528.15 331.02 529.78 L 331.02 535.86 L 319.00 536.00 L 319.00 528.86 C 318.01 528.05 317.17 527.07 316.52 525.96 C 315.64 524.63 314.91 523.21 314.34 521.73 L 314.58 521.73 C 307.58 522.22 309.90 512.57 312.87 514.09 C 312.87 513.77 312.87 513.44 312.87 513.09 C 313.15 510.41 314.24 507.87 316.00 505.82 C 318.43 503.02 322.11 501.61 325.79 502.08 Z" fill="#ebb0b0" fill-rule="nonzero" group-id="1,2,6" id="形状结合-4" node-id="97" stroke="none" target-height="34.390015" target-width="35.460022" target-x="307.58" target-y="501.61"></path><path d="M 337.61 515.00 C 341.74 511.08 343.24 498.00 335.42 494.66 C 334.54 493.61 332.68 493.34 330.18 493.30 C 328.37 493.25 328.18 493.93 327.24 493.77 C 326.30 493.61 324.95 491.46 321.42 491.03 C 319.51 490.77 313.74 492.17 312.49 493.77 C 308.96 496.74 306.69 500.93 306.12 505.51 C 305.38 511.05 308.29 513.80 310.71 518.00 C 312.95 516.61 313.49 513.41 315.07 511.33 C 317.28 508.79 320.04 506.80 323.15 505.51 C 329.85 504.51 333.06 504.51 336.08 510.51 Z" fill="#131322" fill-rule="nonzero" group-id="1,2,6" id="路径-10" node-id="98" stroke="none" target-height="27.230011" target-width="37.859985" target-x="305.38" target-y="490.77"></path><path d="M 346.53 447.33 C 345.02 443.24 344.39 438.87 344.67 434.52 C 345.78 431.72 346.45 432.66 346.29 434.27 C 347.29 433.01 351.23 427.07 358.88 434.36 C 360.26 438.17 360.88 446.27 356.00 450.83 C 352.85 453.02 349.70 451.86 346.53 447.33 Z" fill="#efba9e" fill-rule="nonzero" group-id="1,2,6" id="路径-109" node-id="99" stroke="none" target-height="25.949982" target-width="16.48999" target-x="344.39" target-y="427.07"></path><path d="M 328.00 539.39 C 328.00 539.39 347.00 513.92 346.21 449.73 C 347.77 439.73 356.04 440.94 360.52 443.06 C 360.52 443.06 376.00 539.00 361.00 553.00" fill="url(#未命名的渐变_25)" fill-rule="nonzero" group-id="1,2,6" id="路径-11" node-id="100" stroke="none" target-height="113.26999" target-width="48" target-x="328" target-y="439.73"></path><path d="M 318.19 531.00 C 324.78 534.33 329.06 534.44 331.04 531.31 C 333.83 531.41 352.04 529.68 361.04 545.59 C 366.75 562.76 371.04 604.16 366.04 624.94 C 361.04 648.00 334.87 650.51 309.04 648.22 C 298.37 635.43 282.33 581.55 288.04 561.00 C 292.19 546.56 302.24 536.56 318.19 531.00 Z" fill="url(#未命名的渐变_25-2)" fill-rule="nonzero" group-id="1,2,6" id="路径-2-2" node-id="101" stroke="none" target-height="120.83002" target-width="88.71002" target-x="282.33" target-y="529.68"></path><path d="M 358.00 581.00 L 354.00 579.20 C 351.48 578.09 349.73 575.73 349.40 573.00 L 345.48 540.92 C 345.31 539.31 346.45 537.86 348.05 537.64 C 348.34 537.60 348.62 537.60 348.91 537.64 C 351.23 538.04 353.02 539.92 353.30 542.26 L 358.00 581.00 Z" fill="url(#未命名的渐变_37-20)" fill-rule="nonzero" group-id="1,2,6" id="路径-12" node-id="102" stroke="none" target-height="43.400024" target-width="12.690002" target-x="345.31" target-y="537.6"></path><path d="M 340.86 561.55 C 341.83 557.30 343.67 553.29 346.28 549.79 C 348.74 548.05 348.79 549.20 347.78 550.46 C 349.26 549.93 355.84 547.12 358.29 557.39 C 357.37 561.39 353.46 568.46 346.90 569.64 C 343.07 569.76 341.06 567.06 340.86 561.55 Z" fill="#efba9e" fill-rule="nonzero" group-id="1,2,6" id="路径-109-2" node-id="103" stroke="none" target-height="22.640015" target-width="17.430023" target-x="340.86" target-y="547.12"></path><path d="M 301.22 553.30 C 301.22 553.30 318.00 558.00 315.87 594.74 L 342.00 560.38 C 352.00 563.46 348.60 572.79 347.00 579.02 L 330.00 616.24 C 323.50 627.46 313.41 624.76 309.00 623.92 C 304.59 623.08 299.13 617.92 297.43 613.70 C 289.43 602.03 284.84 589.54 284.95 568.70 C 284.92 568.74 285.06 548.55 301.22 553.30 Z" fill="url(#未命名的渐变_27)" fill-rule="nonzero" group-id="1,2,6" id="路径-13" node-id="104" stroke="none" target-height="78.910034" target-width="67.16" target-x="284.84" target-y="548.55"></path><path d="M 366.41 507.00 L 354.87 526.16 L 343.74 533.00 C 342.70 535.28 342.94 537.94 344.36 540.00 C 346.22 542.27 348.90 542.47 349.31 542.68 C 353.16 540.89 356.94 539.04 360.64 537.12 L 381.46 536.91 Z" fill="url(#未命名的渐变_37-21)" fill-rule="nonzero" group-id="1,2,6" id="_Path_" node-id="105" stroke="none" target-height="35.679993" target-width="38.75998" target-x="342.7" target-y="507"></path><path d="M 366.41 507.00 C 362.91 508.85 363.32 518.54 366.83 525.54 C 370.33 532.35 377.96 538.73 381.46 536.88 C 384.96 535.03 384.14 525.96 381.46 519.77 C 377.96 512.15 369.92 505.14 366.46 507.00 Z" fill="#98d6fa" fill-rule="nonzero" group-id="1,2,6,14,15" id="path-26-2" node-id="108" stroke="none" target-height="33.589966" target-width="22.049988" target-x="362.91" target-y="505.14"></path><path d="M 361.51 524.71 L 368.57 520.96 C 370.52 519.92 372.94 520.66 373.98 522.61 L 373.98 522.61 C 375.02 524.56 374.28 526.98 372.33 528.02 L 365.27 531.78 C 364.33 532.28 363.24 532.38 362.22 532.07 C 361.21 531.76 360.36 531.06 359.86 530.12 L 359.86 530.12 C 358.82 528.17 359.56 525.75 361.51 524.71 Z" fill="#ffffff" fill-rule="evenodd" group-id="1,2,6,14,16" node-id="435" stroke="none" target-height="12.460022" target-width="16.199982" target-x="358.82" target-y="519.92"></path><path d="M 377.74 509.38 L 382.26 500.87 L 384.52 504.91 L 395.12 495.25 L 383.28 508.24 L 382.10 504.99 L 377.74 509.38 Z" fill="#ffffff" fill-rule="evenodd" group-id="1,2,6" id="路径-110" node-id="111" stroke="none" target-height="14.130005" target-width="17.380005" target-x="377.74" target-y="495.25"></path><path d="M 385.26 523.11 L 393.84 518.74 L 393.38 523.35 L 407.60 521.52 L 390.45 525.36 L 391.35 522.02 L 385.26 523.11 Z" fill="#ffffff" fill-rule="evenodd" group-id="1,2,6" id="路径-110-2" node-id="112" stroke="none" target-height="6.619995" target-width="22.339996" target-x="385.26" target-y="518.74"></path><path d="M 959.13 676.24 C 991.80 661.57 1006.46 668.79 1003.13 697.88 C 1001.23 706.91 997.82 712.55 992.89 714.80 C 980.05 730.44 973.26 742.98 972.52 752.41 C 971.41 766.55 960.41 782.58 932.85 773.41 C 914.49 767.30 901.88 777.52 895.02 804.09 C 874.34 831.54 837.98 842.51 785.93 837.00 C 733.88 831.49 737.19 807.49 795.86 765.00 C 811.81 758.71 823.98 754.82 832.39 753.33 C 840.80 751.84 844.92 742.67 844.76 725.82 C 844.76 715.27 852.40 707.57 867.68 702.71 C 882.96 697.85 889.36 690.14 886.88 679.57 C 897.03 664.62 909.15 662.49 923.22 673.17 C 937.29 683.85 949.26 684.87 959.13 676.24 Z" fill="url(#未命名的渐变_37-22)" fill-rule="nonzero" group-id="1,2,7" id="路径-61" node-id="114" stroke="none" target-height="180.94" target-width="272.58002" target-x="733.88" target-y="661.57"></path><path d="M 960.66 691.35 L 912.39 723.57 C 914.85 710.66 917.79 700.19 921.21 692.17 C 926.28 680.30 910.62 711.96 910.41 724.89 L 870.17 751.75 L 870.28 751.60 C 869.17 734.31 869.62 722.24 871.62 715.39 C 868.93 718.99 866.06 744.77 867.62 753.39 L 830.62 778.10 L 830.96 777.68 C 830.96 777.68 829.05 763.41 830.74 756.21 C 829.07 758.21 827.95 773.21 828.44 779.55 L 797.91 800.00 L 801.78 803.87 L 833.32 781.54 C 841.84 786.54 853.53 787.33 859.18 786.81 C 848.73 785.85 841.10 783.45 836.28 779.61 C 835.51 780.24 834.67 780.77 833.78 781.21 L 922.60 718.30 C 922.40 718.52 922.22 718.75 922.04 718.98 C 935.20 720.84 947.01 720.05 957.48 716.60 C 956.64 714.93 942.73 721.44 924.37 717.05 Z M 919.33 768.21 C 908.79 768.51 895.07 762.42 878.16 749.94 C 877.47 750.72 876.73 751.46 875.94 752.15 C 891.91 764.77 909.06 769.74 919.33 768.21 Z" fill="url(#未命名的渐变_34)" fill-rule="nonzero" group-id="1,2,7" id="形状结合-5" node-id="115" stroke="none" target-height="123.57001" target-width="162.75" target-x="797.91" target-y="680.3"></path><path d="M 923.73 607.12 C 955.90 585.23 970.82 590.74 968.51 623.63 C 962.32 647.20 958.26 662.96 960.29 677.40 C 962.32 691.84 955.98 719.15 923.73 730.40 C 902.23 737.87 896.19 748.47 905.61 762.19 C 910.34 783.27 884.27 798.40 827.39 807.57 C 742.06 821.34 762.39 789.70 784.33 755.41 C 800.20 739.53 802.33 729.83 802.33 717.69 C 802.33 705.55 790.72 685.69 824.09 677.45 C 838.76 674.12 846.44 659.45 847.15 633.45 C 849.45 620.39 863.45 617.12 889.15 623.65 C 900.54 625.84 912.07 620.33 923.73 607.12 Z" fill="url(#未命名的渐变_37-23)" fill-rule="nonzero" group-id="1,2,7" id="路径-65" node-id="116" stroke="none" target-height="236.11005" target-width="228.76001" target-x="742.06" target-y="585.23"></path><path d="M 938.36 624.59 L 902.92 669.59 L 902.85 669.42 C 899.02 660.50 898.19 650.57 900.50 641.14 L 900.58 640.83 L 900.58 640.83 C 898.24 648.10 893.77 656.77 901.19 671.76 L 871.19 709.94 L 871.00 709.67 C 865.00 701.19 862.00 690.04 862.00 676.22 C 860.62 680.51 860.59 700.22 869.16 712.48 L 842.55 746.40 C 840.87 743.79 836.67 736.40 836.67 728.24 C 835.78 733.89 835.72 741.46 840.56 748.92 L 801.30 798.84 L 807.52 798.84 L 845.52 748.29 C 863.90 756.14 874.22 752.85 879.33 750.55 C 869.33 752.99 858.76 751.32 847.61 745.55 L 876.48 707.11 C 876.32 707.41 876.16 707.71 875.98 708.03 C 895.19 714.76 915.13 715.55 924.34 710.76 C 914.48 714.48 898.81 712.63 877.34 705.21 L 877.77 705.36 L 909.94 662.52 C 909.87 662.69 909.81 662.86 909.76 663.03 C 923.89 663.90 935.17 659.41 943.60 649.55 C 942.26 648.25 933.25 661.35 911.45 660.55 Z" fill="url(#未命名的渐变_34-2)" fill-rule="nonzero" group-id="1,2,7" id="形状结合-6" node-id="117" stroke="none" target-height="174.25" target-width="142.29999" target-x="801.3" target-y="624.59"></path><path d="M 814.10 608.59 C 801.68 591.33 790.56 593.08 780.75 613.85 C 775.99 631.79 783.50 643.20 758.93 651.35 C 742.54 656.79 740.06 668.17 751.49 685.50 C 756.26 696.40 752.73 703.37 740.91 706.41 C 729.09 709.45 730.51 721.52 745.18 742.63 C 750.26 754.20 750.26 761.94 745.18 765.83 C 737.55 771.67 722.90 789.18 740.91 823.22 C 758.92 857.26 801.37 830.82 807.73 814.82 C 814.09 798.82 801.37 776.77 807.73 765.82 C 814.09 754.87 851.20 751.11 841.29 718.30 C 833.04 704.88 821.55 701.00 833.08 678.14 C 844.61 655.28 847.54 664.47 833.08 641.95 C 826.77 635.49 820.45 624.37 814.10 608.59 Z" fill="url(#未命名的渐变_37-24)" fill-rule="nonzero" group-id="1,2,7" id="路径-96" node-id="118" stroke="none" target-height="265.93" target-width="128.29999" target-x="722.9" target-y="591.33"></path><path d="M 797.19 638.35 L 785.84 695.26 C 778.45 684.40 773.12 674.92 769.84 666.83 C 765.03 654.83 776.34 688.31 785.34 697.60 L 775.88 745.05 C 775.88 744.99 775.88 744.92 775.88 744.86 C 762.87 733.42 754.66 724.57 751.23 718.31 C 751.87 722.76 768.07 743.01 775.33 748.01 L 766.62 791.66 L 766.62 791.12 C 766.62 791.12 755.18 782.38 751.28 776.12 C 751.53 778.73 761.28 790.07 766.16 794.25 L 758.98 830.25 L 764.45 830.25 L 770.96 792.16 C 780.54 789.69 789.35 781.96 792.96 777.59 C 784.90 784.30 777.81 788.00 771.68 788.70 C 771.58 789.68 771.37 790.65 771.05 791.59 L 789.38 684.32 C 789.39 684.62 789.42 684.91 789.47 685.20 C 800.09 677.20 807.88 668.28 812.84 658.45 C 811.07 657.87 805.84 672.30 789.74 682.18 Z M 822.31 721.92 C 815.07 729.59 801.07 734.99 780.31 738.11 C 780.38 739.16 780.38 740.20 780.31 741.25 C 800.50 738.88 816.13 730.27 822.31 721.92 Z" fill="url(#未命名的渐变_34-3)" fill-rule="nonzero" group-id="1,2,7" id="形状结合-7" node-id="119" stroke="none" target-height="191.90002" target-width="71.08002" target-x="751.23" target-y="638.35"></path><path d="M 138.79 376.81 C 141.81 373.69 145.78 372.89 150.70 374.41 C 150.18 378.35 150.23 381.91 150.70 382.92 C 148.33 383.58 142.03 383.17 138.79 381.17 C 139.23 380.03 140.05 379.07 141.10 378.44 Z" fill="url(#未命名的渐变_37-25)" fill-rule="nonzero" group-id="1,2,8" id="路径-75" node-id="121" stroke="none" target-height="10.689972" target-width="11.910004" target-x="138.79" target-y="372.89"></path><path d="M 213.55 358.10 C 220.44 358.45 222.79 359.70 219.02 362.95 L 217.23 364.52 L 216.92 364.80 L 216.45 365.23 L 216.14 365.53 L 215.98 365.67 L 215.68 365.97 C 213.05 368.52 211.11 371.21 214.50 371.97 L 214.63 372.05 L 214.72 372.11 L 215.28 372.44 L 215.44 372.54 C 216.69 373.37 217.49 374.64 210.21 377.96 C 212.01 378.35 213.81 378.82 215.60 379.37 C 219.81 381.74 226.49 385.51 230.53 387.05 C 227.87 388.62 225.46 390.58 223.38 392.86 L 227.63 392.86 C 200.07 406.98 180.65 406.98 169.37 392.86 C 169.37 392.64 169.28 392.42 169.25 392.20 C 162.63 394.50 155.28 392.26 151.07 386.65 C 146.86 381.04 146.77 373.35 150.84 367.64 C 154.90 361.93 162.19 359.50 168.87 361.64 C 175.55 363.78 180.08 369.99 180.07 377.00 C 180.07 377.71 180.03 378.42 179.94 379.12 C 182.13 378.51 184.36 378.01 186.60 377.62 C 191.63 366.38 200.62 359.87 213.55 358.10 Z" fill="url(#未命名的渐变_37-26)" fill-rule="nonzero" group-id="1,2,8" id="形状结合-8" node-id="122" stroke="none" target-height="48.880005" target-width="83.759995" target-x="146.77" target-y="358.1"></path><path d="M 166.90 375.52 C 166.90 378.75 164.28 381.37 161.05 381.37 C 157.82 381.37 155.20 378.75 155.20 375.52 C 155.20 372.29 157.82 369.67 161.05 369.67 C 164.28 369.67 166.90 372.29 166.90 375.52 Z" fill="#ffffff" fill-rule="nonzero" group-id="1,2,8" id="椭圆形-2" node-id="123" stroke="none" target-height="11.699982" target-width="11.699997" target-x="155.2" target-y="369.67"></path><path d="M 163.98 375.52 C 163.98 377.14 162.67 378.45 161.05 378.45 C 159.43 378.45 158.12 377.14 158.12 375.52 C 158.12 373.90 159.43 372.59 161.05 372.59 C 162.67 372.59 163.98 373.90 163.98 375.52 Z" fill="#000000" fill-rule="nonzero" group-id="1,2,8" id="椭圆形-3" node-id="124" stroke="none" target-height="5.860016" target-width="5.8600006" target-x="158.12" target-y="372.59"></path><path d="M 254.40 391.75 C 257.63 391.74 260.24 389.12 260.24 385.89 C 260.24 382.66 257.62 380.05 254.39 380.05 C 251.16 380.05 248.54 382.67 248.54 385.90 C 248.54 387.45 249.16 388.94 250.26 390.04 C 251.36 391.14 252.85 391.75 254.40 391.75 Z M 283.67 391.75 C 286.90 391.74 289.51 389.12 289.51 385.89 C 289.51 382.66 286.89 380.05 283.66 380.05 C 280.43 380.05 277.81 382.67 277.81 385.90 C 277.81 387.45 278.43 388.94 279.53 390.04 C 280.63 391.14 282.12 391.75 283.67 391.75 Z M 312.93 391.75 C 316.16 391.75 318.78 389.13 318.78 385.90 C 318.78 382.67 316.16 380.05 312.93 380.05 C 309.70 380.05 307.08 382.67 307.08 385.90 C 307.08 389.13 309.70 391.75 312.93 391.75 Z" fill="url(#未命名的渐变_37-27)" fill-rule="nonzero" group-id="1,2,8" id="形状结合-9" node-id="125" stroke="none" target-height="11.700012" target-width="70.240005" target-x="248.54" target-y="380.05"></path></g></g></svg>