<?xml version="1.0" standalone="no"?><!DOCTYPE svg PUBLIC "-//W3C//DTD SVG 1.1//EN" "http://www.w3.org/Graphics/SVG/1.1/DTD/svg11.dtd"><svg height="1024" node-id="1" sillyvg="true" template-height="1024" template-width="1024" version="1.1" viewBox="0 0 1024 1024" width="1024" xmlns="http://www.w3.org/2000/svg" xmlns:xlink="http://www.w3.org/1999/xlink"><defs node-id="163"><linearGradient gradientUnits="objectBoundingBox" id="linearGradient-1" node-id="5" spreadMethod="pad" x1="-0.1358235" x2="0.5" y1="0.5" y2="0.47203198"><stop offset="0" stop-color="#98d6fa"></stop><stop offset="1" stop-color="#47b0f1"></stop></linearGradient><linearGradient gradientUnits="objectBoundingBox" id="linearGradient-2" node-id="8" spreadMethod="pad" x1="-0.0000000000000009337728" x2="1" y1="-0.031055901" y2="-0.031055901"><stop offset="0" stop-color="#fff5de"></stop><stop offset="1" stop-color="#fbd2ac"></stop></linearGradient><linearGradient gradientUnits="objectBoundingBox" id="linearGradient-3" node-id="11" spreadMethod="pad" x1="-0.1358235" x2="0.5" y1="0.5" y2="0.47628444"><stop offset="0" stop-color="#98d6fa"></stop><stop offset="1" stop-color="#47b0f1"></stop></linearGradient><linearGradient gradientUnits="objectBoundingBox" id="linearGradient-4" node-id="14" spreadMethod="pad" x1="-0.1358235" x2="0.5" y1="0.5" y2="0.47629464"><stop offset="0" stop-color="#98d6fa"></stop><stop offset="1" stop-color="#47b0f1"></stop></linearGradient><linearGradient gradientUnits="objectBoundingBox" id="linearGradient-5" node-id="17" spreadMethod="pad" x1="-0.1358235" x2="0.5" y1="0.5" y2="0.47629884"><stop offset="0" stop-color="#98d6fa"></stop><stop offset="1" stop-color="#47b0f1"></stop></linearGradient><linearGradient gradientUnits="objectBoundingBox" id="linearGradient-6" node-id="20" spreadMethod="pad" x1="-0.10614049" x2="0.5" y1="0.8700849" y2="0.30481097"><stop offset="0" stop-color="#98d6fa"></stop><stop offset="1" stop-color="#47b0f1"></stop></linearGradient><linearGradient gradientUnits="objectBoundingBox" id="linearGradient-7" node-id="23" spreadMethod="pad" x1="-0.54080534" x2="0.5" y1="0.8700849" y2="0.30481097"><stop offset="0" stop-color="#98d6fa"></stop><stop offset="1" stop-color="#47b0f1"></stop></linearGradient><linearGradient gradientUnits="objectBoundingBox" id="linearGradient-8" node-id="26" spreadMethod="pad" x1="-0.54080534" x2="0.5" y1="0.83567786" y2="0.32295778"><stop offset="0" stop-color="#98d6fa"></stop><stop offset="1" stop-color="#47b0f1"></stop></linearGradient><linearGradient gradientUnits="objectBoundingBox" id="linearGradient-9" node-id="29" spreadMethod="pad" x1="-0.13582349" x2="0.49999997" y1="0.49999997" y2="0.43423018"><stop offset="0" stop-color="#98d6fa"></stop><stop offset="1" stop-color="#47b0f1"></stop></linearGradient><linearGradient gradientUnits="objectBoundingBox" id="linearGradient-10" node-id="32" spreadMethod="pad" x1="0.4313989" x2="0.6033656" y1="-0.06451612" y2="0"><stop offset="0.031572677" stop-color="#afdef9"></stop><stop offset="1" stop-color="#7cc9f9"></stop></linearGradient><linearGradient gradientUnits="objectBoundingBox" id="linearGradient-11" node-id="35" spreadMethod="pad" x1="0.05920258" x2="0.5996637" y1="0.60857147" y2="0.3705422"><stop offset="0" stop-color="#98d6fa"></stop><stop offset="1" stop-color="#47b0f1"></stop></linearGradient><linearGradient gradientUnits="objectBoundingBox" id="linearGradient-12" node-id="38" spreadMethod="pad" x1="0.44492638" x2="0.58298296" y1="-0.06451613" y2="0"><stop offset="0.031572677" stop-color="#afdef9"></stop><stop offset="1" stop-color="#7cc9f9"></stop></linearGradient><linearGradient gradientUnits="objectBoundingBox" id="linearGradient-13" node-id="41" spreadMethod="pad" x1="0.28403884" x2="0.5" y1="0.8700849" y2="0.30481097"><stop offset="0" stop-color="#98d6fa"></stop><stop offset="1" stop-color="#47b0f1"></stop></linearGradient><linearGradient gradientUnits="objectBoundingBox" id="linearGradient-14" node-id="44" spreadMethod="pad" x1="0.8017669" x2="0.40161258" y1="0.7812446" y2="0.012035674"><stop offset="0" stop-color="#98d6fa"></stop><stop offset="1" stop-color="#47b0f1"></stop></linearGradient><linearGradient gradientUnits="objectBoundingBox" id="linearGradient-15" node-id="47" spreadMethod="pad" x1="0.1696366" x2="0.73110634" y1="0.776033" y2="0.27310416"><stop offset="0" stop-color="#98d6fa"></stop><stop offset="1" stop-color="#47b0f1"></stop></linearGradient><linearGradient gradientUnits="objectBoundingBox" id="linearGradient-17" node-id="53" spreadMethod="pad" x1="0" x2="0.84977597" y1="0.6436173" y2="0.3819483"><stop offset="0" stop-color="#98d6fa"></stop><stop offset="1" stop-color="#47b0f1"></stop></linearGradient><linearGradient gradientUnits="objectBoundingBox" id="linearGradient-18" node-id="56" spreadMethod="pad" x1="0" x2="0.84977597" y1="0.63935465" y2="0.38545215"><stop offset="0" stop-color="#98d6fa"></stop><stop offset="1" stop-color="#47b0f1"></stop></linearGradient><linearGradient gradientUnits="objectBoundingBox" id="linearGradient-19" node-id="59" spreadMethod="pad" x1="0.22355923" x2="0.5" y1="-0.089142084" y2="0.77381057"><stop offset="0" stop-color="#98d6fa"></stop><stop offset="1" stop-color="#47b0f1"></stop></linearGradient><linearGradient gradientUnits="objectBoundingBox" id="linearGradient-20" node-id="62" spreadMethod="pad" x1="0.4536279" x2="0.5" y1="-0.11452465" y2="0.7856074"><stop offset="0" stop-color="#98d6fa"></stop><stop offset="1" stop-color="#47b0f1"></stop></linearGradient><linearGradient gradientUnits="objectBoundingBox" id="linearGradient-21" node-id="65" spreadMethod="pad" x1="0.47746408" x2="0.5" y1="-0.11452465" y2="0.7856074"><stop offset="0" stop-color="#98d6fa"></stop><stop offset="1" stop-color="#47b0f1"></stop></linearGradient><linearGradient gradientUnits="objectBoundingBox" id="linearGradient-22" node-id="68" spreadMethod="pad" x1="0.4389308" x2="0.5" y1="-0.11452465" y2="0.7856074"><stop offset="0" stop-color="#98d6fa"></stop><stop offset="1" stop-color="#47b0f1"></stop></linearGradient><linearGradient gradientUnits="objectBoundingBox" id="linearGradient-23" node-id="71" spreadMethod="pad" x1="0" x2="1.1322753" y1="0.776033" y2="0.776033"><stop offset="0" stop-color="#98d6fa"></stop><stop offset="1" stop-color="#47b0f1"></stop></linearGradient><linearGradient gradientUnits="objectBoundingBox" id="linearGradient-24" node-id="74" spreadMethod="pad" x1="0.13965733" x2="0.875197" y1="0.07491416" y2="1.0750235"><stop offset="0" stop-color="#ffb859"></stop><stop offset="1" stop-color="#f97b61"></stop></linearGradient><linearGradient gradientUnits="objectBoundingBox" id="linearGradient-25" node-id="77" spreadMethod="pad" x1="0.020751635" x2="0.5" y1="0.8700849" y2="0.30481097"><stop offset="0" stop-color="#98d6fa"></stop><stop offset="1" stop-color="#47b0f1"></stop></linearGradient><linearGradient gradientUnits="objectBoundingBox" id="linearGradient-26" node-id="80" spreadMethod="pad" x1="1" x2="0.0058146594" y1="-0.029698754" y2="-0.029698754"><stop offset="0" stop-color="#f97b61"></stop><stop offset="1" stop-color="#ffb859"></stop></linearGradient><linearGradient gradientUnits="objectBoundingBox" id="linearGradient-27" node-id="83" spreadMethod="pad" x1="1" x2="0.0058146594" y1="-0.029698754" y2="-0.029698754"><stop offset="0" stop-color="#f97b61"></stop><stop offset="1" stop-color="#ffb859"></stop></linearGradient><linearGradient gradientUnits="objectBoundingBox" id="linearGradient-28" node-id="86" spreadMethod="pad" x1="0" x2="0.9941853" y1="-0.029698754" y2="-0.029698754"><stop offset="0" stop-color="#ffb859"></stop><stop offset="1" stop-color="#f97b61"></stop></linearGradient><linearGradient gradientUnits="objectBoundingBox" id="linearGradient-29" node-id="89" spreadMethod="pad" x1="0" x2="0.9941853" y1="-0.029698754" y2="-0.029698754"><stop offset="0" stop-color="#ffb859"></stop><stop offset="1" stop-color="#f97b61"></stop></linearGradient><linearGradient gradientUnits="objectBoundingBox" id="linearGradient-30" node-id="92" spreadMethod="pad" x1="0.86275023" x2="-0.000000000000027057475" y1="-0.028050492" y2="-0.028050492"><stop offset="0" stop-color="#1d181c"></stop><stop offset="0.3" stop-color="#2c2422"></stop><stop offset="0.5" stop-color="#42352c"></stop><stop offset="0.7" stop-color="#57352c"></stop><stop offset="1" stop-color="#923629"></stop></linearGradient><linearGradient gradientUnits="objectBoundingBox" id="linearGradient-31" node-id="98" spreadMethod="pad" x1="0.13724977" x2="1" y1="-0.028050492" y2="-0.028050492"><stop offset="0" stop-color="#1d181c"></stop><stop offset="0.3" stop-color="#2c2422"></stop><stop offset="0.5" stop-color="#42352c"></stop><stop offset="0.7" stop-color="#57352c"></stop><stop offset="1" stop-color="#923629"></stop></linearGradient><linearGradient gradientUnits="objectBoundingBox" id="linearGradient-32" node-id="104" spreadMethod="pad" x1="-0.47868195" x2="0.5" y1="0.8700849" y2="0.30481097"><stop offset="0" stop-color="#98d6fa"></stop><stop offset="1" stop-color="#47b0f1"></stop></linearGradient><linearGradient gradientUnits="objectBoundingBox" id="linearGradient-33" node-id="107" spreadMethod="pad" x1="-0.3740159" x2="0.8999568" y1="0.4695942" y2="0.5128999"><stop offset="0" stop-color="#98d6fa"></stop><stop offset="1" stop-color="#47b0f1"></stop></linearGradient></defs><g node-id="368"><path d="M 0.00 0.00 L 1024.00 0.00 L 1024.00 1024.00 L 0.00 1024.00 Z" fill="#ffffff" fill-opacity="0" fill-rule="evenodd" group-id="1" id="矩形" node-id="111" stroke="none" target-height="1024" target-width="1024" target-x="0" target-y="0"></path></g><g node-id="369"><g node-id="375"><path d="M 76.80 581.77 L 73.83 568.49 L 71.97 559.38 L 69.82 547.84 L 67.80 535.55 L 65.82 521.45 L 64.17 506.83 L 62.88 491.00 L 62.32 480.31 L 62.04 469.36 L 62.05 458.15 L 62.42 446.95 L 63.20 435.75 L 64.39 424.55 L 66.06 413.42 L 68.25 402.53 L 70.95 391.87 L 73.38 383.98 L 76.16 376.33 L 79.29 368.94 L 82.78 361.77 L 86.68 354.81 L 91.00 348.19 L 95.75 341.89 L 100.92 335.90 L 106.51 330.33 L 112.60 325.15 L 119.24 320.35 L 126.45 315.93 L 132.34 312.86 L 138.66 310.07 L 145.42 307.58 L 152.66 305.39 L 160.40 303.51 L 178.10 300.08 L 194.86 297.29 L 210.72 295.10 L 226.66 293.29 L 241.76 291.87 L 256.05 290.83 L 277.25 289.66 L 296.81 288.85 L 315.85 288.13 L 333.44 287.30 L 344.99 286.55 L 355.96 285.55 L 366.35 284.30 L 376.69 282.65 L 386.56 280.55 L 395.98 278.01 L 402.93 275.71 L 409.70 273.04 L 416.31 269.98 L 422.76 266.54 L 428.94 262.74 L 435.06 258.41 L 441.11 253.52 L 447.10 248.05 L 456.03 239.55 L 464.00 232.33 L 471.08 226.27 L 478.37 220.45 L 484.92 215.65 L 490.79 211.76 L 496.88 208.19 L 502.50 205.35 L 507.67 203.18 L 513.00 201.39 L 518.16 200.08 L 523.16 199.21 L 528.22 198.69 L 533.39 198.46 L 538.68 198.51 L 546.76 198.96 L 555.68 199.75 L 575.59 201.60 L 582.89 201.85 L 590.28 201.53 L 597.79 200.63 L 605.24 199.25 L 612.69 197.44 L 620.16 195.20 L 627.52 192.63 L 634.75 189.78 L 641.86 186.68 L 652.27 181.65 L 662.07 176.43 L 671.50 171.00 L 679.96 165.81 L 694.70 156.20 L 705.47 148.96 L 708.73 147.00 L 714.62 143.93 L 721.41 140.81 L 730.35 137.21 L 736.61 134.98 L 743.59 132.79 L 751.34 130.64 L 759.13 128.82 L 767.44 127.29 L 776.27 126.05 L 785.14 125.28 L 794.32 125.01 L 803.83 125.28 L 810.91 125.87 L 818.07 126.88 L 825.33 128.30 L 832.69 130.15 L 839.85 132.42 L 847.04 135.22 L 854.26 138.58 L 861.53 142.51 L 868.42 146.86 L 875.30 151.89 L 882.17 157.65 L 889.04 164.20 L 894.08 169.58 L 899.09 175.53 L 904.07 182.06 L 909.00 189.21 L 913.89 197.03 L 918.24 204.72 L 922.51 213.10 L 926.70 222.22 L 930.79 232.13 L 934.77 242.86 L 938.20 253.22 L 941.49 264.41 L 944.62 276.49 L 947.58 289.51 L 950.35 303.51 L 951.86 326.93 L 953.22 350.50 L 954.29 374.03 L 954.96 397.17 L 955.14 412.56 L 955.02 427.53 L 954.62 442.08 L 953.86 456.63 L 952.72 470.53 L 951.21 483.79 L 949.74 493.77 L 948.00 503.26 L 946.01 512.28 L 943.77 520.85 L 941.11 529.43 L 938.14 537.43 L 934.87 544.88 L 931.33 551.81 L 928.10 557.25 L 924.65 562.30 L 920.97 566.96 L 917.06 571.27 L 912.91 575.24 L 907.58 580.33 L 903.24 585.14 L 899.78 589.70 L 897.11 594.04 L 894.81 598.79 L 893.19 603.30 L 892.20 607.60 L 891.78 611.74 L 891.86 615.97 L 892.40 620.04 L 893.40 623.97 L 894.87 627.79 L 896.71 631.46 L 898.90 634.98 L 901.43 638.38 L 904.32 641.65 L 908.53 645.67 L 913.11 649.38 L 918.09 652.77 L 923.32 655.79 L 928.66 658.40 L 934.12 660.61 L 939.72 662.43 L 945.12 663.75 L 950.35 664.62 L 953.51 665.26 L 956.01 666.20 L 957.99 667.41 L 959.51 668.87 L 960.66 670.60 L 961.58 673.06 L 961.99 675.94 L 961.82 679.34 L 960.97 683.39 L 959.71 687.14 L 957.90 691.28 L 955.47 695.88 L 952.32 700.96 L 947.83 707.28 L 942.35 714.05 L 935.76 721.31 L 928.84 728.20 L 921.05 735.24 L 912.32 742.43 L 903.29 749.20 L 893.54 755.83 L 883.04 762.30 L 874.99 766.81 L 866.64 771.08 L 857.96 775.11 L 848.95 778.90 L 843.66 781.07 L 836.30 783.68 L 826.40 786.78 L 810.77 791.14 L 790.68 796.12 L 769.11 800.94 L 743.83 806.04 L 717.35 810.87 L 687.89 815.68 L 657.52 820.08 L 624.90 824.17 L 602.89 826.57 L 580.23 828.73 L 556.89 830.63 L 533.55 832.18 L 509.89 833.37 L 485.91 834.19 L 461.93 834.59 L 437.96 834.52 L 413.99 833.98 L 390.06 832.93 L 366.45 831.31 L 343.18 829.14 L 325.71 827.08 L 308.62 824.67 L 291.88 821.90 L 275.50 818.78 L 259.09 815.19 L 243.22 811.19 L 227.86 806.81 L 212.99 802.04 L 204.36 798.02 L 196.16 793.63 L 188.36 788.88 L 180.95 783.75 L 173.79 778.21 L 166.99 772.40 L 160.52 766.31 L 154.39 759.94 L 146.65 751.04 L 139.45 741.84 L 132.78 732.32 L 126.55 722.51 L 120.82 712.60 L 115.56 702.60 L 110.67 692.40 L 106.23 682.36 L 102.22 672.46 L 96.77 657.57 L 92.21 643.60 L 88.21 629.92 L 84.99 617.74 L 82.19 606.11 L 80.04 596.56 L 76.80 581.77 Z" fill="#47b0f1" fill-opacity="0.05" fill-rule="nonzero" group-id="2,8" id="路径-58" node-id="113" stroke="none" target-height="709.58" target-width="899.95" target-x="62.04" target-y="125.01"></path></g><g node-id="376"><path d="M 158.00 329.00 L 158.00 329.15 L 159.66 329.70 L 161.07 330.55 L 162.28 331.73 L 163.21 333.13 L 163.78 334.71 L 164.00 336.50 L 164.00 337.50 L 163.73 339.51 L 162.98 341.29 L 161.80 342.80 L 160.29 343.98 L 158.51 344.73 L 156.50 345.00 L 77.50 345.00 L 75.49 344.73 L 73.71 343.98 L 72.20 342.80 L 71.02 341.29 L 70.27 339.51 L 70.00 337.50 L 70.00 336.50 L 70.27 334.49 L 71.02 332.71 L 72.20 331.20 L 73.71 330.02 L 75.49 329.27 L 77.50 329.00 L 109.00 329.00 L 110.86 328.74 L 112.47 328.09 L 113.87 327.03 L 114.97 325.66 L 115.68 324.08 L 116.00 322.24 L 116.00 322.00 L 115.74 320.14 L 115.09 318.53 L 114.03 317.13 L 112.66 316.03 L 111.08 315.32 L 109.24 315.00 L 109.00 315.00 L 106.00 315.00 L 106.00 314.85 L 104.34 314.30 L 102.93 313.45 L 101.72 312.28 L 100.79 310.87 L 100.22 309.29 L 100.00 307.50 L 100.00 306.50 L 100.27 304.49 L 101.02 302.71 L 102.20 301.20 L 103.71 300.02 L 105.49 299.27 L 107.50 299.00 L 186.50 299.00 L 188.51 299.27 L 190.29 300.02 L 191.80 301.20 L 192.98 302.71 L 193.73 304.49 L 194.00 306.50 L 194.00 307.50 L 193.73 309.51 L 192.98 311.29 L 191.80 312.80 L 190.29 313.98 L 188.51 314.73 L 186.50 315.00 L 155.00 315.00 L 153.14 315.26 L 151.53 315.91 L 150.13 316.97 L 149.03 318.34 L 148.32 319.92 L 148.00 321.76 L 148.00 322.00 L 148.26 323.86 L 148.91 325.47 L 149.97 326.87 L 151.34 327.97 L 152.92 328.68 L 154.76 329.00 L 155.00 329.00 L 158.00 329.00 Z" fill="url(#linearGradient-1)" fill-opacity="0.1" fill-rule="nonzero" group-id="2,9" id="形状结合" node-id="114" stroke="none" target-height="46" target-width="124" target-x="70" target-y="299"></path></g><g node-id="377"><path d="M 858.00 159.00 L 858.00 159.15 L 859.66 159.70 L 861.07 160.55 L 862.28 161.73 L 863.21 163.13 L 863.78 164.71 L 864.00 166.50 L 864.00 167.50 L 863.73 169.51 L 862.98 171.29 L 861.80 172.80 L 860.29 173.98 L 858.51 174.73 L 856.50 175.00 L 777.50 175.00 L 775.49 174.73 L 773.71 173.98 L 772.20 172.80 L 771.02 171.29 L 770.27 169.51 L 770.00 167.50 L 770.00 166.50 L 770.27 164.49 L 771.02 162.71 L 772.20 161.20 L 773.71 160.02 L 775.49 159.27 L 777.50 159.00 L 809.00 159.00 L 810.86 158.74 L 812.47 158.09 L 813.87 157.03 L 814.97 155.66 L 815.68 154.08 L 816.00 152.24 L 816.00 152.00 L 815.74 150.14 L 815.09 148.53 L 814.03 147.13 L 812.66 146.03 L 811.08 145.32 L 809.24 145.00 L 809.00 145.00 L 806.00 145.00 L 806.00 144.85 L 804.34 144.30 L 802.93 143.45 L 801.72 142.28 L 800.79 140.87 L 800.22 139.29 L 800.00 137.50 L 800.00 136.50 L 800.27 134.49 L 801.02 132.71 L 802.20 131.20 L 803.71 130.02 L 805.49 129.27 L 807.50 129.00 L 886.50 129.00 L 888.51 129.27 L 890.29 130.02 L 891.80 131.20 L 892.98 132.71 L 893.73 134.49 L 894.00 136.50 L 894.00 137.50 L 893.73 139.51 L 892.98 141.29 L 891.80 142.80 L 890.29 143.98 L 888.51 144.73 L 886.50 145.00 L 855.00 145.00 L 853.14 145.26 L 851.53 145.91 L 850.13 146.97 L 849.03 148.34 L 848.32 149.92 L 848.00 151.76 L 848.00 152.00 L 848.26 153.86 L 848.91 155.47 L 849.97 156.87 L 851.34 157.97 L 852.92 158.68 L 854.76 159.00 L 855.00 159.00 L 858.00 159.00 Z" fill="url(#linearGradient-1)" fill-opacity="0.1" fill-rule="nonzero" group-id="2,10" id="形状结合" node-id="115" stroke="none" target-height="46" target-width="124" target-x="770" target-y="129"></path></g><path d="M 514.52 712.00 L 547.37 712.23 L 579.21 712.89 L 610.06 713.95 L 640.94 715.46 L 670.45 717.33 L 698.63 719.55 L 726.81 722.21 L 753.27 725.16 L 778.08 728.37 L 802.87 732.07 L 825.57 735.96 L 846.30 740.01 L 859.80 740.35 L 872.74 741.09 L 885.14 742.23 L 897.51 743.80 L 909.11 745.69 L 919.97 747.90 L 930.76 750.55 L 940.56 753.43 L 949.44 756.51 L 958.16 760.10 L 965.70 763.79 L 972.17 767.57 L 976.89 770.83 L 980.85 774.09 L 984.13 777.33 L 986.82 780.57 L 989.12 784.18 L 990.72 787.76 L 991.67 791.35 L 992.00 795.00 L 991.69 798.54 L 990.79 802.03 L 989.29 805.52 L 987.11 809.02 L 984.58 812.18 L 981.48 815.34 L 977.74 818.52 L 973.29 821.71 L 967.16 825.42 L 960.02 829.05 L 951.76 832.59 L 943.34 835.66 L 934.04 838.54 L 923.79 841.22 L 913.46 843.47 L 902.42 845.45 L 890.61 847.13 L 877.57 850.71 L 863.22 854.25 L 847.45 857.75 L 847.86 860.86 L 848.00 864.00 L 847.72 868.37 L 846.93 872.68 L 845.63 876.97 L 843.78 881.25 L 841.34 885.55 L 838.62 889.49 L 835.40 893.43 L 831.65 897.38 L 827.33 901.35 L 822.39 905.34 L 816.17 909.76 L 809.18 914.15 L 801.36 918.50 L 792.64 922.79 L 783.98 926.61 L 774.61 930.31 L 764.51 933.89 L 753.61 937.35 L 742.85 940.40 L 731.48 943.27 L 719.48 945.96 L 706.82 948.45 L 690.03 951.24 L 672.36 953.60 L 653.78 955.52 L 635.17 956.87 L 615.92 957.71 L 596.00 958.00 L 580.31 957.82 L 565.05 957.30 L 550.19 956.45 L 535.72 955.29 L 521.12 953.78 L 507.09 951.98 L 493.63 949.92 L 480.69 947.60 L 467.61 944.90 L 455.27 941.99 L 443.62 938.87 L 432.64 935.58 L 421.53 931.83 L 411.30 927.95 L 401.91 923.95 L 393.29 919.85 L 384.63 915.21 L 376.98 910.52 L 370.25 905.81 L 364.36 901.08 L 359.76 896.80 L 355.83 892.55 L 352.52 888.32 L 349.79 884.11 L 347.59 879.89 L 319.63 877.55 L 293.22 874.92 L 268.31 872.02 L 243.41 868.68 L 220.39 865.13 L 199.15 861.41 L 177.96 857.17 L 158.97 852.84 L 142.02 848.43 L 129.15 844.64 L 117.74 840.88 L 107.67 837.15 L 98.84 833.46 L 91.44 829.95 L 85.12 826.54 L 79.76 823.22 L 75.26 819.99 L 71.53 816.86 L 68.41 813.69 L 66.00 810.64 L 64.21 807.66 L 62.98 804.75 L 62.26 801.88 L 62.00 799.00 L 62.25 796.17 L 62.95 793.34 L 64.14 790.48 L 65.86 787.57 L 68.18 784.57 L 71.18 781.47 L 74.78 778.38 L 79.12 775.20 L 84.30 771.94 L 90.39 768.58 L 97.53 765.14 L 106.05 761.50 L 115.77 757.82 L 126.79 754.10 L 139.22 750.36 L 155.59 745.99 L 173.95 741.69 L 194.45 737.48 L 215.00 733.77 L 237.29 730.22 L 261.41 726.86 L 285.55 723.93 L 311.15 721.25 L 338.28 718.84 L 365.40 716.83 L 393.72 715.13 L 423.25 713.77 L 452.77 712.80 L 483.18 712.21 L 514.52 712.00 Z" fill="url(#linearGradient-2)" fill-rule="nonzero" group-id="2" id="形状结合" node-id="116" stroke="none" target-height="246" target-width="930" target-x="62" target-y="712"></path><path d="M 686.61 226.65 L 686.61 226.55 L 685.01 222.93 L 683.00 219.68 L 680.58 216.79 L 677.80 214.22 L 674.75 212.00 L 671.42 210.13 L 667.89 208.62 L 664.26 207.48 L 660.49 206.70 L 656.66 206.29 L 652.90 206.27 L 649.17 206.62 L 652.02 205.05 L 655.10 203.70 L 658.44 202.57 L 661.87 201.75 L 665.32 201.25 L 668.81 201.07 L 672.29 201.26 L 675.58 201.84 L 678.72 202.80 L 681.66 204.21 L 684.28 206.07 L 686.61 208.44 L 686.61 208.53 L 688.93 206.19 L 691.55 204.33 L 694.50 202.93 L 697.65 201.97 L 700.95 201.39 L 704.43 201.20 L 707.93 201.37 L 711.38 201.86 L 714.81 202.68 L 718.15 203.79 L 721.22 205.14 L 724.04 206.71 L 720.32 206.38 L 716.56 206.43 L 712.73 206.85 L 708.97 207.63 L 705.33 208.78 L 701.81 210.29 L 698.47 212.16 L 695.42 214.37 L 692.64 216.93 L 690.22 219.81 L 688.21 223.04 L 686.61 226.64 L 686.61 226.65 Z" fill="url(#linearGradient-3)" fill-rule="nonzero" group-id="2,11" id="路径" node-id="118" stroke="none" target-height="25.579987" target-width="74.869995" target-x="649.17" target-y="201.07"></path><path d="M 770.03 214.11 L 770.03 214.04 L 768.91 211.52 L 767.52 209.27 L 765.87 207.27 L 763.93 205.50 L 761.04 203.50 L 757.92 201.95 L 754.53 200.83 L 751.02 200.16 L 747.55 199.97 L 744.09 200.23 L 747.10 198.65 L 750.51 197.42 L 754.08 196.65 L 757.70 196.39 L 760.11 196.51 L 762.39 196.91 L 764.57 197.58 L 766.61 198.56 L 768.42 199.85 L 770.03 201.49 L 770.03 201.55 L 771.65 199.93 L 773.47 198.64 L 775.51 197.67 L 777.69 197.00 L 779.98 196.60 L 782.39 196.47 L 786.01 196.74 L 789.58 197.50 L 792.98 198.72 L 795.98 200.29 L 792.52 200.05 L 789.05 200.26 L 785.54 200.93 L 782.15 202.06 L 779.03 203.61 L 776.14 205.60 L 773.62 208.01 L 771.59 210.83 L 770.03 214.11 L 770.03 214.11 Z" fill="url(#linearGradient-4)" fill-rule="nonzero" group-id="2,11" id="路径" node-id="119" stroke="none" target-height="17.720001" target-width="51.889954" target-x="744.09" target-y="196.39"></path><path d="M 735.24 179.63 L 735.24 179.57 L 734.12 177.04 L 732.73 174.80 L 731.07 172.79 L 729.14 171.02 L 726.25 169.02 L 723.13 167.47 L 719.74 166.35 L 716.23 165.68 L 712.76 165.49 L 709.29 165.75 L 712.31 164.17 L 715.72 162.95 L 719.29 162.18 L 722.91 161.91 L 725.32 162.03 L 727.60 162.43 L 729.78 163.10 L 731.81 164.08 L 733.63 165.37 L 735.24 167.01 L 735.24 167.07 L 736.86 165.45 L 738.67 164.16 L 740.72 163.19 L 742.90 162.53 L 745.18 162.13 L 747.60 161.99 L 751.22 162.26 L 754.79 163.02 L 758.19 164.24 L 761.19 165.82 L 757.73 165.57 L 754.26 165.78 L 750.75 166.45 L 747.36 167.58 L 744.23 169.13 L 741.35 171.12 L 738.83 173.53 L 736.80 176.35 L 735.24 179.63 L 735.24 179.63 Z" fill="url(#linearGradient-4)" fill-rule="nonzero" group-id="2,11" id="路径" node-id="120" stroke="none" target-height="17.720001" target-width="51.900024" target-x="709.29" target-y="161.91"></path><path d="M 840.72 220.07 L 840.72 220.03 L 839.64 217.74 L 838.24 215.78 L 836.49 214.10 L 834.49 212.72 L 832.33 211.64 L 829.98 210.86 L 827.54 210.40 L 825.13 210.27 L 822.74 210.45 L 825.58 209.05 L 828.83 208.11 L 831.09 207.81 L 833.28 207.83 L 835.42 208.14 L 837.44 208.81 L 839.19 209.87 L 840.72 211.32 L 840.72 211.36 L 842.25 209.92 L 844.01 208.88 L 846.04 208.21 L 848.18 207.89 L 850.37 207.87 L 852.64 208.17 L 855.89 209.09 L 858.71 210.49 L 856.31 210.32 L 853.91 210.47 L 851.47 210.93 L 849.12 211.71 L 846.95 212.79 L 844.95 214.17 L 843.21 215.84 L 841.80 217.80 L 840.72 220.07 Z" fill="url(#linearGradient-5)" fill-rule="nonzero" group-id="2,11" id="路径" node-id="121" stroke="none" target-height="12.26001" target-width="35.97003" target-x="822.74" target-y="207.81"></path></g><path d="M 101.00 476.00 L 101.00 475.85 C 97.58 475.16 95.00 472.13 95.00 468.50 L 95.00 467.50 C 95.00 463.36 98.36 460.00 102.50 460.00 L 181.50 460.00 C 181.93 460.00 182.35 460.04 182.76 460.11 L 316.07 460.11 L 316.07 502.47 L 183.38 502.47 C 175.35 502.47 169.84 503.91 166.82 506.77 C 162.95 510.50 161.02 516.24 161.02 523.98 L 161.02 578.60 C 161.02 583.76 163.03 588.28 167.04 592.15 C 170.91 595.73 176.36 597.53 183.38 597.53 L 253.92 597.53 C 273.13 597.53 288.76 603.55 300.80 615.59 C 310.41 625.34 315.21 636.95 315.21 650.43 L 315.21 739.25 C 315.21 755.59 310.34 767.70 300.59 775.59 C 289.98 784.34 277.43 788.71 262.95 788.71 L 153.58 788.71 C 152.92 788.90 152.22 789.00 151.50 789.00 L 72.50 789.00 C 68.36 789.00 65.00 785.64 65.00 781.50 L 65.00 780.50 C 65.00 776.36 68.36 773.00 72.50 773.00 L 104.00 773.00 C 107.79 773.00 110.87 770.00 111.00 766.24 L 111.00 766.00 C 111.00 764.51 110.54 763.13 109.75 762.00 L 102.50 762.00 C 98.36 762.00 95.00 758.64 95.00 754.50 L 95.00 753.50 C 95.00 749.36 98.36 746.00 102.50 746.00 L 181.50 746.00 C 182.28 746.00 183.04 746.12 183.75 746.34 L 250.70 746.34 C 263.74 746.34 270.27 738.53 270.27 722.90 L 270.27 660.97 C 270.27 646.92 263.74 639.89 250.70 639.89 L 175.00 639.89 C 156.22 639.89 141.02 633.94 129.41 622.04 C 120.52 613.01 116.07 600.18 116.07 583.55 L 116.07 516.02 C 116.07 512.52 116.28 509.18 116.69 506.00 L 72.50 506.00 C 68.36 506.00 65.00 502.64 65.00 498.50 L 65.00 497.50 C 65.00 493.36 68.36 490.00 72.50 490.00 L 104.00 490.00 C 107.79 490.00 110.87 487.00 111.00 483.24 L 111.00 483.00 C 111.00 479.21 108.00 476.13 104.24 476.00 L 104.00 476.00 L 101.00 476.00 Z" fill="url(#linearGradient-6)" fill-rule="nonzero" id="形状结合" node-id="122" stroke="none" target-height="329" target-width="251.07" target-x="65" target-y="460"></path><path d="M 490.07 509.11 C 567.39 509.11 630.07 571.79 630.07 649.11 C 630.07 726.43 567.39 789.11 490.07 789.11 C 412.75 789.11 350.07 726.43 350.07 649.11 C 350.07 571.79 412.75 509.11 490.07 509.11 Z M 490.07 553.11 C 437.05 553.11 394.07 596.09 394.07 649.11 C 394.07 702.13 437.05 745.11 490.07 745.11 C 543.09 745.11 586.07 702.13 586.07 649.11 C 586.07 596.09 543.09 553.11 490.07 553.11 Z" fill="url(#linearGradient-7)" fill-rule="nonzero" id="椭圆形" node-id="123" stroke="none" target-height="280" target-width="280" target-x="350.07" target-y="509.11"></path><path d="M 889.00 757.00 L 889.00 757.15 C 892.42 757.85 895.00 760.87 895.00 764.50 L 895.00 765.50 C 895.00 769.64 891.64 773.00 887.50 773.00 L 850.05 773.00 C 830.61 783.22 808.48 789.00 785.00 789.00 C 707.68 789.00 645.00 726.32 645.00 649.00 C 645.00 571.68 707.68 509.00 785.00 509.00 C 807.25 509.00 828.29 514.19 846.97 523.43 C 848.34 521.94 850.31 521.00 852.50 521.00 L 931.50 521.00 C 935.64 521.00 939.00 524.36 939.00 528.50 L 939.00 529.50 C 939.00 533.64 935.64 537.00 931.50 537.00 L 900.00 537.00 C 896.21 537.00 893.13 540.00 893.00 543.76 L 893.00 544.00 C 893.00 547.79 896.00 550.87 899.76 551.00 L 900.00 551.00 L 903.00 551.00 L 903.00 551.15 C 906.42 551.85 909.00 554.87 909.00 558.50 L 909.00 559.50 C 909.00 563.64 905.64 567.00 901.50 567.00 L 898.48 567.00 C 915.17 590.05 925.00 618.37 925.00 649.00 C 925.00 677.88 916.26 704.71 901.27 727.00 L 917.50 727.00 C 921.64 727.00 925.00 730.36 925.00 734.50 L 925.00 735.50 C 925.00 739.64 921.64 743.00 917.50 743.00 L 888.75 743.00 C 885.79 746.27 882.67 749.40 879.41 752.37 C 880.36 755.00 882.83 756.90 885.76 757.00 L 886.00 757.00 L 889.00 757.00 Z M 785.00 553.00 C 731.98 553.00 689.00 595.98 689.00 649.00 C 689.00 702.02 731.98 745.00 785.00 745.00 C 801.71 745.00 817.43 740.73 831.11 733.22 C 831.72 729.69 834.79 727.00 838.50 727.00 L 840.97 727.00 C 865.21 709.58 881.00 681.13 881.00 649.00 C 881.00 614.27 862.56 583.86 834.94 567.00 L 822.50 567.00 C 818.36 567.00 815.00 563.64 815.00 559.50 L 815.00 558.50 C 815.00 558.26 815.01 558.03 815.03 557.79 C 805.59 554.68 795.49 553.00 785.00 553.00 Z" fill="url(#linearGradient-8)" fill-rule="nonzero" id="形状结合" node-id="124" stroke="none" target-height="280" target-width="294" target-x="645" target-y="509"></path><path d="M 314.74 648.63 L 307.95 645.85 L 302.25 644.03 L 297.50 643.01 L 293.54 642.65 L 290.26 642.82 L 287.52 643.45 L 285.24 644.47 L 283.33 645.88 L 281.74 647.70 L 280.45 649.99 L 279.48 652.85 L 278.87 656.41 L 278.69 660.79 L 279.06 666.16 L 280.30 670.72 L 281.78 674.18 L 283.46 676.76 L 285.31 678.61 L 287.36 679.87 L 292.92 687.04 L 297.09 693.22 L 300.09 698.53 L 302.11 703.08 L 303.32 706.98 L 303.86 710.34 L 304.25 713.22 L 305.00 716.06 L 306.12 718.88 L 307.62 721.50 L 309.53 723.84 L 311.89 725.93 L 313.86 727.19 L 316.12 728.21 L 318.71 728.97 L 321.68 729.45 L 324.58 729.55 L 327.88 729.28 L 331.67 728.58 L 336.00 727.36 L 339.94 726.34 L 343.50 725.98 L 346.74 726.20 L 349.74 726.97 L 352.56 728.29 L 355.22 730.20 L 357.77 732.78 L 360.20 736.12 L 362.51 740.37 L 364.67 745.68 L 366.65 752.22 L 370.45 756.80 L 374.64 760.95 L 379.21 764.70 L 384.21 768.05 L 389.66 771.02 L 395.60 773.60 L 402.07 775.78 L 409.13 777.53 L 416.81 778.85 L 425.19 779.68 L 434.32 779.99 L 444.25 779.74 L 455.07 778.87 L 462.79 777.79 L 468.93 776.45 L 473.73 774.90 L 477.41 773.21 L 480.17 771.41 L 482.18 769.52 L 483.58 767.53 L 484.43 765.41 L 484.79 763.11 L 484.62 760.55 L 483.85 757.66 L 482.36 754.34 L 479.99 750.52 L 476.54 746.10 L 471.78 740.98 L 465.46 735.09 L 457.31 728.31 L 447.02 720.54 L 436.79 716.68 L 428.65 713.95 L 422.30 712.14 L 417.42 711.08 L 415.29 710.46 L 413.43 709.39 L 411.79 707.84 L 410.36 705.73 L 409.15 702.94 L 408.20 699.32 L 407.59 694.67 L 407.40 688.79 L 407.15 685.87 L 406.40 683.17 L 405.14 680.66 L 403.34 678.29 L 400.93 676.05 L 397.79 673.92 L 393.81 671.91 L 388.84 670.07 L 383.85 668.19 L 380.04 666.17 L 377.21 664.05 L 375.18 661.83 L 373.82 659.51 L 373.05 657.03 L 372.85 654.32 L 373.27 651.32 L 370.50 647.70 L 367.78 644.97 L 365.09 643.00 L 362.40 641.67 L 359.69 640.93 L 356.90 640.73 L 353.98 641.08 L 350.86 642.03 L 347.50 643.68 L 343.84 646.13 L 339.60 649.04 L 335.73 651.10 L 332.18 652.44 L 328.90 653.15 L 325.84 653.30 L 322.93 652.94 L 320.14 652.06 L 317.42 650.64 L 314.74 648.63 Z" fill="url(#linearGradient-9)" fill-rule="nonzero" group-id="3,12" id="路径-61" node-id="126" stroke="none" target-height="139.26001" target-width="206.1" target-x="278.69" target-y="640.73"></path><path d="M 313.50 660.87 L 352.61 686.98 L 352.59 686.88 L 350.89 678.86 L 349.13 672.06 L 347.31 666.32 L 345.46 661.54 L 344.65 659.50 L 344.67 659.44 L 345.87 661.81 L 348.24 667.26 L 350.96 674.38 L 352.21 678.18 L 353.22 681.78 L 353.95 685.28 L 354.21 688.05 L 386.82 709.81 L 386.73 709.68 L 387.19 698.47 L 387.06 690.23 L 386.49 684.36 L 385.64 680.35 L 386.22 681.53 L 386.93 684.00 L 388.08 690.44 L 388.91 698.13 L 389.22 705.55 L 389.12 708.84 L 388.85 711.17 L 418.84 731.19 L 418.57 730.85 L 418.79 728.95 L 419.17 724.34 L 419.29 718.63 L 419.12 715.80 L 418.75 713.46 L 419.17 714.35 L 419.66 716.37 L 420.33 721.58 L 420.68 727.46 L 420.61 732.37 L 445.36 748.89 L 442.22 752.02 L 416.67 733.93 L 413.04 735.69 L 409.19 736.94 L 405.26 737.76 L 401.65 738.19 L 398.23 738.31 L 395.72 738.20 L 401.07 737.50 L 405.47 736.52 L 409.06 735.32 L 411.96 733.92 L 414.27 732.37 L 416.29 733.66 L 344.34 682.71 L 344.79 683.26 L 338.26 683.92 L 332.17 684.03 L 326.47 683.61 L 321.11 682.71 L 316.08 681.33 L 316.60 681.11 L 318.46 681.32 L 324.17 682.34 L 327.91 682.77 L 332.53 682.95 L 337.38 682.66 L 342.90 681.69 L 313.50 660.87 Z M 346.99 723.14 L 350.23 723.00 L 353.86 722.36 L 357.95 721.14 L 362.57 719.24 L 367.80 716.56 L 373.69 712.97 L 380.34 708.34 L 382.14 710.14 L 377.68 713.39 L 373.35 716.10 L 369.12 718.33 L 364.73 720.23 L 360.68 721.64 L 356.92 722.59 L 353.08 723.20 L 349.80 723.36 L 346.99 723.14 Z" fill="url(#linearGradient-10)" fill-rule="nonzero" group-id="3,13" id="形状结合" node-id="127" stroke="none" target-height="92.58002" target-width="131.85999" target-x="313.5" target-y="659.44"></path><path d="M 343.42 592.63 L 336.60 588.31 L 330.92 585.31 L 326.20 583.39 L 322.31 582.35 L 319.09 582.00 L 316.41 582.23 L 314.16 582.94 L 312.25 584.11 L 310.61 585.77 L 309.22 588.02 L 308.11 590.98 L 307.33 594.83 L 306.96 599.76 L 307.14 606.01 L 311.46 623.19 L 313.00 630.75 L 313.92 637.32 L 314.20 641.62 L 314.16 645.70 L 313.80 649.57 L 313.52 653.25 L 313.74 657.66 L 314.51 662.20 L 315.99 667.12 L 317.34 670.33 L 319.08 673.56 L 321.23 676.82 L 323.70 679.85 L 326.65 682.80 L 330.15 685.65 L 333.91 688.13 L 338.31 690.41 L 343.42 692.47 L 348.76 694.58 L 352.90 696.71 L 356.04 698.85 L 358.34 700.98 L 359.96 703.12 L 360.99 705.28 L 361.51 707.51 L 361.54 709.85 L 361.03 712.38 L 359.92 715.15 L 358.10 718.23 L 357.67 721.43 L 357.84 724.44 L 358.58 727.34 L 359.93 730.17 L 361.95 732.98 L 364.75 735.79 L 368.48 738.62 L 373.31 741.46 L 379.44 744.30 L 387.07 747.11 L 396.44 749.85 L 407.82 752.50 L 421.48 754.99 L 431.38 756.41 L 439.51 757.26 L 446.11 757.62 L 452.74 757.58 L 457.86 757.12 L 461.73 756.35 L 464.62 755.40 L 466.86 754.31 L 468.57 753.10 L 469.83 751.79 L 471.08 749.67 L 471.77 747.28 L 471.86 744.54 L 471.47 741.77 L 470.64 738.68 L 469.31 735.21 L 466.85 730.08 L 463.65 724.41 L 456.36 712.74 L 451.89 707.95 L 448.66 703.92 L 446.03 699.88 L 444.25 696.32 L 442.99 692.73 L 442.25 689.29 L 441.89 685.81 L 441.78 682.18 L 442.01 679.14 L 442.55 675.65 L 443.09 672.08 L 443.37 668.38 L 443.29 665.92 L 442.85 663.50 L 442.04 661.11 L 440.83 658.92 L 438.99 656.75 L 436.37 654.59 L 433.45 652.86 L 429.46 651.17 L 424.16 649.57 L 421.03 648.60 L 418.23 647.19 L 415.71 645.32 L 413.43 642.97 L 411.38 640.07 L 409.58 636.54 L 408.04 632.28 L 406.80 627.18 L 405.93 621.12 L 405.48 613.95 L 404.74 611.28 L 403.59 609.06 L 402.03 607.23 L 400.00 605.73 L 397.44 604.56 L 394.22 603.75 L 390.18 603.38 L 385.18 603.54 L 379.01 604.37 L 371.47 606.01 L 368.23 606.38 L 364.99 606.24 L 361.70 605.58 L 358.34 604.37 L 354.85 602.56 L 351.22 600.06 L 347.42 596.79 L 343.42 592.63 Z" fill="url(#linearGradient-11)" fill-rule="nonzero" group-id="3" id="路径-65" node-id="128" stroke="none" target-height="175.62" target-width="164.9" target-x="306.96" target-y="582"></path><path d="M 331.57 606.78 L 360.28 643.28 L 360.36 643.08 L 361.96 638.44 L 362.92 633.86 L 363.28 629.28 L 363.04 624.69 L 362.19 620.04 L 362.18 619.99 L 362.24 620.19 L 363.80 624.85 L 364.47 627.41 L 364.91 630.32 L 364.99 633.37 L 364.56 636.94 L 363.56 640.63 L 361.69 645.08 L 386.02 676.01 L 386.21 675.74 L 388.31 672.32 L 390.08 668.53 L 391.49 664.32 L 392.55 659.65 L 393.21 654.46 L 393.44 648.68 L 393.76 650.30 L 393.98 653.35 L 393.93 656.75 L 393.56 660.95 L 392.83 665.28 L 391.63 669.77 L 390.55 672.71 L 389.22 675.46 L 387.64 678.06 L 409.19 705.47 L 411.03 702.19 L 412.06 699.89 L 413.03 697.06 L 413.70 694.04 L 413.96 690.76 L 414.24 693.12 L 414.33 695.80 L 414.13 698.54 L 413.52 701.50 L 412.48 704.43 L 410.80 707.51 L 442.61 747.96 L 437.57 747.96 L 406.82 707.00 L 401.78 708.90 L 397.55 710.09 L 394.02 710.72 L 390.41 710.99 L 387.46 710.93 L 385.06 710.60 L 381.69 709.73 L 379.43 708.83 L 383.38 709.53 L 387.41 709.70 L 391.56 709.35 L 395.88 708.43 L 400.39 706.92 L 405.12 704.75 L 381.74 673.60 L 382.14 674.34 L 376.85 676.00 L 371.72 677.28 L 366.72 678.20 L 361.67 678.80 L 357.10 679.03 L 352.97 678.92 L 348.87 678.43 L 345.57 677.62 L 342.96 676.56 L 346.03 677.45 L 349.69 677.96 L 354.05 678.04 L 359.24 677.60 L 365.36 676.53 L 372.58 674.73 L 381.03 672.06 L 380.67 672.18 L 354.61 637.47 L 354.76 637.89 L 349.80 637.92 L 345.27 637.39 L 341.11 636.34 L 337.28 634.78 L 333.72 632.72 L 330.42 630.13 L 327.34 626.96 L 327.85 626.98 L 329.38 628.00 L 331.24 629.38 L 334.15 631.26 L 337.51 632.99 L 342.02 634.59 L 345.22 635.33 L 348.98 635.76 L 353.38 635.84 L 331.57 606.78 Z" fill="url(#linearGradient-12)" fill-rule="nonzero" group-id="3,14" id="形状结合" node-id="129" stroke="none" target-height="141.18" target-width="115.26999" target-x="327.34" target-y="606.78"></path><path d="M 432.24 593.82 L 435.38 589.93 L 438.19 587.25 L 440.73 585.54 L 443.07 584.60 L 445.26 584.30 L 447.40 584.58 L 449.55 585.47 L 451.78 587.06 L 454.13 589.53 L 456.62 593.12 L 459.26 598.08 L 460.18 602.38 L 460.67 606.19 L 461.42 613.15 L 462.09 616.27 L 463.23 619.10 L 464.30 620.81 L 465.81 622.49 L 467.83 624.16 L 470.06 625.56 L 473.04 627.00 L 476.94 628.47 L 480.82 630.05 L 483.74 631.82 L 485.88 633.77 L 487.37 635.89 L 488.29 638.22 L 488.67 640.84 L 488.45 643.84 L 487.54 647.31 L 485.77 651.37 L 482.97 656.13 L 481.76 659.58 L 481.31 662.45 L 481.48 664.87 L 482.19 666.96 L 483.44 668.79 L 485.32 670.43 L 487.95 671.87 L 491.54 673.07 L 493.90 673.93 L 495.62 675.07 L 496.84 676.48 L 497.61 678.21 L 497.95 680.34 L 497.75 683.01 L 496.89 686.38 L 495.15 690.61 L 492.31 695.89 L 488.08 702.42 L 486.31 707.03 L 485.33 710.77 L 485.00 713.80 L 485.17 716.25 L 485.76 718.24 L 486.72 719.88 L 488.08 721.21 L 489.98 722.83 L 492.22 725.22 L 494.26 728.04 L 496.17 731.68 L 497.16 734.31 L 497.92 737.33 L 498.41 740.79 L 498.52 744.28 L 498.20 748.24 L 497.38 752.74 L 496.14 757.13 L 494.23 762.09 L 491.54 767.71 L 489.49 771.06 L 487.35 773.79 L 485.13 775.98 L 482.82 777.68 L 480.24 779.09 L 477.62 780.12 L 474.93 780.78 L 472.16 781.09 L 468.43 781.03 L 464.69 780.51 L 460.93 779.51 L 457.27 778.14 L 453.79 776.50 L 450.48 774.56 L 447.33 772.37 L 444.57 770.13 L 442.19 767.83 L 440.02 765.31 L 438.45 763.01 L 437.40 760.91 L 436.58 758.26 L 436.08 755.51 L 435.91 752.65 L 436.10 748.31 L 436.66 743.89 L 438.14 735.28 L 438.71 731.16 L 438.88 727.50 L 438.71 725.14 L 438.21 723.06 L 437.40 721.21 L 436.38 719.87 L 434.95 718.51 L 433.04 717.13 L 426.28 713.20 L 422.56 711.05 L 418.86 708.61 L 416.53 706.79 L 414.43 704.77 L 412.55 702.54 L 411.00 700.10 L 409.84 697.33 L 409.08 694.18 L 408.85 690.96 L 409.19 687.17 L 410.21 682.72 L 412.31 679.61 L 414.37 676.93 L 416.39 674.36 L 418.13 671.90 L 419.55 669.32 L 420.48 666.50 L 420.77 664.54 L 420.76 662.27 L 420.40 659.63 L 419.73 657.05 L 418.59 653.93 L 416.86 650.18 L 414.56 645.86 L 412.80 642.84 L 410.11 638.40 L 409.30 636.74 L 408.97 635.41 L 409.03 634.08 L 409.58 632.45 L 410.52 630.69 L 412.15 628.08 L 416.86 620.86 L 419.53 617.78 L 422.39 613.72 L 425.46 608.52 L 428.74 601.95 L 432.24 593.82 Z" fill="url(#linearGradient-13)" fill-rule="nonzero" group-id="3" id="路径-96" node-id="130" stroke="none" target-height="196.79004" target-width="89.66998" target-x="408.85" target-y="584.3"></path><path d="M 445.94 617.93 L 455.13 664.04 L 455.19 663.96 L 459.66 657.10 L 463.22 651.03 L 465.99 645.69 L 468.07 641.01 L 468.94 638.99 L 469.00 638.96 L 468.17 641.48 L 465.99 647.01 L 462.87 653.97 L 461.08 657.54 L 459.24 660.80 L 457.28 663.79 L 455.51 665.94 L 463.18 704.38 L 463.20 704.23 L 471.46 696.63 L 477.19 690.70 L 480.94 686.15 L 483.18 682.72 L 482.75 683.96 L 481.51 686.21 L 477.77 691.58 L 472.92 697.60 L 467.89 703.07 L 465.49 705.32 L 463.66 706.78 L 470.71 742.14 L 470.75 741.71 L 472.25 740.52 L 475.78 737.53 L 479.90 733.58 L 481.79 731.45 L 483.18 729.53 L 482.85 730.47 L 481.76 732.25 L 478.55 736.41 L 474.64 740.80 L 471.12 744.23 L 476.94 773.41 L 472.51 773.41 L 467.23 742.54 L 463.42 741.22 L 459.81 739.38 L 456.45 737.19 L 453.60 734.93 L 451.09 732.60 L 449.40 730.75 L 453.68 734.03 L 457.48 736.46 L 460.87 738.14 L 463.90 739.21 L 466.64 739.74 L 467.15 742.08 L 452.31 655.18 L 452.23 655.89 L 447.15 651.74 L 442.77 647.50 L 439.03 643.18 L 435.88 638.76 L 433.30 634.22 L 433.82 634.43 L 434.99 635.90 L 438.30 640.65 L 440.64 643.61 L 443.79 647.00 L 447.42 650.22 L 452.01 653.45 L 445.94 617.93 Z M 425.59 685.64 L 427.98 687.83 L 431.00 689.95 L 434.76 691.98 L 439.37 693.91 L 444.95 695.70 L 451.66 697.34 L 459.64 698.76 L 459.64 701.30 L 454.19 700.45 L 449.21 699.31 L 444.65 697.89 L 440.19 696.13 L 436.33 694.26 L 433.00 692.28 L 429.86 689.99 L 427.42 687.78 L 425.59 685.64 Z" fill="url(#linearGradient-10)" fill-rule="nonzero" group-id="3" id="形状结合" node-id="131" stroke="none" target-height="155.47998" target-width="57.589996" target-x="425.59" target-y="617.93"></path><path d="M 917.40 807.52 L 917.95 801.38 L 917.93 796.07 L 917.44 791.49 L 916.51 787.55 L 915.21 784.15 L 913.55 781.23 L 911.54 778.73 L 909.16 776.60 L 906.38 774.81 L 903.14 773.38 L 899.38 772.30 L 895.00 771.63 L 899.95 771.41 L 904.50 771.63 L 908.69 772.27 L 912.56 773.29 L 916.14 774.69 L 919.61 776.53 L 922.72 778.70 L 925.51 781.19 L 927.98 784.04 L 930.16 787.26 L 931.93 790.65 L 933.34 794.33 L 934.40 798.35 L 935.09 802.73 L 935.38 807.52 L 927.50 807.65 L 917.40 807.52 Z" fill="url(#linearGradient-14)" fill-rule="nonzero" group-id="4" id="路径-38" node-id="133" stroke="none" target-height="36.24005" target-width="40.380005" target-x="895" target-y="771.41"></path><path d="M 929.12 807.65 L 930.21 801.17 L 930.68 795.22 L 930.58 789.76 L 929.96 784.72 L 928.84 780.06 L 927.24 775.73 L 925.18 771.69 L 922.62 767.92 L 919.56 764.39 L 915.95 761.08 L 911.73 758.00 L 916.89 759.74 L 921.70 761.69 L 926.18 763.86 L 930.44 766.39 L 934.38 769.38 L 938.04 772.83 L 940.47 775.66 L 942.76 778.90 L 944.90 782.60 L 946.90 786.80 L 948.51 791.00 L 949.97 795.83 L 951.27 801.35 L 952.37 807.65 L 946.00 807.95 L 938.31 807.97 L 929.12 807.65 Z" fill="url(#linearGradient-15)" fill-rule="nonzero" group-id="4" id="路径-39" node-id="134" stroke="none" target-height="49.96997" target-width="40.640015" target-x="911.73" target-y="758"></path><path d="M 956.07 808.00 L 955.73 801.72 L 955.99 796.27 L 956.76 791.55 L 957.98 787.46 L 959.63 783.91 L 961.67 780.84 L 964.13 778.18 L 967.03 775.92 L 970.43 774.02 L 974.39 772.50 L 979.00 771.39 L 974.13 771.29 L 969.16 771.39 L 965.86 771.67 L 962.55 772.24 L 959.22 773.13 L 956.02 774.38 L 952.78 776.16 L 949.49 778.54 L 946.52 781.30 L 943.47 784.91 L 940.33 789.53 L 937.63 794.39 L 934.86 800.48 L 932.05 808.00 L 947.31 807.74 L 956.07 808.00 Z" fill="none" group-id="4" id="路径-40" node-id="135" stroke="none" target-height="36.710022" target-width="46.950012" target-x="932.05" target-y="771.29"></path><path d="M 906.41 822.00 L 912.64 821.98 L 918.14 821.82 L 921.72 821.51 L 924.83 820.97 L 927.52 820.23 L 930.03 819.11 L 932.09 817.60 L 933.75 815.68 L 934.66 814.05 L 935.36 812.05 L 935.82 809.60 L 936.00 806.61 L 935.71 802.68 L 934.91 798.99 L 933.60 795.47 L 931.83 792.16 L 929.66 789.14 L 927.07 786.38 L 924.15 783.97 L 920.92 781.92 L 917.37 780.25 L 913.64 779.03 L 909.70 778.27 L 905.50 778.00 L 901.30 778.27 L 897.36 779.03 L 893.63 780.25 L 890.08 781.92 L 886.85 783.97 L 883.93 786.38 L 881.34 789.14 L 879.17 792.16 L 877.40 795.47 L 876.09 798.99 L 875.29 802.68 L 875.00 806.61 L 875.20 809.58 L 875.72 812.02 L 876.51 814.03 L 877.54 815.68 L 879.37 817.58 L 881.63 819.10 L 884.39 820.23 L 887.32 820.98 L 890.64 821.51 L 894.40 821.82 L 900.13 821.98 L 906.41 822.00 Z" fill="url(#linearGradient-17)" fill-rule="nonzero" group-id="4" id="椭圆形" node-id="136" stroke="none" target-height="44" target-width="61" target-x="875" target-y="778"></path><path d="M 939.57 822.00 L 946.88 821.89 L 950.11 821.55 L 952.72 820.91 L 954.28 820.22 L 955.56 819.30 L 956.60 818.12 L 957.32 816.74 L 957.81 814.92 L 958.00 812.56 L 957.68 809.36 L 956.82 806.43 L 955.41 803.69 L 953.53 801.25 L 951.27 799.15 L 948.59 797.40 L 945.66 796.10 L 942.48 795.30 L 939.00 795.00 L 935.52 795.30 L 932.34 796.10 L 929.41 797.40 L 926.73 799.15 L 924.47 801.25 L 922.59 803.69 L 921.18 806.43 L 920.32 809.36 L 920.00 812.56 L 920.21 814.91 L 920.76 816.73 L 921.58 818.12 L 922.72 819.29 L 924.13 820.22 L 925.85 820.91 L 928.68 821.55 L 932.08 821.89 L 939.57 822.00 Z" fill="url(#linearGradient-18)" fill-rule="nonzero" group-id="4" id="椭圆形备份-6" node-id="137" stroke="none" target-height="27" target-width="38" target-x="920" target-y="795"></path><path d="M 111.91 785.63 L 110.80 782.00 L 109.19 778.81 L 107.07 776.01 L 104.42 773.54 L 101.16 771.41 L 97.20 769.60 L 92.74 767.99 L 89.56 766.49 L 87.70 765.28 L 86.67 764.24 L 86.22 763.34 L 86.25 762.46 L 86.93 761.54 L 88.64 760.50 L 92.18 760.10 L 94.28 760.04 L 96.67 760.31 L 99.06 761.07 L 101.71 762.59 L 103.33 763.94 L 105.07 765.82 L 106.92 768.37 L 108.51 771.08 L 110.17 774.61 L 111.91 779.11 L 112.27 781.32 L 112.27 783.48 L 111.91 785.63 Z" fill="url(#linearGradient-19)" fill-rule="nonzero" group-id="5" id="路径-43" node-id="139" stroke="none" target-height="25.590027" target-width="26.049995" target-x="86.22" target-y="760.04"></path><path d="M 112.32 786.84 L 109.48 777.03 L 106.64 768.68 L 103.83 761.63 L 101.06 755.73 L 98.33 750.86 L 95.66 746.88 L 94.30 744.84 L 93.32 742.77 L 92.69 740.65 L 92.38 738.46 L 92.42 736.50 L 92.76 734.73 L 93.45 733.10 L 94.41 731.91 L 95.66 731.08 L 97.02 730.96 L 98.66 731.02 L 100.34 731.42 L 102.27 732.45 L 103.45 733.41 L 104.76 734.86 L 106.22 736.94 L 108.11 740.52 L 110.23 746.03 L 112.08 752.38 L 114.04 761.29 L 114.56 764.65 L 115.13 770.53 L 115.25 773.96 L 115.16 777.54 L 114.77 781.07 L 114.04 784.27 L 113.31 785.78 L 112.32 786.84 Z" fill="url(#linearGradient-20)" fill-rule="nonzero" group-id="5" id="路径-44" node-id="140" stroke="none" target-height="55.880005" target-width="22.870003" target-x="92.38" target-y="730.96"></path><path d="M 113.45 782.72 L 114.40 778.03 L 114.88 772.61 L 114.80 766.34 L 114.08 759.10 L 112.60 750.77 L 109.89 742.92 L 108.60 738.95 L 107.58 735.24 L 106.91 731.63 L 106.80 728.61 L 107.08 726.72 L 107.71 725.18 L 108.67 723.91 L 109.95 722.98 L 111.77 722.32 L 114.32 722.00 L 116.30 722.51 L 118.38 723.73 L 119.58 724.88 L 120.76 726.56 L 121.93 728.94 L 122.76 731.44 L 123.47 734.81 L 124.01 739.24 L 124.22 743.69 L 124.13 749.30 L 123.69 756.29 L 122.83 761.72 L 121.87 766.27 L 120.74 770.61 L 119.54 774.61 L 116.90 782.72 L 115.93 783.06 L 114.81 783.08 L 113.45 782.72 Z" fill="url(#linearGradient-21)" fill-rule="nonzero" group-id="5" id="路径-45" node-id="141" stroke="none" target-height="61.080017" target-width="17.419998" target-x="106.8" target-y="722"></path><path d="M 116.03 785.89 L 115.94 777.42 L 116.32 769.86 L 117.12 763.13 L 118.29 757.15 L 119.79 751.85 L 121.61 747.17 L 123.70 743.03 L 126.07 739.39 L 128.70 736.19 L 129.89 735.01 L 131.66 733.93 L 133.65 733.21 L 135.70 733.00 L 137.02 733.20 L 138.19 733.75 L 139.26 734.68 L 140.01 735.87 L 140.54 737.65 L 140.78 740.22 L 140.20 742.68 L 139.06 746.45 L 137.41 750.58 L 134.56 756.10 L 132.30 759.80 L 129.25 764.12 L 125.28 769.15 L 123.37 771.97 L 121.72 774.98 L 120.34 778.01 L 119.37 780.57 L 118.69 782.91 L 118.51 784.07 L 118.24 785.05 L 117.49 785.65 L 116.03 785.89 Z" fill="url(#linearGradient-22)" fill-rule="nonzero" group-id="5" id="路径-46" node-id="142" stroke="none" target-height="52.890015" target-width="24.839996" target-x="115.94" target-y="733"></path><path d="M 68.00 788.94 L 75.89 787.30 L 80.31 786.07 L 82.46 785.18 L 83.29 784.55 L 84.14 783.77 L 86.21 782.40 L 88.67 781.12 L 91.81 779.92 L 95.15 779.14 L 98.62 778.99 L 100.88 779.34 L 103.04 780.17 L 105.14 781.53 L 106.23 780.53 L 107.88 779.68 L 109.75 779.24 L 111.77 779.31 L 113.06 779.68 L 114.28 780.40 L 115.46 781.53 L 116.31 779.34 L 117.74 777.36 L 119.57 775.66 L 121.67 774.25 L 123.91 773.14 L 126.05 772.41 L 128.14 772.03 L 129.72 772.06 L 131.58 771.99 L 134.29 772.15 L 137.11 772.73 L 140.14 773.97 L 141.99 775.16 L 143.73 776.83 L 145.35 779.05 L 146.55 781.51 L 147.46 784.75 L 148.00 788.94 L 135.47 788.99 L 68.00 788.94 Z" fill="url(#linearGradient-23)" fill-rule="nonzero" group-id="5" id="路径-47" node-id="143" stroke="none" target-height="17" target-width="80" target-x="68" target-y="771.99"></path><path d="M 787.85 299.47 L 790.83 299.95 L 793.68 300.78 L 796.40 301.98 L 798.96 303.50 L 801.29 305.34 L 803.43 307.50 L 805.14 309.69 L 806.53 312.10 L 806.59 312.22 L 806.43 311.39 L 807.23 311.85 L 807.93 312.71 L 808.51 314.10 L 809.00 316.45 L 809.20 319.50 L 809.21 319.68 L 810.10 319.63 L 810.92 319.90 L 811.71 320.54 L 812.64 321.86 L 813.32 323.68 L 813.61 325.67 L 813.47 327.72 L 813.10 329.03 L 812.47 330.20 L 811.58 331.25 L 810.48 332.05 L 809.01 332.60 L 807.08 332.89 L 806.50 334.23 L 805.91 335.24 L 801.83 341.20 L 799.43 344.09 L 796.71 346.52 L 796.74 356.86 L 776.31 357.15 L 776.39 345.01 L 774.11 342.77 L 772.19 340.08 L 770.14 336.57 L 768.50 332.88 L 768.90 332.86 L 766.57 332.78 L 764.83 332.33 L 763.54 331.59 L 762.47 330.52 L 761.73 329.31 L 761.28 327.91 L 761.10 325.71 L 761.42 323.57 L 762.19 321.65 L 763.23 320.32 L 764.10 319.76 L 765.00 319.61 L 766.01 319.88 L 766.02 318.22 L 766.63 314.84 L 767.74 311.63 L 769.31 308.62 L 771.33 305.86 L 773.58 303.66 L 776.06 301.92 L 778.80 300.59 L 781.72 299.73 L 784.72 299.35 L 787.85 299.47 Z M 807.04 314.57 L 807.05 314.73 L 807.15 315.94 L 807.54 317.10 L 807.04 314.57 Z M 806.59 312.22 L 807.04 314.57 L 807.04 314.42 L 806.86 312.90 L 806.77 312.60 L 806.59 312.22 Z" fill="#ebb0b0" fill-rule="nonzero" group-id="6" id="形状结合" node-id="145" stroke="none" target-height="57.799988" target-width="52.51001" target-x="761.1" target-y="299.35"></path><path d="M 809.37 321.70 L 810.66 320.20 L 811.86 318.31 L 812.96 315.96 L 814.17 312.21 L 814.94 307.98 L 815.14 303.63 L 814.74 299.33 L 814.09 296.53 L 813.12 293.96 L 811.83 291.59 L 810.18 289.50 L 808.13 287.76 L 805.65 286.36 L 804.81 285.60 L 803.70 284.98 L 802.24 284.52 L 799.84 284.15 L 796.74 284.00 L 795.32 284.06 L 794.42 284.24 L 793.05 284.71 L 792.46 284.85 L 791.73 284.82 L 790.95 284.47 L 789.80 283.63 L 788.51 282.66 L 786.71 281.56 L 784.64 280.68 L 781.83 280.06 L 780.45 280.01 L 778.38 280.21 L 776.19 280.62 L 773.81 281.22 L 771.48 281.98 L 769.45 282.84 L 767.68 283.86 L 766.63 284.82 L 764.56 286.66 L 762.23 289.37 L 760.14 292.52 L 758.21 296.36 L 757.17 299.09 L 756.36 302.04 L 755.79 305.22 L 755.60 308.37 L 755.80 311.11 L 756.34 313.49 L 757.68 316.93 L 759.47 320.18 L 763.60 326.91 L 765.28 325.47 L 766.62 323.64 L 768.75 319.40 L 769.82 317.25 L 771.03 315.32 L 774.01 312.21 L 777.31 309.47 L 780.91 307.13 L 784.77 305.22 L 790.23 304.54 L 794.40 304.42 L 796.99 304.73 L 799.28 305.49 L 801.32 306.67 L 803.09 308.25 L 804.91 310.59 L 806.78 313.87 L 809.37 321.70 Z" fill="#131322" fill-rule="nonzero" group-id="6" id="路径" node-id="146" stroke="none" target-height="46.899994" target-width="59.54004" target-x="755.6" target-y="280.01"></path><path d="M 776.77 348.54 L 780.17 350.84 L 783.78 353.01 L 785.65 353.74 L 787.45 354.02 L 788.85 353.80 L 790.46 353.04 L 793.61 350.73 L 796.37 348.54 L 800.72 348.95 L 806.17 349.93 L 811.83 351.37 L 818.20 353.45 L 824.61 356.04 L 831.34 359.32 L 835.74 361.81 L 840.11 364.61 L 844.46 367.74 L 844.35 379.87 L 844.06 389.75 L 843.56 398.96 L 842.92 406.54 L 842.09 413.68 L 841.15 419.81 L 840.04 425.71 L 838.83 431.25 L 836.08 442.55 L 832.97 455.38 L 831.52 458.30 L 827.96 464.69 L 823.20 472.82 L 818.16 481.01 L 813.76 487.54 L 811.89 489.86 L 810.92 490.70 L 806.29 492.80 L 801.97 494.29 L 797.91 495.25 L 793.76 495.82 L 789.56 496.06 L 785.30 495.98 L 778.76 495.47 L 771.41 494.64 L 770.35 494.24 L 768.21 492.91 L 763.05 489.03 L 757.30 484.27 L 752.32 479.95 L 749.48 477.35 L 748.87 476.52 L 747.68 474.43 L 744.87 468.80 L 741.69 461.99 L 738.82 455.51 L 736.92 450.88 L 734.71 444.41 L 732.67 436.89 L 731.96 433.18 L 731.65 430.13 L 731.13 416.87 L 730.56 401.25 L 730.08 384.90 L 729.78 369.44 L 732.50 365.90 L 735.31 362.93 L 738.22 360.49 L 741.37 358.35 L 744.57 356.58 L 747.85 355.15 L 752.91 353.44 L 757.96 352.19 L 767.84 350.40 L 772.54 349.54 L 776.77 348.54 Z" fill="url(#linearGradient-24)" fill-rule="nonzero" group-id="6" id="路径" node-id="147" stroke="none" target-height="147.51999" target-width="114.67999" target-x="729.78" target-y="348.54"></path><path d="M 772.73 359.98 L 798.25 359.98 L 799.82 360.30 L 801.08 361.15 L 801.93 362.41 L 802.25 363.98 L 802.25 405.38 L 801.93 406.94 L 801.08 408.20 L 799.82 409.06 L 798.25 409.38 L 772.73 409.38 L 771.16 409.06 L 769.90 408.20 L 769.05 406.94 L 768.73 405.38 L 768.73 363.98 L 769.05 362.41 L 769.90 361.15 L 771.16 360.30 L 772.73 359.98 Z" fill="url(#linearGradient-25)" fill-rule="nonzero" group-id="6" id="矩形" node-id="148" stroke="none" target-height="49.399994" target-width="33.52002" target-x="768.73" target-y="359.98"></path><path d="M 758.40 403.88 L 760.29 398.91 L 762.39 394.66 L 764.66 391.05 L 767.10 388.01 L 768.78 387.14 L 769.58 386.95 L 770.05 387.11 L 770.09 387.59 L 769.81 388.23 L 769.14 389.09 L 771.88 388.46 L 773.80 388.37 L 776.02 388.75 L 777.42 389.33 L 778.81 390.34 L 780.22 391.88 L 781.30 393.67 L 782.28 396.23 L 783.12 399.79 L 782.33 401.90 L 781.05 404.43 L 779.45 406.93 L 777.42 409.43 L 775.08 411.69 L 772.38 413.61 L 770.41 414.61 L 768.30 415.33 L 766.03 415.76 L 763.95 415.46 L 762.28 414.76 L 760.92 413.68 L 759.83 412.18 L 759.01 410.14 L 758.50 407.44 L 758.40 403.88 Z" fill="#efba9e" fill-rule="nonzero" group-id="6,15" id="路径-109" node-id="149" stroke="none" target-height="28.809998" target-width="24.71997" target-x="758.4" target-y="386.95"></path><path d="M 726.34 369.92 L 729.29 366.72 L 732.02 364.50 L 734.56 363.06 L 736.96 362.28 L 739.28 362.07 L 741.59 362.41 L 743.93 363.31 L 746.37 364.88 L 748.95 367.24 L 750.09 368.75 L 751.18 371.09 L 752.15 374.53 L 753.08 380.06 L 753.69 387.30 L 753.92 395.01 L 753.85 403.80 L 753.51 412.83 L 752.92 422.28 L 752.14 431.76 L 751.19 440.99 L 750.10 450.03 L 748.95 458.18 L 746.65 460.64 L 744.44 462.48 L 742.30 463.79 L 740.22 464.65 L 737.23 465.27 L 734.39 465.26 L 731.66 464.64 L 729.06 463.50 L 726.68 461.94 L 724.49 459.92 L 722.62 457.60 L 721.11 455.07 L 719.95 452.28 L 717.77 441.82 L 716.27 432.09 L 715.39 423.05 L 715.09 414.65 L 715.32 406.83 L 716.05 399.56 L 717.25 392.79 L 718.89 386.47 L 720.96 380.58 L 723.44 375.07 L 726.34 369.92 Z" fill="url(#linearGradient-26)" fill-rule="nonzero" group-id="6" id="路径-2" node-id="150" stroke="none" target-height="103.19998" target-width="38.829956" target-x="715.09" target-y="362.07"></path><path d="M 728.53 446.82 L 729.98 441.42 L 731.98 436.11 L 734.55 430.87 L 737.71 425.67 L 741.51 420.51 L 746.00 415.37 L 751.24 410.25 L 757.27 405.13 L 759.24 404.56 L 761.16 404.34 L 763.05 404.44 L 764.88 404.89 L 766.54 405.70 L 768.07 406.90 L 769.30 408.39 L 770.30 410.34 L 771.05 412.85 L 771.24 414.39 L 771.02 417.71 L 770.42 421.48 L 769.31 426.40 L 767.84 431.54 L 765.87 437.22 L 763.50 442.87 L 760.67 448.45 L 758.52 452.04 L 756.20 455.35 L 753.69 458.40 L 750.93 461.18 L 748.00 463.48 L 744.91 465.34 L 740.51 465.96 L 737.04 465.93 L 734.31 465.38 L 732.16 464.40 L 730.47 463.01 L 729.17 461.17 L 728.25 458.80 L 727.76 455.74 L 727.81 451.82 L 728.53 446.82 Z" fill="url(#linearGradient-27)" fill-rule="nonzero" group-id="6" id="路径-3" node-id="151" stroke="none" target-height="61.619995" target-width="43.47998" target-x="727.76" target-y="404.34"></path><path d="M 814.14 403.88 L 812.25 398.91 L 810.15 394.66 L 807.88 391.05 L 805.44 388.01 L 803.76 387.14 L 802.97 386.95 L 802.49 387.11 L 802.45 387.59 L 802.73 388.23 L 803.40 389.09 L 800.66 388.46 L 798.74 388.37 L 796.52 388.75 L 795.13 389.33 L 793.73 390.34 L 792.32 391.88 L 791.24 393.67 L 790.26 396.23 L 789.42 399.79 L 790.21 401.90 L 791.49 404.43 L 793.09 406.93 L 795.12 409.43 L 797.46 411.69 L 800.16 413.61 L 802.13 414.61 L 804.24 415.33 L 806.51 415.76 L 808.59 415.46 L 810.26 414.76 L 811.62 413.68 L 812.71 412.18 L 813.53 410.14 L 814.04 407.44 L 814.14 403.88 Z" fill="#efba9e" fill-rule="nonzero" group-id="6,16" id="路径-109" node-id="152" stroke="none" target-height="28.809998" target-width="24.720032" target-x="789.42" target-y="386.95"></path><path d="M 846.20 369.92 L 843.25 366.72 L 840.52 364.50 L 837.98 363.06 L 835.58 362.28 L 833.26 362.07 L 830.95 362.41 L 828.61 363.31 L 826.17 364.88 L 823.59 367.24 L 822.45 368.75 L 821.36 371.09 L 820.39 374.53 L 819.46 380.06 L 818.85 387.30 L 818.62 395.01 L 818.69 403.80 L 819.03 412.83 L 819.62 422.28 L 820.40 431.76 L 821.35 440.99 L 822.44 450.03 L 823.59 458.18 L 825.89 460.64 L 828.10 462.48 L 830.24 463.79 L 832.32 464.65 L 835.31 465.27 L 838.15 465.26 L 840.88 464.64 L 843.48 463.50 L 845.86 461.94 L 848.05 459.92 L 849.92 457.60 L 851.43 455.07 L 852.59 452.28 L 854.77 441.82 L 856.27 432.09 L 857.15 423.05 L 857.45 414.65 L 857.22 406.83 L 856.49 399.56 L 855.29 392.79 L 853.65 386.47 L 851.58 380.58 L 849.10 375.07 L 846.20 369.92 Z" fill="url(#linearGradient-28)" fill-rule="nonzero" group-id="6,17" id="路径-2" node-id="153" stroke="none" target-height="103.19998" target-width="38.830017" target-x="818.62" target-y="362.07"></path><path d="M 844.01 446.82 L 842.56 441.42 L 840.56 436.11 L 838.00 430.87 L 834.83 425.67 L 831.03 420.51 L 826.54 415.37 L 821.30 410.25 L 815.27 405.13 L 813.30 404.56 L 811.38 404.34 L 809.49 404.44 L 807.67 404.89 L 806.00 405.70 L 804.47 406.90 L 803.24 408.39 L 802.24 410.34 L 801.49 412.85 L 801.30 414.39 L 801.52 417.71 L 802.12 421.48 L 803.23 426.40 L 804.70 431.54 L 806.67 437.22 L 809.04 442.87 L 811.87 448.45 L 814.02 452.04 L 816.34 455.35 L 818.85 458.40 L 821.61 461.18 L 824.54 463.48 L 827.63 465.34 L 832.03 465.96 L 835.50 465.93 L 838.23 465.38 L 840.38 464.40 L 842.07 463.01 L 843.37 461.17 L 844.29 458.80 L 844.78 455.74 L 844.73 451.82 L 844.01 446.82 Z" fill="url(#linearGradient-29)" fill-rule="nonzero" group-id="6,18" id="路径-3" node-id="154" stroke="none" target-height="61.619995" target-width="43.48004" target-x="801.3" target-y="404.34"></path><path d="M 716.60 514.47 L 713.98 504.38 L 712.31 495.96 L 711.44 488.97 L 711.23 483.23 L 711.56 478.55 L 712.32 474.76 L 713.45 471.72 L 714.88 469.29 L 716.62 467.38 L 718.67 465.92 L 721.09 464.87 L 723.95 464.24 L 727.35 464.09 L 771.38 487.59 L 775.47 489.96 L 779.34 491.54 L 783.01 492.44 L 786.55 492.71 L 790.00 492.37 L 793.42 491.44 L 796.84 489.87 L 800.32 487.59 L 807.25 482.31 L 814.32 477.60 L 821.53 473.43 L 828.91 469.80 L 836.46 466.69 L 844.20 464.09 L 848.20 464.71 L 851.44 465.74 L 854.07 467.11 L 856.18 468.82 L 857.85 470.88 L 859.10 473.34 L 859.93 476.29 L 860.30 479.82 L 860.11 484.05 L 859.26 489.13 L 857.59 495.21 L 854.95 502.43 L 851.14 510.98 L 845.97 521.04 L 823.50 520.60 L 784.36 520.52 L 721.87 521.04 L 720.34 520.14 L 718.96 518.81 L 717.71 516.96 L 716.60 514.47 Z" fill="url(#linearGradient-30)" fill-rule="nonzero" group-id="6" id="路径-4" node-id="155" stroke="none" target-height="56.94998" target-width="149.07" target-x="711.23" target-y="464.09"></path><path d="M 754.91 592.32 L 758.95 591.90 L 761.92 591.62 L 763.18 591.77 L 764.39 592.27 L 765.53 593.26 L 766.71 595.00 L 767.62 597.03 L 768.23 599.23 L 768.40 601.42 L 768.04 603.20 L 765.93 607.96 L 763.62 612.87 L 762.04 616.20 L 760.40 619.43 L 757.34 624.68 L 755.46 627.39 L 753.57 629.68 L 752.16 631.00 L 750.91 631.79 L 749.79 632.17 L 748.31 632.09 L 747.10 631.52 L 746.07 630.40 L 745.36 628.97 L 744.85 627.11 L 744.62 624.70 L 744.69 622.28 L 745.08 619.56 L 745.82 616.49 L 748.14 609.33 L 750.63 602.32 L 752.61 597.00 L 753.43 594.89 L 754.91 592.32 Z" fill="#333333" fill-rule="nonzero" group-id="6,19" id="路径" node-id="156" stroke="none" target-height="40.549988" target-width="23.78003" target-x="744.62" target-y="591.62"></path><path d="M 813.55 592.32 L 809.51 591.90 L 806.54 591.62 L 805.28 591.77 L 804.06 592.27 L 802.93 593.26 L 801.75 595.00 L 800.83 597.03 L 800.23 599.23 L 800.06 601.42 L 800.42 603.20 L 802.53 607.96 L 804.84 612.87 L 806.42 616.20 L 808.06 619.43 L 811.12 624.68 L 812.99 627.39 L 814.89 629.68 L 816.30 631.00 L 817.55 631.79 L 818.67 632.17 L 820.15 632.09 L 821.36 631.52 L 822.39 630.40 L 823.10 628.97 L 823.60 627.11 L 823.84 624.70 L 823.77 622.28 L 823.38 619.56 L 822.63 616.49 L 820.32 609.33 L 817.83 602.32 L 815.84 597.00 L 815.03 594.89 L 813.55 592.32 Z" fill="#333333" fill-rule="nonzero" group-id="6,20" id="路径备份-2" node-id="157" stroke="none" target-height="40.549988" target-width="23.78003" target-x="800.06" target-y="591.62"></path><path d="M 704.70 491.68 L 704.39 489.59 L 704.01 484.23 L 704.05 480.83 L 704.41 476.97 L 705.15 473.08 L 706.42 469.20 L 707.58 466.73 L 709.07 464.42 L 710.89 462.27 L 713.00 460.43 L 715.56 458.86 L 718.65 457.58 L 722.39 456.58 L 725.69 456.04 L 728.62 455.90 L 731.22 456.10 L 734.68 456.87 L 737.73 458.09 L 740.42 459.74 L 742.87 461.76 L 745.10 464.03 L 747.11 466.56 L 749.80 470.58 L 752.17 474.63 L 756.47 499.60 L 771.38 589.98 L 768.36 592.42 L 765.15 594.37 L 761.71 595.83 L 758.00 596.83 L 753.98 597.35 L 749.60 597.36 L 744.82 596.81 L 741.82 588.10 L 736.68 574.21 L 730.18 557.12 L 723.10 538.76 L 716.23 521.09 L 710.35 506.05 L 706.25 495.60 L 704.70 491.68 Z" fill="url(#linearGradient-31)" fill-rule="nonzero" group-id="6" id="路径-5" node-id="158" stroke="none" target-height="141.45999" target-width="67.369995" target-x="704.01" target-y="455.9"></path><path d="M 863.30 491.68 L 863.61 489.59 L 863.99 484.23 L 863.95 480.83 L 863.59 476.97 L 862.85 473.08 L 861.58 469.20 L 860.42 466.73 L 858.93 464.42 L 857.11 462.27 L 855.00 460.43 L 852.44 458.86 L 849.35 457.58 L 845.61 456.58 L 842.31 456.04 L 839.38 455.90 L 836.78 456.10 L 833.32 456.87 L 830.27 458.09 L 827.58 459.74 L 825.13 461.76 L 822.90 464.03 L 820.89 466.56 L 818.20 470.58 L 815.83 474.63 L 811.53 499.60 L 796.62 589.98 L 799.64 592.42 L 802.85 594.37 L 806.29 595.83 L 810.00 596.83 L 814.02 597.35 L 818.40 597.36 L 823.18 596.81 L 826.18 588.10 L 831.32 574.21 L 837.82 557.12 L 844.90 538.76 L 851.77 521.09 L 857.65 506.05 L 861.75 495.60 L 863.30 491.68 Z" fill="url(#linearGradient-31)" fill-rule="nonzero" group-id="6,21" id="路径-5备份" node-id="159" stroke="none" target-height="141.45999" target-width="67.369995" target-x="796.62" target-y="455.9"></path><path d="M 615.60 330.50 L 630.13 336.74 L 637.21 290.04 L 587.75 318.86 L 600.73 324.93 L 632.08 296.67 L 606.91 327.80 L 606.58 341.04 Z" fill="url(#linearGradient-32)" fill-rule="nonzero" id="飞机" node-id="160" stroke="none" target-height="51" target-width="49.460022" target-x="587.75" target-y="290.04"></path><path d="M 592.44 360.82 L 590.17 368.39 L 587.55 375.05 L 584.62 380.89 L 581.40 385.99 L 577.89 390.41 L 574.10 394.22 L 570.02 397.47 L 565.61 400.18 L 560.86 402.37 L 555.71 404.05 L 550.13 405.21 L 544.06 405.82 L 539.77 404.92 L 536.39 403.88 L 533.78 402.73 L 531.33 401.26 L 529.45 399.79 L 528.06 398.31 L 526.41 395.85 L 525.42 393.58 L 524.38 389.57 L 525.00 387.23 L 525.85 384.92 L 527.02 382.78 L 528.60 380.96 L 529.87 380.00 L 531.44 379.27 L 533.37 378.78 L 535.36 378.64 L 537.85 378.85 L 540.94 379.51 L 542.55 380.92 L 543.96 382.80 L 545.17 385.26 L 546.04 387.89 L 546.66 390.81 L 547.03 394.05 L 547.05 398.94 L 546.45 403.85 L 545.69 407.07 L 544.67 410.00 L 543.38 412.67 L 541.63 416.01 L 540.05 418.54 L 537.60 421.73 L 535.71 423.78 L 533.37 425.88 L 530.53 428.03 L 527.50 429.89 L 523.90 431.59 L 519.65 433.11 L 515.29 434.18 L 510.17 434.89 L 504.21 435.16 L 498.27 434.90 L 491.38 434.00 L 483.43 432.37 L 480.69 431.39 L 476.40 429.36 L 465.80 424.02 L 459.52 421.07 L 452.37 418.06 L 444.89 415.40 L 436.85 413.17 L 431.35 412.07 L 425.73 411.37 L 419.96 411.08 L 414.20 411.28 L 408.38 412.07 L 402.46 413.47 L 398.16 414.92 L 393.84 416.81 L 389.48 419.19 L 385.06 422.07 L 380.98 425.22 L 376.87 428.98 L 372.71 433.41 L 368.50 438.57 L 364.38 444.78 L 360.55 451.57 L 357.03 459.00 L 353.82 467.10" fill="none" group-id="7" id="路径-25" node-id="161" stroke="url(#linearGradient-33)" stroke-dasharray="1.9999999 1.9999999" stroke-linecap="butt" stroke-width="0.99999994" target-height="106.28" target-width="238.62" target-x="353.82" target-y="360.82"></path></svg>