<?xml version="1.0" standalone="no"?><svg class="icon" width="200px" height="200.00px" viewBox="0 0 1024 1024" version="1.1" xmlns="http://www.w3.org/2000/svg"><path d="M716.8 0H307.2C137.5488 0 0 137.5488 0 307.2v409.6c0 169.6512 137.5488 307.2 307.2 307.2h409.6c169.6512 0 307.2-137.5488 307.2-307.2V307.2c0-169.6512-137.5488-307.2-307.2-307.2z" fill="#D8F4EE" /><path d="M327.936 280.3712a24.3712 24.3712 0 0 1 48.7424 0v48.768a24.3712 24.3712 0 1 1-48.768 0v-48.768z m195.0464 0h-121.9072v73.1392a24.3712 24.3712 0 0 1-24.3968 24.3968H327.936a24.3712 24.3712 0 0 1-24.3712-24.3968v-73.1392h-24.3712A48.768 48.768 0 0 0 230.4 329.1392v390.0928C230.4 746.1632 252.2368 768 279.168 768H644.864c3.0208 0 5.9904-0.256 8.8832-0.8192a146.304 146.304 0 1 1 39.8592-289.7408v-148.3008a48.768 48.768 0 0 0-48.7424-48.768h-24.3968v73.1392a24.3712 24.3712 0 0 1-24.3712 24.3968H547.328a24.3712 24.3712 0 0 1-24.3712-24.3968v-73.1392zM571.7248 256a24.3712 24.3712 0 0 0-24.3712 24.3712v48.768a24.3712 24.3712 0 0 0 48.768 0v-48.768a24.3712 24.3712 0 0 0-24.3968-24.3712z m-292.5568 182.8608c0-6.7328 5.4528-12.1856 12.1856-12.1856h316.928a12.1856 12.1856 0 1 1 0 24.3712h-316.928a12.1856 12.1856 0 0 1-12.1856-12.1856z m12.1856 109.7216a12.1856 12.1856 0 1 1 0-24.3968h170.6752a12.1856 12.1856 0 1 1 0 24.3968H291.328z m-12.1856 85.3248c0-6.7328 5.4528-12.1856 12.1856-12.1856h170.6752a12.1856 12.1856 0 1 1 0 24.3712H291.328a12.1856 12.1856 0 0 1-12.1856-12.1856z" fill="#01C3A3" /><path d="M675.968 742.4a115.2 115.2 0 1 0 0-230.4 115.2 115.2 0 0 0 0 230.4z m25.7024-101.8112l30.208 30.2336a8.704 8.704 0 0 1-12.288 12.3136l-30.2336-30.2336a52.224 52.224 0 1 1 12.3136-12.288z m-7.7568-30.2848a34.816 34.816 0 1 1-69.6576 0 34.816 34.816 0 0 1 69.632 0z" fill="#75E8CD" /><path d="M637.568 627.2a12.8 12.8 0 0 1 25.6 0 12.8 12.8 0 1 1-25.6 0z" fill="#FFFFFF" /></svg>