<?xml version="1.0" standalone="no"?><svg class="icon" width="200px" height="200.00px" viewBox="0 0 1024 1024" version="1.1" xmlns="http://www.w3.org/2000/svg"><path d="M716.8 0H307.2C137.5488 0 0 137.5488 0 307.2v409.6c0 169.6512 137.5488 307.2 307.2 307.2h409.6c169.6512 0 307.2-137.5488 307.2-307.2V307.2c0-169.6512-137.5488-307.2-307.2-307.2z" fill="#FFEBEB" /><path d="M752.3072 346.0352a15.0528 15.0528 0 0 1 14.848-15.2576l34.2528-0.4352a15.0528 15.0528 0 0 1 15.2576 14.848l0.5888 46.2336h-64.3328l-0.6144-45.3888z m0.7936 60.416l2.8672 217.4208-6.5024 0.0768c-4.8896 0.0768-7.8848 5.248-5.376 9.344l39.5008 64.3584c2.5088 4.096 8.6272 3.9936 11.0336-0.1536l37.8112-65.3568c2.3808-4.1472-0.768-9.2672-5.632-9.216l-6.5024 0.1024-2.8416-216.576h-64.3584z" fill="#FF8E91" /><path d="M179.2 307.2c0-28.288 20.48-51.2 45.7216-51.2h548.5568c25.2672 0 45.7216 22.912 45.7216 51.2h-91.4176c-12.6208 0-22.8608 11.4688-22.8608 25.6v358.4c0 14.1312 10.24 25.6 22.8608 25.6H819.2c0 28.288-20.48 51.2-45.7216 51.2H224.9216C199.6544 768 179.2 745.088 179.2 716.8V307.2z m248.9344 288.9728a11.0592 11.0592 0 0 0 6.4-3.84l145.5872-171.7504a13.9008 13.9008 0 0 0-0.4096-18.0992 10.5728 10.5728 0 0 0-16.1536 0.4864l-137.6768 162.4064-60.7488-68.0192a12.3136 12.3136 0 0 0-1.152-1.4592 10.5728 10.5728 0 0 0-10.752-3.0976 11.136 11.136 0 0 0-6.2464 4.5568l-68.48 80.7936c-4.352 5.12-4.1728 13.2352 0.4096 18.0992 4.5824 4.864 11.8272 4.6592 16.1536-0.4608l61.184-72.192 61.6448 69.0432c2.7904 3.1232 6.656 4.3008 10.24 3.5328z" fill="#FE5570" /><path d="M307.328 704a12.928 12.928 0 0 1 12.928-12.8l255.9488 0.3584c7.0912 0 12.7488 5.76 12.672 12.8a12.928 12.928 0 0 1-12.928 12.8l-255.9488-0.3328a12.672 12.672 0 0 1-12.672-12.8256zM614.7584 704.64a12.7232 12.7232 0 0 1 12.6976-12.544c6.9376 0 12.544 5.632 12.4672 12.5696a12.7232 12.7232 0 0 1-12.7232 12.544 12.4672 12.4672 0 0 1-12.4416-12.544z" fill="#FFFFFF" /></svg>