<?xml version="1.0" standalone="no"?><svg class="icon" width="200px" height="200.00px" viewBox="0 0 1024 1024" version="1.1" xmlns="http://www.w3.org/2000/svg"><path d="M287.762 124.318v252.871c0 123.331 100.905 224.238 224.238 224.238 123.331 0 224.238-100.907 224.238-224.238V124.318H287.762z" fill="#BF4C19" /><path d="M379.487 124.318v149.434c0 72.882 59.63 132.513 132.513 132.513 72.882 0 132.513-59.631 132.513-132.513V124.318H379.487z" fill="#DC8C57" /><path d="M644.513 124.318v149.434c0 72.882-59.631 132.514-132.513 132.514-72.884 0-132.514-59.631-132.514-132.514V124.318h265.027m19.201-19.201H360.285v168.635c0 83.656 68.059 151.714 151.715 151.714s151.714-68.059 151.714-151.714V105.117z" fill="#FFFFFF" /><path d="M512 622.736m-339.055 0a339.055 339.055 0 1 0 678.11 0 339.055 339.055 0 1 0-678.11 0Z" fill="#FCC181" /><path d="M512 622.736m-250.074 0a250.074 250.074 0 1 0 500.148 0 250.074 250.074 0 1 0-500.148 0Z" fill="#FFE6BF" /><path d="M512 372.662c138.112 0 250.074 111.962 250.074 250.074S650.112 872.81 512 872.81c-138.113 0-250.074-111.962-250.074-250.074S373.888 372.662 512 372.662m0-24.001c-151.126 0-274.075 122.95-274.075 274.075S360.874 896.811 512 896.811s274.075-122.95 274.075-274.076S663.126 348.661 512 348.661z" fill="#FFFFFF" /><path d="M786.015 124.319h-548.03c-17.08 0-31.055-13.975-31.055-31.055s13.975-31.055 31.055-31.055h548.029c17.08 0 31.055 13.975 31.055 31.055 0.001 17.08-13.974 31.055-31.054 31.055z" fill="#231815" /><path d="M627.439 699.539c0 20.677-4.692 39.105-14.077 55.287-9.385 16.187-22.51 28.764-39.372 37.741-16.871 8.977-36.18 13.468-57.94 13.468-25.843 0-48.082-5.916-66.711-17.752-18.634-11.832-31.351-28.079-38.148-48.757l37.947-22.44c5.161 14.687 13.463 26.11 24.887 34.272 11.424 8.161 25.431 12.24 42.025 12.24 18.493 0 33.386-5.916 44.678-17.748 11.283-11.832 16.932-27.264 16.932-46.31 0-19.585-5.649-34.947-16.932-46.104-11.293-11.152-26.725-16.73-46.31-16.73-19.857 0-34.68 6.394-44.472 19.177l-28.97-31.417 108.53-113.836H424.654v-42.846h187.691v34.684l-86.91 91.804c19.585 0.272 37.131 4.894 52.633 13.871 15.507 8.977 27.606 21.423 36.316 37.333 8.7 15.914 13.055 33.938 13.055 54.063z"  /></svg>