<?xml version="1.0" standalone="no"?><svg class="icon" width="200px" height="200.00px" viewBox="0 0 1024 1024" version="1.1" xmlns="http://www.w3.org/2000/svg"><path d="M716.8 0H307.2C137.5488 0 0 137.5488 0 307.2v409.6c0 169.6512 137.5488 307.2 307.2 307.2h409.6c169.6512 0 307.2-137.5488 307.2-307.2V307.2c0-169.6512-137.5488-307.2-307.2-307.2z" fill="#FFEFEA" /><path d="M486.4 742.4c0 14.1312-11.52 25.7536-25.5488 24.192A230.3488 230.3488 0 0 1 256 537.6a230.4 230.4 0 0 1 204.8512-228.9664c14.0544-1.5872 25.5488 10.0352 25.5488 24.1664v409.6zM716.8 537.6c14.1312 0 25.7536 11.52 24.192 25.5488a230.3488 230.3488 0 0 1-203.4432 203.4432c-14.0544 1.536-25.5488-10.0608-25.5488-24.192v-179.2a25.6 25.6 0 0 1 25.6-25.6h179.2z" fill="#FF7B31" /><path d="M742.4 486.4c14.1312 0 25.7536-11.52 24.192-25.5488a230.3488 230.3488 0 0 0-203.4432-203.4176c-14.0544-1.5872-25.5488 10.0352-25.5488 24.1664v179.2a25.6 25.6 0 0 0 25.6 25.6h179.2z" fill="#FFB48B" /><path d="M367.855112 499.563133m-10.951014-19.393743l0.012587 0.022292q-10.951014-19.393743-30.344757-8.442729l0.022292-0.012588q-19.393743 10.951014-8.442729 30.344758l-0.012588-0.022292q10.951014 19.393743 30.344757 8.442729l-0.022291 0.012587q19.393743-10.951014 8.442729-30.344757Z" fill="#FFFFFF" /><path d="M353.1264 430.2848a16.4864 16.4864 0 0 0 27.136-8.0384l3.5328-13.6704a24.96 24.96 0 0 1 11.904-15.488l26.6752-15.0784a14.592 14.592 0 0 0 5.1968-20.4544 14.3872 14.3872 0 0 0-18.7648-5.2224c-42.624 22.0928-58.6752 38.2976-60.7232 65.92a14.976 14.976 0 0 0 5.0432 12.032z" fill="#FFFFFF" /></svg>