<?xml version="1.0" standalone="no"?><svg class="icon" width="200px" height="200.00px" viewBox="0 0 1024 1024" version="1.1" xmlns="http://www.w3.org/2000/svg"><path d="M716.8 0H307.2C137.5488 0 0 137.5488 0 307.2v409.6c0 169.6512 137.5488 307.2 307.2 307.2h409.6c169.6512 0 307.2-137.5488 307.2-307.2V307.2c0-169.6512-137.5488-307.2-307.2-307.2z" fill="#E3F0FF" /><path d="M256 729.6a38.4 38.4 0 0 1 38.4-38.4h435.2a38.4 38.4 0 0 1 0 76.8h-435.2a38.4 38.4 0 0 1-38.4-38.4z" fill="#6CB0FF" /><path d="M510.4128 256c-71.9616 0-120.4736 73.5744-92.1344 139.7248 10.8032 25.216 10.8032 53.76 0 78.9504-1.664 3.8912-3.072 7.808-4.224 11.7248H307.2a51.2 51.2 0 0 0-51.2 51.2v128h512v-128a51.2 51.2 0 0 0-51.2-51.2h-106.8544a103.8592 103.8592 0 0 0-4.224-11.7248 100.224 100.224 0 0 1 0-78.9504C634.0608 329.5744 585.5488 256 513.5872 256h-3.1744z" fill="#0B77FF" /><path d="M332.8 588.8m12.8 0l256 0q12.8 0 12.8 12.8l0 0q0 12.8-12.8 12.8l-256 0q-12.8 0-12.8-12.8l0 0q0-12.8 12.8-12.8Z" fill="#FFFFFF" /><path d="M640 588.8m12.8 0l0 0q12.8 0 12.8 12.8l0 0q0 12.8-12.8 12.8l0 0q-12.8 0-12.8-12.8l0 0q0-12.8 12.8-12.8Z" fill="#FFFFFF" /></svg>